{
.appVersion = "1201";
DisplayStrings = (
"/guilsinglright"
);
classes = (
{
automatic = 1;

glyphs = (
{
color = 3;
glyphname = A;
lastChange = "2019-01-08 21:39:27 +0000";
layers = (
{
anchors = (
{
name = bottom;
position = "{274, 0}";
},
{
name = ogonek;
position = "{591, 10}";
},
{
name = top;
position = "{399, 658}";
}
);
background = {
paths = (
{
closed = 1;
nodes = (
"1120 152 OFFCURVE",
"1126 102 OFFCURVE",
"1126 91 CURVE SMOOTH",
"1126 70 OFFCURVE",
"1124 54 OFFCURVE",
"1119 44 CURVE",
"1112 33 OFFCURVE",
"1081 24 OFFCURVE",
"1068 24 CURVE SMOOTH",
"1063 24 OFFCURVE",
"1061 17 OFFCURVE",
"1061 3 CURVE SMOOTH",
"1061 0 OFFCURVE",
"1061 -2 OFFCURVE",
"1062 -3 CURVE",
"1080 -2 OFFCURVE",
"1149 2 OFFCURVE",
"1169 2 CURVE SMOOTH",
"1176 2 OFFCURVE",
"1211 0 OFFCURVE",
"1273 -3 CURVE",
"1276 4 OFFCURVE",
"1278 11 OFFCURVE",
"1278 19 CURVE SMOOTH",
"1278 22 OFFCURVE",
"1277 24 OFFCURVE",
"1276 24 CURVE SMOOTH",
"1263 24 OFFCURVE",
"1221 40 OFFCURVE",
"1218 60 CURVE SMOOTH",
"1217 66 OFFCURVE",
"1213 90 OFFCURVE",
"1206 132 CURVE SMOOTH",
"1123 660 LINE",
"1120 661 OFFCURVE",
"1118 662 OFFCURVE",
"1115 662 CURVE SMOOTH",
"1099 662 OFFCURVE",
"1086 653 OFFCURVE",
"1076 635 CURVE SMOOTH",
"800 139 LINE SMOOTH",
"774 92 OFFCURVE",
"754 61 OFFCURVE",
"739 45 CURVE SMOOTH",
"728 33 OFFCURVE",
"696 24 OFFCURVE",
"681 24 CURVE SMOOTH",
"676 24 OFFCURVE",
"674 18 OFFCURVE",
"674 5 CURVE SMOOTH",
"674 1 OFFCURVE",
"675 -2 OFFCURVE",
"676 -3 CURVE",
"692 -2 OFFCURVE",
"755 2 OFFCURVE",
"774 2 CURVE SMOOTH",
"775 2 OFFCURVE",
"807 0 OFFCURVE",
"869 -3 CURVE",
"872 4 OFFCURVE",
"874 11 OFFCURVE",
"874 18 CURVE SMOOTH",
"874 22 OFFCURVE",
"873 24 OFFCURVE",
"872 24 CURVE SMOOTH",
"859 24 OFFCURVE",
"817 35 OFFCURVE",
"817 55 CURVE SMOOTH",
"817 70 OFFCURVE",
"900 244 OFFCURVE",
"914 244 CURVE",
"962 247 OFFCURVE",
"993 249 OFFCURVE",
"1007 249 CURVE SMOOTH",
"1039 249 OFFCURVE",
"1085 248 OFFCURVE",
"1096 247 CURVE SMOOTH",
"1104 246 OFFCURVE",
"1108 245 OFFCURVE",
"1108 239 CURVE"
);
},
{
closed = 1;
nodes = (
"985 298 OFFCURVE",
"959 298 OFFCURVE",
"944 299 CURVE",
"943 299 OFFCURVE",
"943 300 OFFCURVE",
"943 301 CURVE SMOOTH",
"943 302 OFFCURVE",
"984 377 OFFCURVE",
"1066 526 CURVE",
"1072 481 OFFCURVE",
"1099 352 OFFCURVE",
"1099 304 CURVE SMOOTH",
"1099 301 OFFCURVE",
"1098 300 OFFCURVE",
"1095 300 CURVE",
"1076 299 OFFCURVE",
"1051 298 OFFCURVE",
"1020 298 CURVE SMOOTH"
);
},
{
closed = 1;
nodes = (
"-28 -2 OFFCURVE",
"40 2 OFFCURVE",
"60 2 CURVE SMOOTH",
"94 2 OFFCURVE",
"129 -1 OFFCURVE",
"162 -3 CURVE",
"164 0 OFFCURVE",
"166 5 OFFCURVE",
"167 10 CURVE SMOOTH",
"168 18 OFFCURVE",
"168 26 OFFCURVE",
"166 26 CURVE SMOOTH",
"154 26 OFFCURVE",
"121 33 OFFCURVE",
"111 42 CURVE SMOOTH",
"107 46 OFFCURVE",
"105 53 OFFCURVE",
"107 62 CURVE SMOOTH",
"109 75 OFFCURVE",
"118 99 OFFCURVE",
"137 131 CURVE",
"203 244 LINE",
"254 247 OFFCURVE",
"300 249 OFFCURVE",
"335 249 CURVE SMOOTH",
"360 249 OFFCURVE",
"389 248 OFFCURVE",
"415 246 CURVE",
"437 118 LINE",
"439 105 OFFCURVE",
"439 77 OFFCURVE",
"436 60 CURVE SMOOTH",
"435 55 OFFCURVE",
"432 49 OFFCURVE",
"430 44 CURVE SMOOTH",
"426 33 OFFCURVE",
"392 26 OFFCURVE",
"376 26 CURVE SMOOTH",
"373 26 OFFCURVE",
"370 19 OFFCURVE",
"368 12 CURVE SMOOTH",
"367 6 OFFCURVE",
"368 -1 OFFCURVE",
"369 -3 CURVE",
"409 -1 OFFCURVE",
"447 2 OFFCURVE",
"481 2 CURVE SMOOTH",
"493 2 OFFCURVE",
"529 0 OFFCURVE",
"595 -3 CURVE",
"597 1 OFFCURVE",
"599 4 OFFCURVE",
"599 7 CURVE SMOOTH",
"602 20 OFFCURVE",
"602 26 OFFCURVE",
"599 26 CURVE SMOOTH",
"583 26 OFFCURVE",
"542 40 OFFCURVE",
"538 60 CURVE SMOOTH",
"534 77 OFFCURVE",
"528 101 OFFCURVE",
"523 132 CURVE SMOOTH",
"427 646 LINE SMOOTH",
"426 657 OFFCURVE",
"423 663 OFFCURVE",
"414 663 CURVE SMOOTH",
"397 663 OFFCURVE",
"387 654 OFFCURVE",
"375 634 CURVE SMOOTH",
"87 139 LINE SMOOTH",
"61 94 OFFCURVE",
"39 63 OFFCURVE",
"22 45 CURVE SMOOTH",
"10 33 OFFCURVE",
"-23 26 OFFCURVE",
"-39 26 CURVE SMOOTH",
"-42 26 OFFCURVE",
"-44 21 OFFCURVE",
"-46 12 CURVE SMOOTH",
"-47 5 OFFCURVE",
"-47 0 OFFCURVE",
"-45 -3 CURVE"
);
},
{
closed = 1;
nodes = (
"297 297 OFFCURVE",
"270 298 OFFCURVE",
"235 299 CURVE",
"391 568 LINE",
"359 568 LINE",
"406 300 LINE",
"375 298 OFFCURVE",
"339 297 OFFCURVE",
"310 297 CURVE SMOOTH"
);
}
);
};
color = -1;
layerId = "02396921-8257-42A3-8ED5-3052446F9CE3";
paths = (
{
closed = 1;
nodes = (
"-18 -2 OFFCURVE",
"50 2 OFFCURVE",
"70 2 CURVE SMOOTH",
"104 2 OFFCURVE",
"139 -1 OFFCURVE",
"172 -3 CURVE",
"174 0 OFFCURVE",
"176 5 OFFCURVE",
"177 10 CURVE SMOOTH",
"179 18 OFFCURVE",
"178 26 OFFCURVE",
"176 26 CURVE SMOOTH",
"164 26 OFFCURVE",
"131 32 OFFCURVE",
"121 42 CURVE SMOOTH",
"117 46 OFFCURVE",
"115 53 OFFCURVE",
"117 62 CURVE SMOOTH",
"120 75 OFFCURVE",
"128 99 OFFCURVE",
"147 131 CURVE",
"389 568 LINE",
"359 568 LINE",
"427 118 LINE",
"429 105 OFFCURVE",
"429 77 OFFCURVE",
"426 60 CURVE SMOOTH",
"425 55 OFFCURVE",
"422 49 OFFCURVE",
"420 44 CURVE SMOOTH",
"416 33 OFFCURVE",
"382 26 OFFCURVE",
"366 26 CURVE SMOOTH",
"363 26 OFFCURVE",
"360 19 OFFCURVE",
"358 12 CURVE SMOOTH",
"356 6 OFFCURVE",
"358 -1 OFFCURVE",
"359 -3 CURVE",
"399 -1 OFFCURVE",
"437 2 OFFCURVE",
"471 2 CURVE SMOOTH",
"483 2 OFFCURVE",
"512 0 OFFCURVE",
"578 -3 CURVE",
"580 1 OFFCURVE",
"582 4 OFFCURVE",
"582 7 CURVE SMOOTH",
"582 20 OFFCURVE",
"585 26 OFFCURVE",
"582 26 CURVE SMOOTH",
"566 26 OFFCURVE",
"525 40 OFFCURVE",
"521 60 CURVE SMOOTH",
"518 77 OFFCURVE",
"511 101 OFFCURVE",
"506 132 CURVE SMOOTH",
"420 646 LINE SMOOTH",
"418 657 OFFCURVE",
"416 663 OFFCURVE",
"407 663 CURVE SMOOTH",
"390 663 OFFCURVE",
"386 654 OFFCURVE",
"375 634 CURVE SMOOTH",
"97 139 LINE SMOOTH",
"72 94 OFFCURVE",
"50 63 OFFCURVE",
"32 45 CURVE SMOOTH",
"20 33 OFFCURVE",
"-13 26 OFFCURVE",
"-29 26 CURVE SMOOTH",
"-32 26 OFFCURVE",
"-33 21 OFFCURVE",
"-36 12 CURVE SMOOTH",
"-38 5 OFFCURVE",
"-37 0 OFFCURVE",
"-35 -3 CURVE"
);
},
{
closed = 1;
nodes = (
"243 246 OFFCURVE",
"296 249 OFFCURVE",
"335 249 CURVE SMOOTH",
"364 249 OFFCURVE",
"399 248 OFFCURVE",
"428 245 CURVE",
"419 301 LINE",
"385 298 OFFCURVE",
"343 297 OFFCURVE",
"310 297 CURVE SMOOTH",
"294 297 OFFCURVE",
"258 298 OFFCURVE",
"212 300 CURVE",
"184 243 LINE"
);
}
);
width = 630;
},
{
anchors = (
{
name = bottom;
position = "{287, 0}";
},
{
name = ogonek;
position = "{630, 10}";
},
{
name = top;
position = "{415, 658}";
}
);
background = {
paths = (
{
closed = 1;
nodes = (
"338 213 OFFCURVE",
"368 212 OFFCURVE",
"392 211 CURVE",
"396 211 OFFCURVE",
"398 210 OFFCURVE",
"398 207 CURVE",
"413 121 OFFCURVE",
"420 75 OFFCURVE",
"420 69 CURVE SMOOTH",
"420 64 OFFCURVE",
"418 60 OFFCURVE",
"415 55 CURVE",
"387 23 OFFCURVE",
"356 50 OFFCURVE",
"356 3 CURVE SMOOTH",
"356 -1 OFFCURVE",
"356 -3 OFFCURVE",
"357 -4 CURVE",
"436 1 OFFCURVE",
"482 3 OFFCURVE",
"495 3 CURVE SMOOTH",
"511 3 OFFCURVE",
"535 2 OFFCURVE",
"567 -1 CURVE SMOOTH",
"598 -3 OFFCURVE",
"615 -4 OFFCURVE",
"617 -4 CURVE",
"622 2 OFFCURVE",
"624 12 OFFCURVE",
"624 25 CURVE SMOOTH",
"624 28 OFFCURVE",
"623 30 OFFCURVE",
"622 30 CURVE SMOOTH",
"607 30 OFFCURVE",
"566 45 OFFCURVE",
"562 66 CURVE SMOOTH",
"555 99 OFFCURVE",
"551 124 OFFCURVE",
"548 141 CURVE",
"443 659 LINE",
"441 664 OFFCURVE",
"437 667 OFFCURVE",
"431 667 CURVE SMOOTH",
"423 667 OFFCURVE",
"414 660 OFFCURVE",
"403 645 CURVE SMOOTH",
"397 637 OFFCURVE",
"392 631 OFFCURVE",
"389 626 CURVE SMOOTH",
"386 621 OFFCURVE",
"378 607 OFFCURVE",
"365 586 CURVE SMOOTH",
"93 134 LINE SMOOTH",
"73 101 OFFCURVE",
"60 80 OFFCURVE",
"54 71 CURVE",
"42 55 OFFCURVE",
"-18 30 OFFCURVE",
"-31 30 CURVE SMOOTH",
"-34 30 OFFCURVE",
"-36 21 OFFCURVE",
"-36 4 CURVE SMOOTH",
"-36 0 OFFCURVE",
"-36 -3 OFFCURVE",
"-35 -4 CURVE",
"-26 -3 OFFCURVE",
"-8 -2 OFFCURVE",
"19 0 CURVE SMOOTH",
"45 2 OFFCURVE",
"66 3 OFFCURVE",
"83 3 CURVE SMOOTH",
"99 3 OFFCURVE",
"118 2 OFFCURVE",
"139 0 CURVE SMOOTH",
"160 -2 OFFCURVE",
"175 -3 OFFCURVE",
"183 -4 CURVE",
"186 3 OFFCURVE",
"188 13 OFFCURVE",
"188 26 CURVE SMOOTH",
"188 29 OFFCURVE",
"187 30 OFFCURVE",
"186 30 CURVE SMOOTH",
"121 30 OFFCURVE",
"100 51 OFFCURVE",
"154 131 CURVE",
"199 207 LINE",
"200 208 OFFCURVE",
"212 212 OFFCURVE",
"216 212 CURVE SMOOTH",
"238 213 OFFCURVE",
"266 213 OFFCURVE",
"301 213 CURVE SMOOTH"
);
},
{
closed = 1;
nodes = (
"286 273 OFFCURVE",
"263 274 OFFCURVE",
"245 276 CURVE",
"244 276 OFFCURVE",
"243 279 OFFCURVE",
"244 280 CURVE",
"352 458 LINE",
"384 280 LINE",
"384 277 OFFCURVE",
"383 275 OFFCURVE",
"380 275 CURVE",
"361 274 OFFCURVE",
"338 273 OFFCURVE",
"313 273 CURVE SMOOTH"
);
}
);
};
color = -1;
layerId = "EE330C8E-4A1C-402A-831D-620872201BE1";
paths = (
{
closed = 1;
nodes = (
"17 1 OFFCURVE",
"51 4 OFFCURVE",
"70 4 CURVE SMOOTH",
"86 4 OFFCURVE",
"113 2 OFFCURVE",
"183 -4 CURVE",
"184 0 OFFCURVE",
"187 7 OFFCURVE",
"189 17 CURVE SMOOTH",
"191 27 OFFCURVE",
"191 33 OFFCURVE",
"189 33 CURVE SMOOTH",
"162 33 OFFCURVE",
"147 38 OFFCURVE",
"132 48 CURVE SMOOTH",
"125 53 OFFCURVE",
"122 63 OFFCURVE",
"123 71 CURVE SMOOTH",
"125 86 OFFCURVE",
"139 105 OFFCURVE",
"155 131 CURVE SMOOTH",
"376 500 LINE",
"343 501 LINE",
"410 135 LINE SMOOTH",
"418 92 OFFCURVE",
"421 77 OFFCURVE",
"420 66 CURVE SMOOTH",
"419 58 OFFCURVE",
"411 51 OFFCURVE",
"402 46 CURVE SMOOTH",
"387 38 OFFCURVE",
"365 33 OFFCURVE",
"347 33 CURVE SMOOTH",
"344 33 OFFCURVE",
"342 28 OFFCURVE",
"340 17 CURVE SMOOTH",
"338 6 OFFCURVE",
"337 -1 OFFCURVE",
"340 -4 CURVE",
"437 1 OFFCURVE",
"487 4 OFFCURVE",
"492 4 CURVE SMOOTH",
"512 4 OFFCURVE",
"574 0 OFFCURVE",
"626 -4 CURVE",
"627 -2 OFFCURVE",
"629 5 OFFCURVE",
"632 16 CURVE SMOOTH",
"635 27 OFFCURVE",
"634 33 OFFCURVE",
"631 33 CURVE SMOOTH",
"612 33 OFFCURVE",
"568 45 OFFCURVE",
"563 66 CURVE SMOOTH",
"557 90 OFFCURVE",
"552 117 OFFCURVE",
"546 148 CURVE SMOOTH",
"450 655 LINE SMOOTH",
"448 665 OFFCURVE",
"438 668 OFFCURVE",
"428 668 CURVE SMOOTH",
"416 668 OFFCURVE",
"412 659 OFFCURVE",
"401 642 CURVE SMOOTH",
"84 122 LINE SMOOTH",
"75 107 OFFCURVE",
"56 80 OFFCURVE",
"43 64 CURVE SMOOTH",
"31 49 OFFCURVE",
"-22 32 OFFCURVE",
"-38 32 CURVE SMOOTH",
"-39 32 OFFCURVE",
"-42 25 OFFCURVE",
"-44 11 CURVE SMOOTH",
"-45 4 OFFCURVE",
"-46 -1 OFFCURVE",
"-43 -4 CURVE"
);
},
{
closed = 1;
nodes = (
"207 216 OFFCURVE",
"251 216 OFFCURVE",
"302 216 CURVE SMOOTH",
"361 216 OFFCURVE",
"401 216 OFFCURVE",
"411 214 CURVE",
"402 273 LINE",
"381 271 OFFCURVE",
"347 270 OFFCURVE",
"314 270 CURVE SMOOTH",
"279 270 OFFCURVE",
"244 271 OFFCURVE",
"225 274 CURVE",
"186 214 LINE"
);
}
);
width = 667;
}
);
note = A;
unicode = 0041;
},
{
color = 3;
glyphname = Aogonek;
lastChange = "2019-01-08 21:39:27 +0000";
layers = (
{
anchors = (
{
name = bottom;
position = "{274, 0}";
},
{
name = top;
position = "{399, 658}";
}
);
background = {
paths = (
{
closed = 1;
nodes = (
"465 -223 OFFCURVE",
"509 -204 OFFCURVE",
"546 -157 CURVE SMOOTH",
"550 -152 OFFCURVE",
"553 -146 OFFCURVE",
"554 -139 CURVE SMOOTH",
"555 -130 OFFCURVE",
"555 -126 OFFCURVE",
"552 -126 CURVE",
"532 -143 OFFCURVE",
"497 -164 OFFCURVE",
"463 -164 CURVE SMOOTH",
"432 -164 OFFCURVE",
"426 -146 OFFCURVE",
"429 -128 CURVE SMOOTH",
"436 -87 OFFCURVE",
"511 -33 OFFCURVE",
"579 -3 CURVE",
"580 1 OFFCURVE",
"582 4 OFFCURVE",
"583 7 CURVE SMOOTH",
"587 19 OFFCURVE",
"585 26 OFFCURVE",
"582 26 CURVE SMOOTH",
"566 26 OFFCURVE",
"525 40 OFFCURVE",
"521 60 CURVE SMOOTH",
"518 77 OFFCURVE",
"512 101 OFFCURVE",
"506 132 CURVE SMOOTH",
"411 646 LINE SMOOTH",
"409 657 OFFCURVE",
"406 663 OFFCURVE",
"397 663 CURVE SMOOTH",
"380 663 OFFCURVE",
"370 654 OFFCURVE",
"358 634 CURVE SMOOTH",
"70 139 LINE SMOOTH",
"44 95 OFFCURVE",
"22 63 OFFCURVE",
"5 45 CURVE SMOOTH",
"-6 33 OFFCURVE",
"-40 26 OFFCURVE",
"-56 26 CURVE SMOOTH",
"-59 26 OFFCURVE",
"-61 21 OFFCURVE",
"-62 12 CURVE SMOOTH",
"-63 5 OFFCURVE",
"-64 0 OFFCURVE",
"-61 -3 CURVE",
"-44 -2 OFFCURVE",
"24 2 OFFCURVE",
"44 2 CURVE SMOOTH",
"78 2 OFFCURVE",
"112 -1 OFFCURVE",
"146 -3 CURVE",
"147 0 OFFCURVE",
"149 5 OFFCURVE",
"150 10 CURVE SMOOTH",
"152 18 OFFCURVE",
"151 26 OFFCURVE",
"149 26 CURVE SMOOTH",
"137 26 OFFCURVE",
"104 32 OFFCURVE",
"94 42 CURVE SMOOTH",
"90 46 OFFCURVE",
"89 53 OFFCURVE",
"90 62 CURVE SMOOTH",
"91 75 OFFCURVE",
"102 98 OFFCURVE",
"121 131 CURVE SMOOTH",
"187 244 LINE",
"237 247 OFFCURVE",
"284 249 OFFCURVE",
"319 249 CURVE SMOOTH",
"344 249 OFFCURVE",
"372 248 OFFCURVE",
"398 246 CURVE",
"420 118 LINE SMOOTH",
"422 105 OFFCURVE",
"422 77 OFFCURVE",
"419 60 CURVE SMOOTH",
"418 55 OFFCURVE",
"416 49 OFFCURVE",
"414 44 CURVE SMOOTH",
"410 33 OFFCURVE",
"375 26 OFFCURVE",
"359 26 CURVE SMOOTH",
"356 26 OFFCURVE",
"353 19 OFFCURVE",
"352 12 CURVE SMOOTH",
"351 6 OFFCURVE",
"351 -1 OFFCURVE",
"353 -3 CURVE",
"392 -1 OFFCURVE",
"431 2 OFFCURVE",
"465 2 CURVE SMOOTH",
"472 2 OFFCURVE",
"495 2 OFFCURVE",
"523 1 CURVE",
"440 -39 OFFCURVE",
"382 -95 OFFCURVE",
"372 -146 CURVE SMOOTH",
"365 -182 OFFCURVE",
"379 -223 OFFCURVE",
"428 -223 CURVE SMOOTH"
);
},
{
closed = 1;
nodes = (
"280 297 OFFCURVE",
"253 298 OFFCURVE",
"218 299 CURVE",
"375 568 LINE",
"343 568 LINE",
"390 300 LINE",
"358 298 OFFCURVE",
"322 297 OFFCURVE",
"293 297 CURVE SMOOTH"
);
}
);
};
color = -1;
layerId = "02396921-8257-42A3-8ED5-3052446F9CE3";
paths = (
{
closed = 1;
nodes = (
"486 -223 OFFCURVE",
"526 -204 OFFCURVE",
"563 -157 CURVE SMOOTH",
"567 -152 OFFCURVE",
"570 -146 OFFCURVE",
"571 -139 CURVE SMOOTH",
"572 -130 OFFCURVE",
"572 -126 OFFCURVE",
"569 -126 CURVE",
"550 -143 OFFCURVE",
"516 -164 OFFCURVE",
"484 -164 CURVE SMOOTH",
"457 -164 OFFCURVE",
"447 -150 OFFCURVE",
"447 -133 CURVE SMOOTH",
"447 -83 OFFCURVE",
"522 -27 OFFCURVE",
"578 -3 CURVE",
"580 1 OFFCURVE",
"581 4 OFFCURVE",
"582 7 CURVE SMOOTH",
"586 19 OFFCURVE",
"585 26 OFFCURVE",
"582 26 CURVE SMOOTH",
"566 26 OFFCURVE",
"526 40 OFFCURVE",
"521 60 CURVE SMOOTH",
"517 77 OFFCURVE",
"511 101 OFFCURVE",
"506 132 CURVE SMOOTH",
"420 646 LINE SMOOTH",
"418 657 OFFCURVE",
"416 663 OFFCURVE",
"407 663 CURVE SMOOTH",
"390 663 OFFCURVE",
"386 654 OFFCURVE",
"375 634 CURVE SMOOTH",
"97 139 LINE SMOOTH",
"72 94 OFFCURVE",
"50 63 OFFCURVE",
"32 45 CURVE SMOOTH",
"20 33 OFFCURVE",
"-13 26 OFFCURVE",
"-29 26 CURVE SMOOTH",
"-32 26 OFFCURVE",
"-33 21 OFFCURVE",
"-36 12 CURVE",
"-38 5 OFFCURVE",
"-37 0 OFFCURVE",
"-35 -3 CURVE",
"-18 -2 OFFCURVE",
"50 2 OFFCURVE",
"70 2 CURVE SMOOTH",
"104 2 OFFCURVE",
"139 -1 OFFCURVE",
"172 -3 CURVE",
"174 0 OFFCURVE",
"176 5 OFFCURVE",
"177 10 CURVE",
"179 18 OFFCURVE",
"178 26 OFFCURVE",
"176 26 CURVE SMOOTH",
"164 26 OFFCURVE",
"131 32 OFFCURVE",
"121 42 CURVE SMOOTH",
"117 46 OFFCURVE",
"115 53 OFFCURVE",
"117 62 CURVE SMOOTH",
"120 75 OFFCURVE",
"129 98 OFFCURVE",
"147 131 CURVE SMOOTH",
"387 564 LINE",
"358 569 LINE",
"427 118 LINE SMOOTH",
"429 105 OFFCURVE",
"429 77 OFFCURVE",
"426 60 CURVE SMOOTH",
"421 35 OFFCURVE",
"399 26 OFFCURVE",
"366 26 CURVE SMOOTH",
"363 26 OFFCURVE",
"360 19 OFFCURVE",
"358 12 CURVE",
"356 6 OFFCURVE",
"358 -1 OFFCURVE",
"359 -3 CURVE",
"399 -1 OFFCURVE",
"437 2 OFFCURVE",
"471 2 CURVE SMOOTH",
"481 2 OFFCURVE",
"502 2 OFFCURVE",
"544 0 CURVE",
"553 18 LINE",
"462 -31 OFFCURVE",
"387 -94 OFFCURVE",
"387 -163 CURVE SMOOTH",
"387 -194 OFFCURVE",
"408 -223 OFFCURVE",
"451 -223 CURVE SMOOTH"
);
},
{
closed = 1;
nodes = (
"243 246 OFFCURVE",
"296 249 OFFCURVE",
"335 249 CURVE SMOOTH",
"364 249 OFFCURVE",
"399 248 OFFCURVE",
"428 245 CURVE",
"419 301 LINE",
"385 298 OFFCURVE",
"343 297 OFFCURVE",
"310 297 CURVE SMOOTH",
"294 297 OFFCURVE",
"258 298 OFFCURVE",
"212 300 CURVE",
"184 243 LINE"
);
}
);
width = 630;
},
{
anchors = (
{
name = bottom;
position = "{287, 0}";
},
{
name = top;
position = "{415, 658}";
}
);
background = {
paths = (
{
closed = 1;
nodes = (
"402 273 LINE",
"381 271 OFFCURVE",
"347 270 OFFCURVE",
"314 270 CURVE SMOOTH",
"279 270 OFFCURVE",
"244 271 OFFCURVE",
"225 274 CURVE",
"186 214 LINE",
"207 216 OFFCURVE",
"251 216 OFFCURVE",
"302 216 CURVE SMOOTH",
"361 216 OFFCURVE",
"401 216 OFFCURVE",
"411 214 CURVE"
);
},
{
closed = 1;
nodes = (
"410 135 LINE SMOOTH",
"418 92 OFFCURVE",
"421 77 OFFCURVE",
"420 66 CURVE SMOOTH",
"419 58 OFFCURVE",
"411 51 OFFCURVE",
"402 46 CURVE SMOOTH",
"387 38 OFFCURVE",
"365 33 OFFCURVE",
"347 33 CURVE SMOOTH",
"344 33 OFFCURVE",
"342 28 OFFCURVE",
"340 17 CURVE SMOOTH",
"338 6 OFFCURVE",
"337 -1 OFFCURVE",
"340 -4 CURVE",
"437 1 OFFCURVE",
"487 4 OFFCURVE",
"492 4 CURVE SMOOTH",
"512 4 OFFCURVE",
"574 0 OFFCURVE",
"626 -4 CURVE",
"627 -2 OFFCURVE",
"629 5 OFFCURVE",
"632 16 CURVE SMOOTH",
"635 27 OFFCURVE",
"634 33 OFFCURVE",
"631 33 CURVE SMOOTH",
"612 33 OFFCURVE",
"568 45 OFFCURVE",
"563 66 CURVE SMOOTH",
"557 90 OFFCURVE",
"552 117 OFFCURVE",
"546 148 CURVE SMOOTH",
"450 655 LINE SMOOTH",
"448 665 OFFCURVE",
"438 668 OFFCURVE",
"428 668 CURVE SMOOTH",
"416 668 OFFCURVE",
"412 659 OFFCURVE",
"401 642 CURVE SMOOTH",
"84 122 LINE SMOOTH",
"75 107 OFFCURVE",
"56 80 OFFCURVE",
"43 64 CURVE SMOOTH",
"31 49 OFFCURVE",
"-22 32 OFFCURVE",
"-38 32 CURVE SMOOTH",
"-39 32 OFFCURVE",
"-42 25 OFFCURVE",
"-44 11 CURVE SMOOTH",
"-45 4 OFFCURVE",
"-46 -1 OFFCURVE",
"-43 -4 CURVE",
"17 1 OFFCURVE",
"51 4 OFFCURVE",
"70 4 CURVE SMOOTH",
"86 4 OFFCURVE",
"113 2 OFFCURVE",
"183 -4 CURVE",
"184 0 OFFCURVE",
"187 7 OFFCURVE",
"189 17 CURVE SMOOTH",
"191 27 OFFCURVE",
"191 33 OFFCURVE",
"189 33 CURVE SMOOTH",
"162 33 OFFCURVE",
"147 38 OFFCURVE",
"132 48 CURVE SMOOTH",
"125 53 OFFCURVE",
"122 63 OFFCURVE",
"123 71 CURVE SMOOTH",
"125 86 OFFCURVE",
"139 105 OFFCURVE",
"155 131 CURVE SMOOTH",
"376 500 LINE",
"343 501 LINE"
);
},
{
closed = 1;
nodes = (
"524 -218 OFFCURVE",
"585 -189 OFFCURVE",
"613 -149 CURVE SMOOTH",
"617 -143 OFFCURVE",
"625 -131 OFFCURVE",
"625 -117 CURVE SMOOTH",
"625 -112 OFFCURVE",
"624 -109 OFFCURVE",
"622 -109 CURVE",
"604 -122 OFFCURVE",
"561 -142 OFFCURVE",
"536 -142 CURVE SMOOTH",
"513 -142 OFFCURVE",
"497 -130 OFFCURVE",
"501 -110 CURVE SMOOTH",
"508 -73 OFFCURVE",
"546 -35 OFFCURVE",
"617 2 CURVE",
"630 10 LINE",
"596 10 LINE",
"573 3 LINE",
"507 -16 OFFCURVE",
"410 -91 OFFCURVE",
"410 -155 CURVE SMOOTH",
"410 -194 OFFCURVE",
"440 -218 OFFCURVE",
"485 -218 CURVE SMOOTH"
);
}
);
};
color = -1;
layerId = "EE330C8E-4A1C-402A-831D-620872201BE1";
paths = (
{
closed = 1;
nodes = (
"524 -218 OFFCURVE",
"586 -190 OFFCURVE",
"613 -149 CURVE SMOOTH",
"617 -143 OFFCURVE",
"625 -131 OFFCURVE",
"625 -117 CURVE SMOOTH",
"625 -112 OFFCURVE",
"624 -109 OFFCURVE",
"622 -109 CURVE",
"604 -122 OFFCURVE",
"561 -142 OFFCURVE",
"536 -142 CURVE SMOOTH",
"513 -142 OFFCURVE",
"501 -132 OFFCURVE",
"501 -115 CURVE SMOOTH",
"501 -78 OFFCURVE",
"546 -35 OFFCURVE",
"626 -4 CURVE",
"627 -2 OFFCURVE",
"629 5 OFFCURVE",
"632 16 CURVE SMOOTH",
"635 27 OFFCURVE",
"634 33 OFFCURVE",
"631 33 CURVE SMOOTH",
"612 33 OFFCURVE",
"568 45 OFFCURVE",
"563 66 CURVE SMOOTH",
"557 90 OFFCURVE",
"552 117 OFFCURVE",
"546 148 CURVE SMOOTH",
"450 655 LINE SMOOTH",
"448 665 OFFCURVE",
"438 668 OFFCURVE",
"428 668 CURVE SMOOTH",
"416 668 OFFCURVE",
"412 659 OFFCURVE",
"401 642 CURVE SMOOTH",
"84 122 LINE SMOOTH",
"75 107 OFFCURVE",
"56 80 OFFCURVE",
"43 64 CURVE SMOOTH",
"31 49 OFFCURVE",
"-22 32 OFFCURVE",
"-38 32 CURVE SMOOTH",
"-39 32 OFFCURVE",
"-42 25 OFFCURVE",
"-44 11 CURVE SMOOTH",
"-45 4 OFFCURVE",
"-46 -1 OFFCURVE",
"-43 -4 CURVE",
"17 1 OFFCURVE",
"51 4 OFFCURVE",
"70 4 CURVE SMOOTH",
"86 4 OFFCURVE",
"113 2 OFFCURVE",
"183 -4 CURVE",
"184 0 OFFCURVE",
"187 7 OFFCURVE",
"189 17 CURVE SMOOTH",
"191 27 OFFCURVE",
"191 33 OFFCURVE",
"189 33 CURVE SMOOTH",
"162 33 OFFCURVE",
"147 38 OFFCURVE",
"132 48 CURVE SMOOTH",
"125 53 OFFCURVE",
"122 63 OFFCURVE",
"123 71 CURVE SMOOTH",
"125 86 OFFCURVE",
"139 105 OFFCURVE",
"155 131 CURVE SMOOTH",
"376 500 LINE",
"343 501 LINE",
"410 135 LINE SMOOTH",
"418 92 OFFCURVE",
"421 77 OFFCURVE",
"420 66 CURVE SMOOTH",
"418 47 OFFCURVE",
"378 33 OFFCURVE",
"347 33 CURVE SMOOTH",
"344 33 OFFCURVE",
"342 28 OFFCURVE",
"340 17 CURVE SMOOTH",
"338 6 OFFCURVE",
"337 -1 OFFCURVE",
"340 -4 CURVE",
"391 -1 OFFCURVE",
"458 4 OFFCURVE",
"492 4 CURVE",
"509 4 OFFCURVE",
"560 1 OFFCURVE",
"605 -2 CURVE",
"578 6 LINE",
"514 -7 OFFCURVE",
"410 -86 OFFCURVE",
"410 -155 CURVE SMOOTH",
"410 -194 OFFCURVE",
"440 -218 OFFCURVE",
"485 -218 CURVE SMOOTH"
);
},
{
closed = 1;
nodes = (
"207 216 OFFCURVE",
"251 216 OFFCURVE",
"302 216 CURVE SMOOTH",
"361 216 OFFCURVE",
"401 216 OFFCURVE",
"411 214 CURVE",
"402 273 LINE",
"381 271 OFFCURVE",
"347 270 OFFCURVE",
"314 270 CURVE SMOOTH",
"279 270 OFFCURVE",
"244 271 OFFCURVE",
"225 274 CURVE",
"186 214 LINE"
);
}
);
width = 667;
}
);
leftMetricsKey = A;
widthMetricsKey = A;
note = Aogonek;
unicode = 0104;
},
{
color = 3;
glyphname = AE;
lastChange = "2019-01-09 15:00:04 +0000";
layers = (
{
anchors = (
{
name = bottom;
position = "{442, 0}";
},
{
name = top;
position = "{570, 658}";
}
);
background = {
paths = (
{
closed = 1;
nodes = (
"523 656 OFFCURVE",
"485 657 OFFCURVE",
"450 658 CURVE",
"446 655 OFFCURVE",
"444 650 OFFCURVE",
"442 641 CURVE SMOOTH",
"440 633 OFFCURVE",
"441 629 OFFCURVE",
"444 629 CURVE SMOOTH",
"461 629 OFFCURVE",
"507 618 OFFCURVE",
"509 607 CURVE",
"510 589 OFFCURVE",
"507 560 OFFCURVE",
"499 521 CURVE SMOOTH",
"426 143 LINE SMOOTH",
"415 88 OFFCURVE",
"407 57 OFFCURVE",
"400 49 CURVE SMOOTH",
"390 38 OFFCURVE",
"344 26 OFFCURVE",
"327 26 CURVE SMOOTH",
"325 26 OFFCURVE",
"323 22 OFFCURVE",
"321 13 CURVE SMOOTH",
"319 4 OFFCURVE",
"320 -1 OFFCURVE",
"321 -3 CURVE",
"437 0 LINE SMOOTH",
"484 1 OFFCURVE",
"524 -1 OFFCURVE",
"596 -2 CURVE SMOOTH",
"669 -3 OFFCURVE",
"723 -4 OFFCURVE",
"757 -4 CURVE",
"767 29 OFFCURVE",
"827 134 OFFCURVE",
"843 162 CURVE",
"840 166 OFFCURVE",
"833 168 OFFCURVE",
"820 168 CURVE SMOOTH",
"812 168 OFFCURVE",
"806 166 OFFCURVE",
"804 162 CURVE",
"779 111 OFFCURVE",
"744 72 OFFCURVE",
"722 61 CURVE SMOOTH",
"698 49 OFFCURVE",
"654 44 OFFCURVE",
"592 44 CURVE SMOOTH",
"564 44 LINE SMOOTH",
"521 44 OFFCURVE",
"499 47 OFFCURVE",
"498 54 CURVE",
"496 71 OFFCURVE",
"499 102 OFFCURVE",
"507 145 CURVE SMOOTH",
"537 300 LINE SMOOTH",
"538 306 OFFCURVE",
"563 309 OFFCURVE",
"611 309 CURVE SMOOTH",
"653 309 OFFCURVE",
"687 307 OFFCURVE",
"694 301 CURVE SMOOTH",
"706 290 OFFCURVE",
"710 276 OFFCURVE",
"711 238 CURVE",
"712 233 OFFCURVE",
"717 230 OFFCURVE",
"726 230 CURVE SMOOTH",
"734 230 OFFCURVE",
"739 231 OFFCURVE",
"742 234 CURVE",
"779 423 LINE",
"777 426 OFFCURVE",
"771 428 OFFCURVE",
"763 428 CURVE SMOOTH",
"754 428 OFFCURVE",
"749 426 OFFCURVE",
"747 421 CURVE",
"733 389 OFFCURVE",
"722 367 OFFCURVE",
"707 361 CURVE SMOOTH",
"695 356 OFFCURVE",
"675 353 OFFCURVE",
"647 353 CURVE SMOOTH",
"590 353 LINE SMOOTH",
"561 353 OFFCURVE",
"548 355 OFFCURVE",
"549 359 CURVE SMOOTH",
"580 519 LINE SMOOTH",
"588 559 OFFCURVE",
"595 587 OFFCURVE",
"601 603 CURVE",
"604 612 OFFCURVE",
"635 616 OFFCURVE",
"692 616 CURVE SMOOTH",
"739 616 LINE SMOOTH",
"802 616 OFFCURVE",
"832 603 OFFCURVE",
"838 530 CURVE",
"838 525 OFFCURVE",
"842 523 OFFCURVE",
"851 523 CURVE SMOOTH",
"860 523 OFFCURVE",
"866 525 OFFCURVE",
"869 528 CURVE",
"870 546 OFFCURVE",
"865 621 OFFCURVE",
"867 664 CURVE",
"830 664 OFFCURVE",
"774 663 OFFCURVE",
"699 660 CURVE SMOOTH",
"625 657 OFFCURVE",
"592 656 OFFCURVE",
"562 656 CURVE SMOOTH"
);
}
);
};
color = -1;
layerId = "02396921-8257-42A3-8ED5-3052446F9CE3";
paths = (
{
closed = 1;
nodes = (
"473 297 LINE",
"432 296 OFFCURVE",
"386 295 OFFCURVE",
"371 295 CURVE SMOOTH",
"356 295 OFFCURVE",
"319 296 OFFCURVE",
"275 298 CURVE",
"229 241 LINE",
"293 244 OFFCURVE",
"340 247 OFFCURVE",
"357 247 CURVE SMOOTH",
"400 247 OFFCURVE",
"445 246 OFFCURVE",
"451 241 CURVE"
);
},
{
closed = 1;
nodes = (
"424 135 LINE",
"417 96 OFFCURVE",
"409 67 OFFCURVE",
"400 49 CURVE",
"394 38 OFFCURVE",
"346 26 OFFCURVE",
"330 26 CURVE SMOOTH",
"327 26 OFFCURVE",
"325 21 OFFCURVE",
"323 12 CURVE SMOOTH",
"322 5 OFFCURVE",
"322 0 OFFCURVE",
"324 -3 CURVE",
"443 2 LINE",
"466 2 OFFCURVE",
"500 1 OFFCURVE",
"581 -1 CURVE SMOOTH",
"660 -3 OFFCURVE",
"719 -4 OFFCURVE",
"757 -4 CURVE",
"767 29 OFFCURVE",
"827 134 OFFCURVE",
"843 162 CURVE",
"840 166 OFFCURVE",
"833 168 OFFCURVE",
"820 168 CURVE SMOOTH",
"812 168 OFFCURVE",
"806 166 OFFCURVE",
"804 162 CURVE",
"779 111 OFFCURVE",
"744 72 OFFCURVE",
"722 61 CURVE SMOOTH",
"697 49 OFFCURVE",
"654 44 OFFCURVE",
"592 44 CURVE SMOOTH",
"564 44 LINE SMOOTH",
"521 44 OFFCURVE",
"499 47 OFFCURVE",
"498 54 CURVE",
"496 71 OFFCURVE",
"499 102 OFFCURVE",
"507 145 CURVE SMOOTH",
"537 300 LINE SMOOTH",
"538 306 OFFCURVE",
"563 309 OFFCURVE",
"611 309 CURVE SMOOTH",
"653 309 OFFCURVE",
"688 306 OFFCURVE",
"695 301 CURVE SMOOTH",
"705 294 OFFCURVE",
"708 285 OFFCURVE",
"711 238 CURVE",
"712 233 OFFCURVE",
"717 230 OFFCURVE",
"726 230 CURVE SMOOTH",
"734 230 OFFCURVE",
"739 231 OFFCURVE",
"742 234 CURVE",
"779 423 LINE",
"777 426 OFFCURVE",
"771 428 OFFCURVE",
"763 428 CURVE SMOOTH",
"754 428 OFFCURVE",
"749 426 OFFCURVE",
"747 421 CURVE",
"727 370 OFFCURVE",
"716 364 OFFCURVE",
"703 360 CURVE SMOOTH",
"688 355 OFFCURVE",
"671 353 OFFCURVE",
"663 353 CURVE SMOOTH",
"590 353 LINE SMOOTH",
"561 353 OFFCURVE",
"548 355 OFFCURVE",
"549 359 CURVE SMOOTH",
"580 519 LINE SMOOTH",
"588 559 OFFCURVE",
"595 587 OFFCURVE",
"601 603 CURVE",
"604 612 OFFCURVE",
"635 616 OFFCURVE",
"692 616 CURVE SMOOTH",
"729 616 LINE SMOOTH",
"802 616 OFFCURVE",
"834 604 OFFCURVE",
"838 530 CURVE",
"838 525 OFFCURVE",
"842 523 OFFCURVE",
"851 523 CURVE SMOOTH",
"860 523 OFFCURVE",
"866 525 OFFCURVE",
"869 528 CURVE",
"869 556 OFFCURVE",
"866 611 OFFCURVE",
"867 664 CURVE",
"829 664 OFFCURVE",
"773 663 OFFCURVE",
"698 660 CURVE SMOOTH",
"624 657 OFFCURVE",
"591 656 OFFCURVE",
"562 656 CURVE SMOOTH",
"517 656 OFFCURVE",
"486 657 OFFCURVE",
"453 658 CURVE",
"449 655 OFFCURVE",
"447 650 OFFCURVE",
"446 643 CURVE SMOOTH",
"444 634 OFFCURVE",
"444 629 OFFCURVE",
"447 629 CURVE SMOOTH",
"464 629 OFFCURVE",
"490 620 OFFCURVE",
"487 604 CURVE SMOOTH",
"486 599 OFFCURVE",
"483 592 OFFCURVE",
"476 584 CURVE SMOOTH",
"112 137 LINE SMOOTH",
"76 91 OFFCURVE",
"47 61 OFFCURVE",
"25 43 CURVE SMOOTH",
"12 32 OFFCURVE",
"-10 26 OFFCURVE",
"-39 26 CURVE SMOOTH",
"-44 26 OFFCURVE",
"-50 10 OFFCURVE",
"-51 4 CURVE SMOOTH",
"-52 2 OFFCURVE",
"-52 1 OFFCURVE",
"-52 -3 CURVE",
"-5 -1 OFFCURVE",
"30 0 OFFCURVE",
"54 0 CURVE SMOOTH",
"82 0 OFFCURVE",
"119 -1 OFFCURVE",
"158 -3 CURVE",
"163 7 OFFCURVE",
"168 16 OFFCURVE",
"170 26 CURVE",
"142 26 OFFCURVE",
"126 32 OFFCURVE",
"118 40 CURVE SMOOTH",
"115 43 OFFCURVE",
"114 48 OFFCURVE",
"115 53 CURVE SMOOTH",
"118 68 OFFCURVE",
"143 104 OFFCURVE",
"164 129 CURVE SMOOTH",
"517 564 LINE",
"508 564 LINE"
);
}
);
width = 876;
},
{
anchors = (
{
name = bottom;
position = "{454, 0}";
},
{
name = top;
position = "{582, 658}";
}
);
background = {
paths = (
{
closed = 1;
nodes = (
"-23 -1 OFFCURVE",
"52 4 OFFCURVE",
"76 4 CURVE SMOOTH",
"100 4 OFFCURVE",
"148 0 OFFCURVE",
"189 -4 CURVE",
"195 4 OFFCURVE",
"202 23 OFFCURVE",
"202 33 CURVE",
"178 33 OFFCURVE",
"159 36 OFFCURVE",
"144 44 CURVE SMOOTH",
"137 48 OFFCURVE",
"135 54 OFFCURVE",
"137 61 CURVE SMOOTH",
"139 75 OFFCURVE",
"165 106 OFFCURVE",
"184 129 CURVE SMOOTH",
"250 210 LINE",
"273 211 OFFCURVE",
"309 211 OFFCURVE",
"347 211 CURVE SMOOTH",
"376 211 OFFCURVE",
"408 211 OFFCURVE",
"425 210 CURVE",
"410 135 LINE SMOOTH",
"403 98 OFFCURVE",
"396 71 OFFCURVE",
"389 56 CURVE",
"383 47 OFFCURVE",
"339 33 OFFCURVE",
"324 33 CURVE SMOOTH",
"321 33 OFFCURVE",
"319 26 OFFCURVE",
"316 13 CURVE SMOOTH",
"315 4 OFFCURVE",
"315 -1 OFFCURVE",
"317 -4 CURVE",
"458 2 LINE",
"487 2 OFFCURVE",
"521 1 OFFCURVE",
"602 0 CURVE SMOOTH",
"683 -1 OFFCURVE",
"741 -2 OFFCURVE",
"779 -2 CURVE",
"787 21 OFFCURVE",
"816 78 OFFCURVE",
"867 170 CURVE",
"864 174 OFFCURVE",
"854 176 OFFCURVE",
"838 176 CURVE SMOOTH",
"830 176 OFFCURVE",
"825 174 OFFCURVE",
"823 170 CURVE",
"799 129 OFFCURVE",
"759 92 OFFCURVE",
"733 80 CURVE SMOOTH",
"697 63 OFFCURVE",
"657 54 OFFCURVE",
"626 54 CURVE SMOOTH",
"610 54 LINE SMOOTH",
"568 54 OFFCURVE",
"546 59 OFFCURVE",
"545 70 CURVE SMOOTH",
"544 85 OFFCURVE",
"545 109 OFFCURVE",
"551 141 CURVE SMOOTH",
"581 295 LINE SMOOTH",
"582 301 OFFCURVE",
"607 304 OFFCURVE",
"655 304 CURVE SMOOTH",
"694 304 OFFCURVE",
"713 299 OFFCURVE",
"721 286 CURVE SMOOTH",
"724 281 OFFCURVE",
"726 259 OFFCURVE",
"728 238 CURVE",
"729 233 OFFCURVE",
"734 230 OFFCURVE",
"743 230 CURVE SMOOTH",
"754 230 OFFCURVE",
"761 231 OFFCURVE",
"764 234 CURVE",
"801 423 LINE",
"799 426 OFFCURVE",
"791 428 OFFCURVE",
"780 428 CURVE SMOOTH",
"771 428 OFFCURVE",
"766 426 OFFCURVE",
"763 422 CURVE",
"757 408 OFFCURVE",
"747 369 OFFCURVE",
"739 364 CURVE SMOOTH",
"734 361 OFFCURVE",
"711 359 OFFCURVE",
"670 359 CURVE SMOOTH",
"637 359 LINE SMOOTH",
"608 359 OFFCURVE",
"594 361 OFFCURVE",
"595 365 CURVE SMOOTH",
"625 519 LINE SMOOTH",
"632 555 OFFCURVE",
"639 581 OFFCURVE",
"645 597 CURVE",
"648 606 OFFCURVE",
"670 610 OFFCURVE",
"712 610 CURVE SMOOTH",
"730 610 LINE SMOOTH",
"782 610 OFFCURVE",
"837 569 OFFCURVE",
"853 518 CURVE",
"854 513 OFFCURVE",
"858 511 OFFCURVE",
"865 511 CURVE SMOOTH",
"877 511 OFFCURVE",
"886 513 OFFCURVE",
"889 516 CURVE",
"889 580 OFFCURVE",
"888 651 OFFCURVE",
"889 664 CURVE",
"852 664 OFFCURVE",
"796 663 OFFCURVE",
"721 660 CURVE SMOOTH",
"647 657 OFFCURVE",
"614 656 OFFCURVE",
"584 656 CURVE SMOOTH",
"539 656 OFFCURVE",
"494 659 OFFCURVE",
"448 664 CURVE",
"446 662 OFFCURVE",
"443 655 OFFCURVE",
"441 644 CURVE SMOOTH",
"439 633 OFFCURVE",
"439 627 OFFCURVE",
"442 627 CURVE SMOOTH",
"457 627 OFFCURVE",
"488 613 OFFCURVE",
"485 598 CURVE SMOOTH",
"484 593 OFFCURVE",
"482 588 OFFCURVE",
"478 584 CURVE SMOOTH",
"109 132 LINE SMOOTH",
"91 111 OFFCURVE",
"74 87 OFFCURVE",
"47 63 CURVE SMOOTH",
"36 53 OFFCURVE",
"-26 33 OFFCURVE",
"-42 33 CURVE SMOOTH",
"-43 33 OFFCURVE",
"-51 15 OFFCURVE",
"-53 8 CURVE SMOOTH",
"-54 1 OFFCURVE",
"-54 -3 OFFCURVE",
"-53 -4 CURVE"
);
},
{
closed = 1;
nodes = (
"349 271 OFFCURVE",
"322 272 OFFCURVE",
"303 274 CURVE",
"492 507 LINE",
"484 515 LINE",
"437 274 LINE",
"425 273 OFFCURVE",
"386 271 OFFCURVE",
"372 271 CURVE SMOOTH"
);
}
);
};
color = -1;
layerId = "EE330C8E-4A1C-402A-831D-620872201BE1";
paths = (
{
closed = 1;
nodes = (
"445 275 LINE",
"422 272 OFFCURVE",
"389 271 OFFCURVE",
"372 271 CURVE SMOOTH",
"343 271 OFFCURVE",
"309 273 OFFCURVE",
"292 276 CURVE",
"240 209 LINE",
"261 211 OFFCURVE",
"303 211 OFFCURVE",
"347 211 CURVE SMOOTH",
"382 211 OFFCURVE",
"421 211 OFFCURVE",
"433 209 CURVE"
);
},
{
closed = 1;
nodes = (
"410 135 LINE SMOOTH",
"403 98 OFFCURVE",
"396 71 OFFCURVE",
"389 56 CURVE",
"383 47 OFFCURVE",
"339 33 OFFCURVE",
"324 33 CURVE SMOOTH",
"321 33 OFFCURVE",
"319 26 OFFCURVE",
"316 13 CURVE SMOOTH",
"315 4 OFFCURVE",
"315 -1 OFFCURVE",
"317 -4 CURVE",
"458 2 LINE",
"487 2 OFFCURVE",
"521 1 OFFCURVE",
"602 0 CURVE SMOOTH",
"683 -1 OFFCURVE",
"741 -2 OFFCURVE",
"779 -2 CURVE",
"787 21 OFFCURVE",
"816 78 OFFCURVE",
"867 170 CURVE",
"864 174 OFFCURVE",
"854 176 OFFCURVE",
"838 176 CURVE SMOOTH",
"830 176 OFFCURVE",
"825 174 OFFCURVE",
"823 170 CURVE",
"799 129 OFFCURVE",
"759 92 OFFCURVE",
"733 80 CURVE SMOOTH",
"697 63 OFFCURVE",
"657 54 OFFCURVE",
"626 54 CURVE SMOOTH",
"610 54 LINE SMOOTH",
"568 54 OFFCURVE",
"546 59 OFFCURVE",
"545 70 CURVE SMOOTH",
"544 85 OFFCURVE",
"545 109 OFFCURVE",
"551 141 CURVE SMOOTH",
"581 295 LINE SMOOTH",
"582 301 OFFCURVE",
"607 304 OFFCURVE",
"655 304 CURVE SMOOTH",
"694 304 OFFCURVE",
"713 299 OFFCURVE",
"721 286 CURVE SMOOTH",
"724 281 OFFCURVE",
"726 259 OFFCURVE",
"728 238 CURVE",
"729 233 OFFCURVE",
"734 230 OFFCURVE",
"743 230 CURVE SMOOTH",
"754 230 OFFCURVE",
"761 231 OFFCURVE",
"764 234 CURVE",
"801 423 LINE",
"799 426 OFFCURVE",
"791 428 OFFCURVE",
"780 428 CURVE SMOOTH",
"771 428 OFFCURVE",
"766 426 OFFCURVE",
"763 422 CURVE",
"757 408 OFFCURVE",
"747 369 OFFCURVE",
"739 364 CURVE SMOOTH",
"734 361 OFFCURVE",
"711 359 OFFCURVE",
"670 359 CURVE SMOOTH",
"637 359 LINE SMOOTH",
"608 359 OFFCURVE",
"594 361 OFFCURVE",
"595 365 CURVE SMOOTH",
"625 519 LINE SMOOTH",
"632 555 OFFCURVE",
"639 581 OFFCURVE",
"645 597 CURVE",
"648 606 OFFCURVE",
"670 610 OFFCURVE",
"712 610 CURVE SMOOTH",
"730 610 LINE SMOOTH",
"782 610 OFFCURVE",
"837 569 OFFCURVE",
"853 518 CURVE",
"854 513 OFFCURVE",
"858 511 OFFCURVE",
"865 511 CURVE SMOOTH",
"877 511 OFFCURVE",
"886 513 OFFCURVE",
"889 516 CURVE",
"889 580 OFFCURVE",
"888 651 OFFCURVE",
"889 664 CURVE",
"852 664 OFFCURVE",
"796 663 OFFCURVE",
"721 660 CURVE SMOOTH",
"647 657 OFFCURVE",
"614 656 OFFCURVE",
"584 656 CURVE SMOOTH",
"539 656 OFFCURVE",
"494 659 OFFCURVE",
"448 664 CURVE",
"446 662 OFFCURVE",
"443 655 OFFCURVE",
"441 644 CURVE SMOOTH",
"439 633 OFFCURVE",
"439 627 OFFCURVE",
"442 627 CURVE SMOOTH",
"457 627 OFFCURVE",
"488 613 OFFCURVE",
"485 598 CURVE SMOOTH",
"484 593 OFFCURVE",
"482 588 OFFCURVE",
"478 584 CURVE SMOOTH",
"109 132 LINE SMOOTH",
"91 111 OFFCURVE",
"74 87 OFFCURVE",
"47 63 CURVE SMOOTH",
"36 53 OFFCURVE",
"-26 33 OFFCURVE",
"-42 33 CURVE SMOOTH",
"-43 33 OFFCURVE",
"-51 15 OFFCURVE",
"-53 8 CURVE SMOOTH",
"-54 1 OFFCURVE",
"-54 -3 OFFCURVE",
"-53 -4 CURVE",
"-23 -1 OFFCURVE",
"52 4 OFFCURVE",
"76 4 CURVE SMOOTH",
"100 4 OFFCURVE",
"148 0 OFFCURVE",
"189 -4 CURVE",
"195 4 OFFCURVE",
"202 23 OFFCURVE",
"202 33 CURVE",
"178 33 OFFCURVE",
"159 36 OFFCURVE",
"144 44 CURVE SMOOTH",
"137 48 OFFCURVE",
"135 54 OFFCURVE",
"137 61 CURVE SMOOTH",
"139 75 OFFCURVE",
"165 106 OFFCURVE",
"184 129 CURVE",
"492 511 LINE",
"484 515 LINE"
);
}
);
width = 907;
}
);
note = AE;
rightMetricsKey = E;
unicode = 00C6;
},
{
color = 3;
glyphname = B;
lastChange = "2019-01-08 21:39:27 +0000";
layers = (
{
anchors = (
{
name = bottom;
position = "{248, 0}";
},
{
name = top;
position = "{376, 658}";
}
);
background = {
paths = (
{
closed = 1;
nodes = (
"38 -1 OFFCURVE",
"79 0 OFFCURVE",
"113 0 CURVE SMOOTH",
"159 0 OFFCURVE",
"194 0 OFFCURVE",
"220 0 CURVE SMOOTH",
"384 0 OFFCURVE",
"492 74 OFFCURVE",
"515 194 CURVE SMOOTH",
"531 279 OFFCURVE",
"476 350 OFFCURVE",
"383 363 CURVE",
"382 356 LINE",
"463 384 OFFCURVE",
"520 441 OFFCURVE",
"533 509 CURVE SMOOTH",
"550 598 OFFCURVE",
"490 657 OFFCURVE",
"370 657 CURVE SMOOTH",
"317 657 OFFCURVE",
"276 656 OFFCURVE",
"239 656 CURVE SMOOTH",
"204 656 OFFCURVE",
"176 657 OFFCURVE",
"126 658 CURVE",
"123 655 OFFCURVE",
"121 650 OFFCURVE",
"119 641 CURVE SMOOTH",
"117 633 OFFCURVE",
"118 629 OFFCURVE",
"121 629 CURVE SMOOTH",
"144 629 OFFCURVE",
"184 615 OFFCURVE",
"185 607 CURVE",
"187 591 OFFCURVE",
"184 564 OFFCURVE",
"176 521 CURVE SMOOTH",
"102 143 LINE SMOOTH",
"91 85 OFFCURVE",
"83 57 OFFCURVE",
"77 49 CURVE SMOOTH",
"70 39 OFFCURVE",
"28 26 OFFCURVE",
"3 26 CURVE SMOOTH",
"1 26 OFFCURVE",
"0 22 OFFCURVE",
"-2 13 CURVE SMOOTH",
"-4 4 OFFCURVE",
"-4 -1 OFFCURVE",
"-2 -3 CURVE"
);
},
{
closed = 1;
nodes = (
"187 43 OFFCURVE",
"167 58 OFFCURVE",
"176 106 CURVE SMOOTH",
"219 328 LINE",
"238 331 OFFCURVE",
"263 332 OFFCURVE",
"286 332 CURVE SMOOTH",
"391 332 OFFCURVE",
"443 274 OFFCURVE",
"425 183 CURVE SMOOTH",
"407 93 OFFCURVE",
"344 43 OFFCURVE",
"244 43 CURVE SMOOTH"
);
},
{
closed = 1;
nodes = (
"265 372 OFFCURVE",
"248 373 OFFCURVE",
"228 375 CURVE",
"271 596 LINE SMOOTH",
"274 613 OFFCURVE",
"291 618 OFFCURVE",
"326 618 CURVE SMOOTH",
"418 618 OFFCURVE",
"464 570 OFFCURVE",
"449 493 CURVE SMOOTH",
"433 410 OFFCURVE",
"380 372 OFFCURVE",
"294 372 CURVE SMOOTH"
);
}
);
};
color = -1;
layerId = "02396921-8257-42A3-8ED5-3052446F9CE3";
paths = (
{
closed = 1;
nodes = (
"38 -1 OFFCURVE",
"79 0 OFFCURVE",
"113 0 CURVE SMOOTH",
"159 0 OFFCURVE",
"194 0 OFFCURVE",
"230 0 CURVE SMOOTH",
"380 0 OFFCURVE",
"518 79 OFFCURVE",
"518 218 CURVE SMOOTH",
"518 292 OFFCURVE",
"465 349 OFFCURVE",
"383 360 CURVE",
"385 353 LINE",
"474 385 OFFCURVE",
"536 456 OFFCURVE",
"536 533 CURVE SMOOTH",
"536 609 OFFCURVE",
"477 657 OFFCURVE",
"370 657 CURVE SMOOTH",
"317 657 OFFCURVE",
"276 656 OFFCURVE",
"239 656 CURVE SMOOTH",
"204 656 OFFCURVE",
"176 657 OFFCURVE",
"126 658 CURVE",
"123 655 OFFCURVE",
"121 650 OFFCURVE",
"119 641 CURVE SMOOTH",
"117 633 OFFCURVE",
"118 629 OFFCURVE",
"121 629 CURVE SMOOTH",
"144 629 OFFCURVE",
"184 615 OFFCURVE",
"185 607 CURVE",
"187 591 OFFCURVE",
"184 564 OFFCURVE",
"176 521 CURVE SMOOTH",
"102 143 LINE SMOOTH",
"91 85 OFFCURVE",
"83 57 OFFCURVE",
"77 49 CURVE SMOOTH",
"70 39 OFFCURVE",
"28 26 OFFCURVE",
"3 26 CURVE SMOOTH",
"1 26 OFFCURVE",
"0 22 OFFCURVE",
"-2 13 CURVE SMOOTH",
"-3 8 OFFCURVE",
"-3 0 OFFCURVE",
"-2 -3 CURVE"
);
},
{
closed = 1;
nodes = (
"187 43 OFFCURVE",
"166 56 OFFCURVE",
"176 106 CURVE SMOOTH",
"219 328 LINE",
"238 331 OFFCURVE",
"263 332 OFFCURVE",
"286 332 CURVE SMOOTH",
"377 332 OFFCURVE",
"429 288 OFFCURVE",
"429 217 CURVE SMOOTH",
"429 115 OFFCURVE",
"357 43 OFFCURVE",
"244 43 CURVE SMOOTH"
);
},
{
closed = 1;
nodes = (
"265 372 OFFCURVE",
"248 373 OFFCURVE",
"228 375 CURVE",
"271 596 LINE SMOOTH",
"274 613 OFFCURVE",
"291 618 OFFCURVE",
"326 618 CURVE SMOOTH",
"407 618 OFFCURVE",
"452 581 OFFCURVE",
"452 520 CURVE SMOOTH",
"452 431 OFFCURVE",
"393 372 OFFCURVE",
"294 372 CURVE SMOOTH"
);
}
);
width = 566;
},
{
anchors = (
{
name = bottom;
position = "{255, 0}";
},
{
name = top;
position = "{383, 658}";
}
);
background = {
paths = (
{
closed = 1;
nodes = (
"67 1 OFFCURVE",
"102 2 OFFCURVE",
"139 2 CURVE SMOOTH",
"175 2 OFFCURVE",
"220 0 OFFCURVE",
"266 0 CURVE SMOOTH",
"427 0 OFFCURVE",
"553 79 OFFCURVE",
"574 187 CURVE SMOOTH",
"593 286 OFFCURVE",
"531 344 OFFCURVE",
"432 354 CURVE",
"419 343 LINE",
"510 365 OFFCURVE",
"573 417 OFFCURVE",
"588 497 CURVE SMOOTH",
"606 592 OFFCURVE",
"535 661 OFFCURVE",
"411 660 CURVE SMOOTH",
"357 660 OFFCURVE",
"303 659 OFFCURVE",
"256 659 CURVE SMOOTH",
"222 659 OFFCURVE",
"192 660 OFFCURVE",
"120 664 CURVE",
"118 662 OFFCURVE",
"115 656 OFFCURVE",
"113 645 CURVE SMOOTH",
"111 632 OFFCURVE",
"111 627 OFFCURVE",
"114 627 CURVE SMOOTH",
"132 627 OFFCURVE",
"174 608 OFFCURVE",
"175 599 CURVE",
"176 584 OFFCURVE",
"173 558 OFFCURVE",
"166 521 CURVE SMOOTH",
"93 143 LINE SMOOTH",
"84 98 OFFCURVE",
"76 70 OFFCURVE",
"70 55 CURVE SMOOTH",
"66 45 OFFCURVE",
"23 33 OFFCURVE",
"-1 33 CURVE SMOOTH",
"-4 33 OFFCURVE",
"-6 28 OFFCURVE",
"-9 13 CURVE SMOOTH",
"-11 4 OFFCURVE",
"-10 -1 OFFCURVE",
"-8 -4 CURVE"
);
},
{
closed = 1;
nodes = (
"216 47 OFFCURVE",
"206 57 OFFCURVE",
"214 98 CURVE SMOOTH",
"256 313 LINE",
"271 317 OFFCURVE",
"287 318 OFFCURVE",
"317 318 CURVE SMOOTH",
"408 318 OFFCURVE",
"450 266 OFFCURVE",
"432 175 CURVE SMOOTH",
"417 97 OFFCURVE",
"357 47 OFFCURVE",
"266 47 CURVE SMOOTH"
);
},
{
closed = 1;
nodes = (
"292 368 OFFCURVE",
"278 369 OFFCURVE",
"267 371 CURVE",
"310 594 LINE SMOOTH",
"312 607 OFFCURVE",
"329 613 OFFCURVE",
"361 613 CURVE SMOOTH",
"430 613 OFFCURVE",
"463 563 OFFCURVE",
"448 486 CURVE SMOOTH",
"434 410 OFFCURVE",
"390 368 OFFCURVE",
"318 368 CURVE SMOOTH"
);
}
);
};
color = -1;
layerId = "EE330C8E-4A1C-402A-831D-620872201BE1";
paths = (
{
closed = 1;
nodes = (
"67 1 OFFCURVE",
"102 2 OFFCURVE",
"139 2 CURVE SMOOTH",
"175 2 OFFCURVE",
"220 0 OFFCURVE",
"266 0 CURVE SMOOTH",
"423 0 OFFCURVE",
"577 81 OFFCURVE",
"577 221 CURVE SMOOTH",
"577 299 OFFCURVE",
"519 345 OFFCURVE",
"432 354 CURVE",
"419 343 LINE",
"519 367 OFFCURVE",
"591 433 OFFCURVE",
"591 526 CURVE SMOOTH",
"591 606 OFFCURVE",
"522 661 OFFCURVE",
"411 660 CURVE SMOOTH",
"357 660 OFFCURVE",
"303 659 OFFCURVE",
"256 659 CURVE SMOOTH",
"222 659 OFFCURVE",
"192 660 OFFCURVE",
"120 664 CURVE",
"118 662 OFFCURVE",
"115 656 OFFCURVE",
"113 645 CURVE SMOOTH",
"111 632 OFFCURVE",
"111 627 OFFCURVE",
"114 627 CURVE SMOOTH",
"132 627 OFFCURVE",
"174 608 OFFCURVE",
"175 599 CURVE",
"176 584 OFFCURVE",
"173 558 OFFCURVE",
"166 521 CURVE SMOOTH",
"93 144 LINE SMOOTH",
"84 99 OFFCURVE",
"76 70 OFFCURVE",
"70 55 CURVE SMOOTH",
"66 45 OFFCURVE",
"23 33 OFFCURVE",
"-1 33 CURVE SMOOTH",
"-4 33 OFFCURVE",
"-6 28 OFFCURVE",
"-9 13 CURVE SMOOTH",
"-11 4 OFFCURVE",
"-10 -1 OFFCURVE",
"-8 -4 CURVE"
);
},
{
closed = 1;
nodes = (
"216 47 OFFCURVE",
"206 57 OFFCURVE",
"214 98 CURVE SMOOTH",
"256 313 LINE",
"271 317 OFFCURVE",
"287 318 OFFCURVE",
"317 318 CURVE SMOOTH",
"394 318 OFFCURVE",
"436 281 OFFCURVE",
"436 214 CURVE SMOOTH",
"436 116 OFFCURVE",
"371 47 OFFCURVE",
"266 47 CURVE SMOOTH"
);
},
{
closed = 1;
nodes = (
"292 368 OFFCURVE",
"278 369 OFFCURVE",
"267 371 CURVE",
"310 594 LINE SMOOTH",
"312 607 OFFCURVE",
"329 613 OFFCURVE",
"361 613 CURVE SMOOTH",
"419 613 OFFCURVE",
"452 578 OFFCURVE",
"452 521 CURVE SMOOTH",
"452 438 OFFCURVE",
"406 368 OFFCURVE",
"318 368 CURVE SMOOTH"
);
}
);
width = 572;
}
);
note = B;
unicode = 0042;
},
{
color = 3;
glyphname = C;
lastChange = "2019-01-08 21:39:27 +0000";
layers = (
{
anchors = (
{
name = bottom;
position = "{294, 0}";
},
{
name = top;
position = "{422, 658}";
}
);
background = {
paths = (
{
closed = 1;
nodes = (
"1037 667 OFFCURVE",
"936 612 OFFCURVE",
"871 534 CURVE SMOOTH",
"806 456 OFFCURVE",
"763 355 OFFCURVE",
"763 267 CURVE SMOOTH",
"763 120 OFFCURVE",
"865 -6 OFFCURVE",
"1024 -6 CURVE SMOOTH",
"1109 -6 OFFCURVE",
"1209 14 OFFCURVE",
"1229 37 CURVE",
"1232 40 OFFCURVE",
"1249 71 OFFCURVE",
"1279 128 CURVE",
"1280 133 OFFCURVE",
"1263 153 OFFCURVE",
"1259 153 CURVE SMOOTH",
"1258 153 OFFCURVE",
"1202 84 OFFCURVE",
"1179 70 CURVE SMOOTH",
"1144 49 OFFCURVE",
"1102 37 OFFCURVE",
"1053 37 CURVE SMOOTH",
"926 37 OFFCURVE",
"854 131 OFFCURVE",
"854 259 CURVE SMOOTH",
"854 454 OFFCURVE",
"998 625 OFFCURVE",
"1135 625 CURVE SMOOTH",
"1196 625 OFFCURVE",
"1242 607 OFFCURVE",
"1263 586 CURVE SMOOTH",
"1283 566 OFFCURVE",
"1295 538 OFFCURVE",
"1298 486 CURVE",
"1300 484 OFFCURVE",
"1304 483 OFFCURVE",
"1309 483 CURVE SMOOTH",
"1323 483 OFFCURVE",
"1332 488 OFFCURVE",
"1333 498 CURVE SMOOTH",
"1334 505 OFFCURVE",
"1341 546 OFFCURVE",
"1353 622 CURVE",
"1256 652 OFFCURVE",
"1185 667 OFFCURVE",
"1140 667 CURVE SMOOTH"
);
},
{
closed = 1;
nodes = (
"397 -6 OFFCURVE",
"479 9 OFFCURVE",
"533 38 CURVE",
"542 42 OFFCURVE",
"592 168 OFFCURVE",
"595 183 CURVE",
"587 188 OFFCURVE",
"578 192 OFFCURVE",
"561 192 CURVE",
"540 144 OFFCURVE",
"514 107 OFFCURVE",
"480 81 CURVE SMOOTH",
"441 51 OFFCURVE",
"392 37 OFFCURVE",
"352 37 CURVE SMOOTH",
"204 37 OFFCURVE",
"134 167 OFFCURVE",
"168 341 CURVE SMOOTH",
"199 498 OFFCURVE",
"315 625 OFFCURVE",
"452 625 CURVE SMOOTH",
"537 625 OFFCURVE",
"590 587 OFFCURVE",
"599 485 CURVE",
"604 482 OFFCURVE",
"628 485 OFFCURVE",
"634 491 CURVE",
"637 505 OFFCURVE",
"647 553 OFFCURVE",
"666 642 CURVE",
"586 659 OFFCURVE",
"513 667 OFFCURVE",
"472 667 CURVE SMOOTH",
"276 667 OFFCURVE",
"112 528 OFFCURVE",
"72 322 CURVE SMOOTH",
"35 129 OFFCURVE",
"152 -6 OFFCURVE",
"343 -6 CURVE SMOOTH"
);
}
);
};
color = -1;
layerId = "02396921-8257-42A3-8ED5-3052446F9CE3";
paths = (
{
closed = 1;
nodes = (
"397 -6 OFFCURVE",
"479 9 OFFCURVE",
"533 38 CURVE",
"542 42 OFFCURVE",
"592 168 OFFCURVE",
"595 183 CURVE",
"587 188 OFFCURVE",
"578 192 OFFCURVE",
"561 192 CURVE",
"540 144 OFFCURVE",
"514 107 OFFCURVE",
"480 81 CURVE SMOOTH",
"441 51 OFFCURVE",
"392 37 OFFCURVE",
"352 37 CURVE SMOOTH",
"229 37 OFFCURVE",
"159 127 OFFCURVE",
"159 258 CURVE SMOOTH",
"159 442 OFFCURVE",
"284 625 OFFCURVE",
"452 625 CURVE SMOOTH",
"537 625 OFFCURVE",
"590 587 OFFCURVE",
"599 485 CURVE",
"604 482 OFFCURVE",
"628 485 OFFCURVE",
"634 491 CURVE",
"637 505 OFFCURVE",
"647 553 OFFCURVE",
"666 642 CURVE",
"586 659 OFFCURVE",
"513 667 OFFCURVE",
"472 667 CURVE SMOOTH",
"247 667 OFFCURVE",
"65 475 OFFCURVE",
"65 253 CURVE SMOOTH",
"65 98 OFFCURVE",
"176 -6 OFFCURVE",
"343 -6 CURVE SMOOTH"
);
}
);
width = 626;
},
{
anchors = (
{
name = bottom;
position = "{288, 0}";
},
{
name = top;
position = "{416, 658}";
}
);
background = {
paths = (
{
closed = 1;
nodes = (
"1055 667 OFFCURVE",
"959 620 OFFCURVE",
"887 549 CURVE SMOOTH",
"814 477 OFFCURVE",
"763 368 OFFCURVE",
"763 259 CURVE SMOOTH",
"763 106 OFFCURVE",
"875 -7 OFFCURVE",
"1050 -7 CURVE SMOOTH",
"1149 -7 OFFCURVE",
"1217 12 OFFCURVE",
"1256 44 CURVE SMOOTH",
"1267 53 OFFCURVE",
"1292 136 OFFCURVE",
"1296 155 CURVE",
"1294 164 OFFCURVE",
"1284 168 OFFCURVE",
"1267 168 CURVE SMOOTH",
"1265 168 OFFCURVE",
"1218 93 OFFCURVE",
"1204 83 CURVE SMOOTH",
"1174 61 OFFCURVE",
"1113 47 OFFCURVE",
"1057 47 CURVE SMOOTH",
"958 47 OFFCURVE",
"908 127 OFFCURVE",
"908 247 CURVE SMOOTH",
"908 376 OFFCURVE",
"949 494 OFFCURVE",
"1020 561 CURVE SMOOTH",
"1055 594 OFFCURVE",
"1094 611 OFFCURVE",
"1137 611 CURVE SMOOTH",
"1186 611 OFFCURVE",
"1227 595 OFFCURVE",
"1250 576 CURVE SMOOTH",
"1273 557 OFFCURVE",
"1286 537 OFFCURVE",
"1298 478 CURVE",
"1306 476 OFFCURVE",
"1311 475 OFFCURVE",
"1312 475 CURVE SMOOTH",
"1324 475 OFFCURVE",
"1337 481 OFFCURVE",
"1340 490 CURVE",
"1341 499 OFFCURVE",
"1350 622 OFFCURVE",
"1350 638 CURVE",
"1280 657 OFFCURVE",
"1211 667 OFFCURVE",
"1143 667 CURVE SMOOTH"
);
},
{
closed = 1;
nodes = (
"406 -7 OFFCURVE",
"464 7 OFFCURVE",
"536 34 CURVE",
"546 38 OFFCURVE",
"598 149 OFFCURVE",
"604 180 CURVE",
"602 187 OFFCURVE",
"588 190 OFFCURVE",
"561 190 CURVE",
"544 155 OFFCURVE",
"524 124 OFFCURVE",
"497 99 CURVE SMOOTH",
"462 67 OFFCURVE",
"416 47 OFFCURVE",
"369 47 CURVE SMOOTH",
"242 47 OFFCURVE",
"181 165 OFFCURVE",
"216 343 CURVE SMOOTH",
"248 512 OFFCURVE",
"338 611 OFFCURVE",
"467 611 CURVE SMOOTH",
"544 611 OFFCURVE",
"604 567 OFFCURVE",
"612 478 CURVE",
"628 474 OFFCURVE",
"644 476 OFFCURVE",
"656 481 CURVE",
"662 518 OFFCURVE",
"669 598 OFFCURVE",
"666 638 CURVE",
"600 657 OFFCURVE",
"526 667 OFFCURVE",
"483 667 CURVE SMOOTH",
"293 667 OFFCURVE",
"105 526 OFFCURVE",
"65 322 CURVE SMOOTH",
"26 124 OFFCURVE",
"151 -7 OFFCURVE",
"351 -7 CURVE SMOOTH"
);
}
);
};
color = -1;
layerId = "EE330C8E-4A1C-402A-831D-620872201BE1";
paths = (
{
closed = 1;
nodes = (
"406 -7 OFFCURVE",
"464 7 OFFCURVE",
"536 34 CURVE",
"546 38 OFFCURVE",
"598 149 OFFCURVE",
"604 180 CURVE",
"602 187 OFFCURVE",
"588 190 OFFCURVE",
"561 190 CURVE",
"544 155 OFFCURVE",
"524 122 OFFCURVE",
"497 97 CURVE SMOOTH",
"462 65 OFFCURVE",
"416 44 OFFCURVE",
"369 44 CURVE SMOOTH",
"266 44 OFFCURVE",
"206 123 OFFCURVE",
"206 249 CURVE SMOOTH",
"206 431 OFFCURVE",
"297 614 OFFCURVE",
"467 614 CURVE SMOOTH",
"544 614 OFFCURVE",
"604 569 OFFCURVE",
"612 478 CURVE",
"628 474 OFFCURVE",
"644 476 OFFCURVE",
"656 481 CURVE",
"662 518 OFFCURVE",
"669 598 OFFCURVE",
"666 638 CURVE",
"600 657 OFFCURVE",
"526 667 OFFCURVE",
"483 667 CURVE SMOOTH",
"258 667 OFFCURVE",
"58 475 OFFCURVE",
"58 252 CURVE SMOOTH",
"58 94 OFFCURVE",
"176 -7 OFFCURVE",
"351 -7 CURVE SMOOTH"
);
}
);
width = 638;
}
);
leftMetricsKey = O;
note = C;
unicode = 0043;
},
{
color = 3;
glyphname = D;
lastChange = "2019-01-08 22:46:28 +0000";
layers = (
{
anchors = (
{
name = bottom;
position = "{317, 0}";
},
{
name = center;
position = "{381, 329}";
},
{
name = stroke;
position = "{238, 330}";
},
{
name = top;
position = "{445, 658}";
}
);
background = {
paths = (
{
closed = 1;
nodes = (
"201 656 OFFCURVE",
"162 657 OFFCURVE",
"127 658 CURVE",
"124 655 OFFCURVE",
"122 650 OFFCURVE",
"120 641 CURVE SMOOTH",
"118 633 OFFCURVE",
"119 629 OFFCURVE",
"122 629 CURVE SMOOTH",
"145 629 OFFCURVE",
"185 615 OFFCURVE",
"186 607 CURVE",
"188 589 OFFCURVE",
"185 560 OFFCURVE",
"177 521 CURVE SMOOTH",
"103 143 LINE SMOOTH",
"92 88 OFFCURVE",
"84 57 OFFCURVE",
"78 49 CURVE SMOOTH",
"71 39 OFFCURVE",
"29 26 OFFCURVE",
"4 26 CURVE SMOOTH",
"2 26 OFFCURVE",
"0 21 OFFCURVE",
"-1 12 CURVE SMOOTH",
"-2 4 OFFCURVE",
"-3 -1 OFFCURVE",
"-1 -3 CURVE",
"39 -2 OFFCURVE",
"80 0 OFFCURVE",
"117 0 CURVE SMOOTH",
"158 0 OFFCURVE",
"260 -3 OFFCURVE",
"283 -3 CURVE SMOOTH",
"473 -3 OFFCURVE",
"635 134 OFFCURVE",
"671 316 CURVE SMOOTH",
"711 519 OFFCURVE",
"574 658 OFFCURVE",
"382 658 CURVE SMOOTH",
"353 658 OFFCURVE",
"270 656 OFFCURVE",
"243 656 CURVE SMOOTH"
);
},
{
closed = 1;
nodes = (
"267 565 OFFCURVE",
"275 586 OFFCURVE",
"287 598 CURVE SMOOTH",
"297 609 OFFCURVE",
"336 614 OFFCURVE",
"374 614 CURVE SMOOTH",
"530 614 OFFCURVE",
"610 517 OFFCURVE",
"573 325 CURVE SMOOTH",
"537 141 OFFCURVE",
"434 43 OFFCURVE",
"298 43 CURVE SMOOTH",
"248 43 OFFCURVE",
"187 53 OFFCURVE",
"182 63 CURVE",
"179 86 OFFCURVE",
"179 111 OFFCURVE",
"184 139 CURVE SMOOTH",
"261 535 LINE SMOOTH"
);
}
);
};
color = -1;
layerId = "02396921-8257-42A3-8ED5-3052446F9CE3";
paths = (
{
closed = 1;
nodes = (
"201 656 OFFCURVE",
"162 657 OFFCURVE",
"127 658 CURVE",
"124 655 OFFCURVE",
"122 650 OFFCURVE",
"120 641 CURVE SMOOTH",
"118 633 OFFCURVE",
"119 629 OFFCURVE",
"122 629 CURVE SMOOTH",
"145 629 OFFCURVE",
"185 615 OFFCURVE",
"186 607 CURVE",
"188 589 OFFCURVE",
"185 560 OFFCURVE",
"177 521 CURVE SMOOTH",
"103 143 LINE SMOOTH",
"92 88 OFFCURVE",
"84 57 OFFCURVE",
"78 49 CURVE SMOOTH",
"71 39 OFFCURVE",
"29 26 OFFCURVE",
"4 26 CURVE SMOOTH",
"2 26 OFFCURVE",
"0 21 OFFCURVE",
"-1 12 CURVE SMOOTH",
"-1 11 OFFCURVE",
"-3 -1 OFFCURVE",
"-1 -3 CURVE",
"39 -2 OFFCURVE",
"80 0 OFFCURVE",
"117 0 CURVE SMOOTH",
"158 0 OFFCURVE",
"260 -3 OFFCURVE",
"283 -3 CURVE SMOOTH",
"498 -3 OFFCURVE",
"678 175 OFFCURVE",
"678 385 CURVE SMOOTH",
"678 550 OFFCURVE",
"551 658 OFFCURVE",
"382 658 CURVE SMOOTH",
"353 658 OFFCURVE",
"270 656 OFFCURVE",
"243 656 CURVE SMOOTH"
);
},
{
closed = 1;
nodes = (
"267 565 OFFCURVE",
"275 586 OFFCURVE",
"287 598 CURVE SMOOTH",
"297 609 OFFCURVE",
"336 614 OFFCURVE",
"374 614 CURVE SMOOTH",
"505 614 OFFCURVE",
"582 546 OFFCURVE",
"582 411 CURVE SMOOTH",
"582 226 OFFCURVE",
"479 43 OFFCURVE",
"298 43 CURVE SMOOTH",
"248 43 OFFCURVE",
"187 53 OFFCURVE",
"182 63 CURVE",
"180 85 OFFCURVE",
"179 113 OFFCURVE",
"184 139 CURVE SMOOTH",
"261 535 LINE SMOOTH"
);
}
);
width = 702;
},
{
anchors = (
{
name = bottom;
position = "{314, 0}";
},
{
name = center;
position = "{378, 329}";
},
{
name = stroke;
position = "{245, 330}";
},
{
name = top;
position = "{442, 658}";
}
);
background = {
paths = (
{
closed = 1;
nodes = (
"221 659 OFFCURVE",
"172 661 OFFCURVE",
"120 664 CURVE",
"118 662 OFFCURVE",
"115 656 OFFCURVE",
"113 645 CURVE SMOOTH",
"111 633 OFFCURVE",
"111 627 OFFCURVE",
"114 627 CURVE SMOOTH",
"132 627 OFFCURVE",
"174 608 OFFCURVE",
"175 599 CURVE",
"176 584 OFFCURVE",
"173 558 OFFCURVE",
"166 521 CURVE SMOOTH",
"93 143 LINE SMOOTH",
"85 100 OFFCURVE",
"76 70 OFFCURVE",
"70 55 CURVE",
"65 47 OFFCURVE",
"20 33 OFFCURVE",
"-1 33 CURVE SMOOTH",
"-4 33 OFFCURVE",
"-6 26 OFFCURVE",
"-9 13 CURVE SMOOTH",
"-11 4 OFFCURVE",
"-10 -1 OFFCURVE",
"-8 -4 CURVE",
"41 -2 OFFCURVE",
"92 2 OFFCURVE",
"129 2 CURVE SMOOTH",
"148 2 OFFCURVE",
"264 -3 OFFCURVE",
"290 -3 CURVE SMOOTH",
"497 -3 OFFCURVE",
"665 135 OFFCURVE",
"704 336 CURVE SMOOTH",
"740 524 OFFCURVE",
"622 659 OFFCURVE",
"410 659 CURVE SMOOTH",
"345 659 OFFCURVE",
"281 659 OFFCURVE",
"256 659 CURVE SMOOTH"
);
},
{
closed = 1;
nodes = (
"303 557 OFFCURVE",
"311 578 OFFCURVE",
"322 590 CURVE SMOOTH",
"332 601 OFFCURVE",
"385 606 OFFCURVE",
"412 606 CURVE SMOOTH",
"539 606 OFFCURVE",
"590 498 OFFCURVE",
"559 340 CURVE SMOOTH",
"523 154 OFFCURVE",
"441 50 OFFCURVE",
"317 50 CURVE SMOOTH",
"266 50 OFFCURVE",
"230 54 OFFCURVE",
"217 63 CURVE SMOOTH",
"211 67 OFFCURVE",
"212 90 OFFCURVE",
"221 136 CURVE SMOOTH",
"297 527 LINE SMOOTH"
);
}
);
};
color = -1;
layerId = "EE330C8E-4A1C-402A-831D-620872201BE1";
paths = (
{
closed = 1;
nodes = (
"221 659 OFFCURVE",
"172 661 OFFCURVE",
"120 664 CURVE",
"118 662 OFFCURVE",
"115 656 OFFCURVE",
"113 645 CURVE SMOOTH",
"111 633 OFFCURVE",
"111 627 OFFCURVE",
"114 627 CURVE SMOOTH",
"132 627 OFFCURVE",
"174 608 OFFCURVE",
"175 599 CURVE",
"176 584 OFFCURVE",
"173 558 OFFCURVE",
"166 521 CURVE SMOOTH",
"93 143 LINE SMOOTH",
"85 100 OFFCURVE",
"76 70 OFFCURVE",
"70 55 CURVE",
"65 47 OFFCURVE",
"20 33 OFFCURVE",
"-1 33 CURVE SMOOTH",
"-4 33 OFFCURVE",
"-6 26 OFFCURVE",
"-9 13 CURVE SMOOTH",
"-11 4 OFFCURVE",
"-10 -1 OFFCURVE",
"-8 -4 CURVE",
"41 -2 OFFCURVE",
"92 2 OFFCURVE",
"129 2 CURVE SMOOTH",
"148 2 OFFCURVE",
"264 -3 OFFCURVE",
"290 -3 CURVE SMOOTH",
"521 -3 OFFCURVE",
"710 177 OFFCURVE",
"710 401 CURVE SMOOTH",
"710 554 OFFCURVE",
"597 659 OFFCURVE",
"410 659 CURVE SMOOTH",
"345 659 OFFCURVE",
"281 659 OFFCURVE",
"256 659 CURVE SMOOTH"
);
},
{
closed = 1;
nodes = (
"303 557 OFFCURVE",
"311 578 OFFCURVE",
"322 590 CURVE SMOOTH",
"332 601 OFFCURVE",
"385 606 OFFCURVE",
"412 606 CURVE SMOOTH",
"515 606 OFFCURVE",
"568 535 OFFCURVE",
"568 424 CURVE SMOOTH",
"568 249 OFFCURVE",
"477 50 OFFCURVE",
"317 50 CURVE SMOOTH",
"266 50 OFFCURVE",
"230 54 OFFCURVE",
"217 63 CURVE SMOOTH",
"211 67 OFFCURVE",
"212 90 OFFCURVE",
"221 136 CURVE SMOOTH",
"297 527 LINE SMOOTH"
);
}
);
width = 727;
}
);
note = D;
rightMetricsKey = O;
unicode = 0044;
},
{
color = 6;
glyphname = Eth;
lastChange = "2019-01-09 15:54:20 +0000";
layers = (
{
background = {
paths = (
{
closed = 1;
nodes = (
"402 663 OFFCURVE",
"292 661 OFFCURVE",
"257 661 QCURVE SMOOTH",
"196 661 OFFCURVE",
"150 663 QCURVE",
"143 656 OFFCURVE",
"143 640 QCURVE SMOOTH",
"143 636 OFFCURVE",
"145 636 QCURVE SMOOTH",
"156 636 OFFCURVE",
"200 620 OFFCURVE",
"201 612 QCURVE SMOOTH",
"203 591 OFFCURVE",
"190 519 QCURVE SMOOTH",
"118 147 LINE SMOOTH",
"106 83 OFFCURVE",
"92 54 QCURVE SMOOTH",
"88 46 OFFCURVE",
"36 29 OFFCURVE",
"25 29 QCURVE SMOOTH",
"20 29 OFFCURVE",
"20 10 QCURVE SMOOTH",
"20 3 OFFCURVE",
"21 2 QCURVE",
"35 3 LINE",
"49 5 OFFCURVE",
"105 7 OFFCURVE",
"132 7 QCURVE SMOOTH",
"166 7 OFFCURVE",
"272 2 OFFCURVE",
"290 2 QCURVE SMOOTH",
"367 2 OFFCURVE",
"499 55 OFFCURVE",
"589 141 OFFCURVE",
"654 249 OFFCURVE",
"684 359 OFFCURVE",
"684 410 QCURVE SMOOTH",
"684 462 OFFCURVE",
"653 551 OFFCURVE",
"590 622 OFFCURVE",
"487 663 OFFCURVE",
"420 663 QCURVE SMOOTH"
);
},
{
closed = 1;
nodes = (
"508 619 OFFCURVE",
"596 507 OFFCURVE",
"596 419 QCURVE SMOOTH",
"596 325 OFFCURVE",
"529 157 OFFCURVE",
"397 48 OFFCURVE",
"313 48 QCURVE SMOOTH",
"298 48 OFFCURVE",
"256 50 OFFCURVE",
"201 60 OFFCURVE",
"197 68 QCURVE",
"195 73 OFFCURVE",
"195 130 OFFCURVE",
"198 144 QCURVE SMOOTH",
"271 524 LINE SMOOTH",
"276 550 OFFCURVE",
"278 563 OFFCURVE",
"290 593 OFFCURVE",
"298 603 QCURVE",
"303 610 OFFCURVE",
"368 618 OFFCURVE",
"408 619 OFFCURVE",
"418 619 QCURVE SMOOTH"
);
},
{
closed = 1;
nodes = (
"95 344 OFFCURVE",
"95 326 QCURVE SMOOTH",
"95 313 OFFCURVE",
"100 313 QCURVE SMOOTH",
"446 313 LINE",
"452 327 OFFCURVE",
"452 343 QCURVE SMOOTH",
"452 353 OFFCURVE",
"446 353 QCURVE SMOOTH",
"101 353 LINE"
);
}
);
};
color = -1;
components = (
{
name = D;
},
{
name = strokeshortcomb.case;
transform = "{1, 0, 0, 1, 88, 0}";
}
);
layerId = "02396921-8257-42A3-8ED5-3052446F9CE3";
width = 702;
},
{
background = {
paths = (
{
closed = 1;
nodes = (
"253 351 LINE",
"287 524 LINE",
"291.667 553.333 OFFCURVE",
"299.667 574.333 OFFCURVE",
"311 587 CURVE SMOOTH",
"320.333 597.667 OFFCURVE",
"351.667 603 OFFCURVE",
"405 603 CURVE SMOOTH",
"409 603 LINE SMOOTH",
"515.667 603 OFFCURVE",
"558 486.667 OFFCURVE",
"530 340 CURVE SMOOTH",
"492.667 149.333 OFFCURVE",
"413 53 OFFCURVE",
"309 53 CURVE SMOOTH",
"251.667 53 OFFCURVE",
"217.333 57.333 OFFCURVE",
"206 66 CURVE SMOOTH",
"201.333 69.333 OFFCURVE",
"203.333 92.667 OFFCURVE",
"212 136 CURVE SMOOTH",
"239 279 LINE",
"361 279 LINE",
"362 279 LINE SMOOTH",
"364.667 279 OFFCURVE",
"367.667 281 OFFCURVE",
"369 285 CURVE",
"379 307.667 OFFCURVE",
"386 327.333 OFFCURVE",
"390 344 CURVE",
"390.667 348.667 OFFCURVE",
"388.667 351 OFFCURVE",
"384 351 CURVE SMOOTH"
);
},
{
closed = 1;
nodes = (
"75 351 LINE",
"74 351 LINE SMOOTH",
"71.333 351 OFFCURVE",
"68.333 350 OFFCURVE",
"67 346 CURVE",
"61.667 334 OFFCURVE",
"55.667 315 OFFCURVE",
"49 289 CURVE",
"52 279 LINE",
"109 279 LINE",
"81 135 LINE SMOOTH",
"74.333 98.333 OFFCURVE",
"67.333 71.333 OFFCURVE",
"60 54 CURVE",
"53.333 43.333 OFFCURVE",
"14.667 32 OFFCURVE",
"0 32 CURVE SMOOTH",
"-2 32 OFFCURVE",
"-4.667 25.667 OFFCURVE",
"-8 13 CURVE",
"-9.333 6.333 OFFCURVE",
"-9 0.667 OFFCURVE",
"-7 -4 CURVE",
"125 2 LINE",
"147.667 2 OFFCURVE",
"176.667 1.167 OFFCURVE",
"212 -0.5 CURVE SMOOTH",
"247.333 -2.167 OFFCURVE",
"271 -3 OFFCURVE",
"283 -3 CURVE SMOOTH",
"483 -3 OFFCURVE",
"633.667 142.667 OFFCURVE",
"671 336 CURVE",
"680.333 401.333 OFFCURVE",
"681.5 463.167 OFFCURVE",
"655.5 518.5 CURVE SMOOTH",
"642.5 546.167 OFFCURVE",
"625.833 570.5 OFFCURVE",
"605.5 591.5 CURVE SMOOTH",
"585.167 612.5 OFFCURVE",
"521 635 OFFCURVE",
"413 659 CURVE",
"251 659 LINE SMOOTH",
"209.667 659 OFFCURVE",
"167.333 660.667 OFFCURVE",
"124 664 CURVE",
"120.667 660.667 OFFCURVE",
"118.333 653.667 OFFCURVE",
"117 643 CURVE SMOOTH",
"115.667 633 OFFCURVE",
"115.667 628 OFFCURVE",
"117 628 CURVE SMOOTH",
"129 628 OFFCURVE",
"164.667 609.667 OFFCURVE",
"166 599 CURVE",
"166.667 587.667 OFFCURVE",
"163.333 561.667 OFFCURVE",
"156 521 CURVE SMOOTH",
"123 351 LINE"
);
}
);
};
color = -1;
components = (
{
name = D;
},
{
name = strokeshortcomb.case;
transform = "{1, 0, 0, 1, 95, 0}";
}
);
layerId = "EE330C8E-4A1C-402A-831D-620872201BE1";
width = 727;
}
);
note = Eth;
unicode = 00D0;
},
{
color = 3;
glyphname = E;
lastChange = "2019-01-08 22:46:28 +0000";
layers = (
{
anchors = (
{
name = bottom;
position = "{246, 0}";
},
{
name = ogonek;
position = "{441, 10}";
},
{
name = top;
position = "{374, 658}";
},
{
name = topleft;
position = "{108, 658}";
}
);
background = {
paths = (
{
closed = 1;
nodes = (
"201 656 OFFCURVE",
"166 657 OFFCURVE",
"135 658 CURVE",
"130 653 OFFCURVE",
"128 646 OFFCURVE",
"128 635 CURVE SMOOTH",
"128 632 OFFCURVE",
"129 631 OFFCURVE",
"130 631 CURVE SMOOTH",
"145 631 OFFCURVE",
"185 618 OFFCURVE",
"186 607 CURVE SMOOTH",
"187 592 OFFCURVE",
"184 561 OFFCURVE",
"175 514 CURVE SMOOTH",
"103 142 LINE SMOOTH",
"95 99 OFFCURVE",
"86 68 OFFCURVE",
"77 49 CURVE SMOOTH",
"71 37 OFFCURVE",
"25 24 OFFCURVE",
"10 24 CURVE SMOOTH",
"7 24 OFFCURVE",
"5 18 OFFCURVE",
"5 5 CURVE SMOOTH",
"5 0 OFFCURVE",
"5 -2 OFFCURVE",
"6 -3 CURVE",
"117 2 LINE",
"144 2 OFFCURVE",
"194 1 OFFCURVE",
"269 -1 CURVE SMOOTH",
"343 -3 OFFCURVE",
"398 -4 OFFCURVE",
"433 -4 CURVE",
"441 20 OFFCURVE",
"468 75 OFFCURVE",
"515 162 CURVE",
"512 166 OFFCURVE",
"505 168 OFFCURVE",
"494 168 CURVE SMOOTH",
"486 168 OFFCURVE",
"481 166 OFFCURVE",
"479 162 CURVE SMOOTH",
"454 111 OFFCURVE",
"422 72 OFFCURVE",
"401 61 CURVE SMOOTH",
"378 49 OFFCURVE",
"338 44 OFFCURVE",
"280 44 CURVE SMOOTH",
"235 44 LINE SMOOTH",
"205 44 OFFCURVE",
"187 45 OFFCURVE",
"182 47 CURVE SMOOTH",
"177 49 OFFCURVE",
"174 55 OFFCURVE",
"174 65 CURVE SMOOTH",
"174 88 OFFCURVE",
"178 117 OFFCURVE",
"185 152 CURVE SMOOTH",
"214 300 LINE SMOOTH",
"215 306 OFFCURVE",
"238 309 OFFCURVE",
"282 309 CURVE SMOOTH",
"340 309 OFFCURVE",
"372 306 OFFCURVE",
"379 301 CURVE SMOOTH",
"392 292 OFFCURVE",
"393 270 OFFCURVE",
"394 238 CURVE",
"395 233 OFFCURVE",
"399 230 OFFCURVE",
"408 230 CURVE SMOOTH",
"413 230 OFFCURVE",
"418 231 OFFCURVE",
"422 234 CURVE",
"459 426 LINE",
"457 429 OFFCURVE",
"452 431 OFFCURVE",
"444 431 CURVE SMOOTH",
"437 431 OFFCURVE",
"432 429 OFFCURVE",
"430 424 CURVE SMOOTH",
"402 354 OFFCURVE",
"397 353 OFFCURVE",
"309 353 CURVE SMOOTH",
"264 353 LINE SMOOTH",
"246 353 OFFCURVE",
"227 353 OFFCURVE",
"227 361 CURVE",
"259 536 LINE SMOOTH",
"264 561 OFFCURVE",
"270 583 OFFCURVE",
"277 603 CURVE SMOOTH",
"280 612 OFFCURVE",
"306 616 OFFCURVE",
"353 616 CURVE SMOOTH",
"407 616 LINE SMOOTH",
"474 616 OFFCURVE",
"502 605 OFFCURVE",
"506 530 CURVE",
"506 525 OFFCURVE",
"510 523 OFFCURVE",
"518 523 CURVE SMOOTH",
"527 523 OFFCURVE",
"533 525 OFFCURVE",
"536 528 CURVE",
"536 539 OFFCURVE",
"536 555 OFFCURVE",
"535 576 CURVE SMOOTH",
"534 597 OFFCURVE",
"534 614 OFFCURVE",
"534 625 CURVE SMOOTH",
"534 642 OFFCURVE",
"534 655 OFFCURVE",
"535 664 CURVE",
"500 664 OFFCURVE",
"450 663 OFFCURVE",
"383 660 CURVE SMOOTH",
"316 657 OFFCURVE",
"269 656 OFFCURVE",
"242 656 CURVE SMOOTH"
);
}
);
};
color = -1;
layerId = "02396921-8257-42A3-8ED5-3052446F9CE3";
paths = (
{
closed = 1;
nodes = (
"200 656 OFFCURVE",
"162 657 OFFCURVE",
"127 658 CURVE",
"123 655 OFFCURVE",
"121 650 OFFCURVE",
"119 641 CURVE SMOOTH",
"117 633 OFFCURVE",
"118 629 OFFCURVE",
"121 629 CURVE SMOOTH",
"138 629 OFFCURVE",
"184 618 OFFCURVE",
"186 607 CURVE",
"187 589 OFFCURVE",
"184 560 OFFCURVE",
"176 521 CURVE SMOOTH",
"103 143 LINE SMOOTH",
"92 88 OFFCURVE",
"84 57 OFFCURVE",
"77 49 CURVE SMOOTH",
"67 38 OFFCURVE",
"21 26 OFFCURVE",
"4 26 CURVE SMOOTH",
"2 26 OFFCURVE",
"0 22 OFFCURVE",
"-2 13 CURVE SMOOTH",
"-4 4 OFFCURVE",
"-3 -1 OFFCURVE",
"-2 -3 CURVE",
"114 0 LINE",
"161 1 OFFCURVE",
"201 -1 OFFCURVE",
"273 -2 CURVE SMOOTH",
"346 -3 OFFCURVE",
"400 -4 OFFCURVE",
"434 -4 CURVE",
"444 29 OFFCURVE",
"504 134 OFFCURVE",
"520 162 CURVE",
"517 166 OFFCURVE",
"510 168 OFFCURVE",
"497 168 CURVE SMOOTH",
"489 168 OFFCURVE",
"483 166 OFFCURVE",
"481 162 CURVE",
"456 111 OFFCURVE",
"421 72 OFFCURVE",
"399 61 CURVE SMOOTH",
"375 49 OFFCURVE",
"331 44 OFFCURVE",
"269 44 CURVE SMOOTH",
"241 44 LINE SMOOTH",
"198 44 OFFCURVE",
"176 47 OFFCURVE",
"175 54 CURVE",
"173 71 OFFCURVE",
"176 102 OFFCURVE",
"184 145 CURVE SMOOTH",
"214 300 LINE SMOOTH",
"215 306 OFFCURVE",
"240 309 OFFCURVE",
"288 309 CURVE SMOOTH",
"330 309 OFFCURVE",
"364 307 OFFCURVE",
"371 301 CURVE SMOOTH",
"383 290 OFFCURVE",
"387 276 OFFCURVE",
"388 238 CURVE",
"389 233 OFFCURVE",
"394 230 OFFCURVE",
"403 230 CURVE SMOOTH",
"411 230 OFFCURVE",
"416 231 OFFCURVE",
"419 234 CURVE",
"456 423 LINE",
"454 426 OFFCURVE",
"448 428 OFFCURVE",
"440 428 CURVE SMOOTH",
"431 428 OFFCURVE",
"426 426 OFFCURVE",
"424 421 CURVE",
"410 389 OFFCURVE",
"399 367 OFFCURVE",
"384 361 CURVE SMOOTH",
"372 356 OFFCURVE",
"352 353 OFFCURVE",
"324 353 CURVE SMOOTH",
"267 353 LINE SMOOTH",
"238 353 OFFCURVE",
"225 355 OFFCURVE",
"226 359 CURVE SMOOTH",
"257 519 LINE SMOOTH",
"265 559 OFFCURVE",
"272 587 OFFCURVE",
"278 603 CURVE",
"281 612 OFFCURVE",
"312 616 OFFCURVE",
"369 616 CURVE SMOOTH",
"416 616 LINE SMOOTH",
"479 616 OFFCURVE",
"509 603 OFFCURVE",
"515 530 CURVE",
"515 525 OFFCURVE",
"519 523 OFFCURVE",
"528 523 CURVE SMOOTH",
"537 523 OFFCURVE",
"543 525 OFFCURVE",
"546 528 CURVE",
"547 546 OFFCURVE",
"542 621 OFFCURVE",
"544 664 CURVE",
"507 664 OFFCURVE",
"451 663 OFFCURVE",
"376 660 CURVE SMOOTH",
"302 657 OFFCURVE",
"269 656 OFFCURVE",
"239 656 CURVE SMOOTH"
);
}
);
width = 553;
},
{
anchors = (
{
name = bottom;
position = "{251, 0}";
},
{
name = ogonek;
position = "{469, 10}";
},
{
name = top;
position = "{379, 658}";
},
{
name = topleft;
position = "{100, 658}";
}
);
background = {
paths = (
{
closed = 1;
nodes = (
"146 2 OFFCURVE",
"198 1 OFFCURVE",
"277 0 CURVE SMOOTH",
"356 -1 OFFCURVE",
"413 -2 OFFCURVE",
"448 -2 CURVE",
"462 40 OFFCURVE",
"514 134 OFFCURVE",
"532 170 CURVE",
"529 174 OFFCURVE",
"520 176 OFFCURVE",
"505 176 CURVE SMOOTH",
"498 176 OFFCURVE",
"493 174 OFFCURVE",
"491 170 CURVE",
"468 129 OFFCURVE",
"430 92 OFFCURVE",
"407 80 CURVE SMOOTH",
"372 63 OFFCURVE",
"336 54 OFFCURVE",
"297 54 CURVE SMOOTH",
"273 54 LINE SMOOTH",
"245 54 OFFCURVE",
"228 56 OFFCURVE",
"222 59 CURVE SMOOTH",
"215 62 OFFCURVE",
"212 70 OFFCURVE",
"212 82 CURVE SMOOTH",
"212 95 OFFCURVE",
"215 114 OFFCURVE",
"220 141 CURVE SMOOTH",
"249 295 LINE SMOOTH",
"250 301 OFFCURVE",
"273 304 OFFCURVE",
"318 304 CURVE SMOOTH",
"360 304 OFFCURVE",
"385 300 OFFCURVE",
"393 292 CURVE SMOOTH",
"399 286 OFFCURVE",
"403 268 OFFCURVE",
"404 238 CURVE",
"405 233 OFFCURVE",
"410 230 OFFCURVE",
"417 230 CURVE SMOOTH",
"428 230 OFFCURVE",
"435 231 OFFCURVE",
"438 234 CURVE",
"474 423 LINE",
"472 426 OFFCURVE",
"466 428 OFFCURVE",
"455 428 CURVE SMOOTH",
"446 428 OFFCURVE",
"441 426 OFFCURVE",
"439 421 CURVE SMOOTH",
"426 391 OFFCURVE",
"416 373 OFFCURVE",
"411 368 CURVE SMOOTH",
"406 362 OFFCURVE",
"396 359 OFFCURVE",
"381 359 CURVE SMOOTH",
"302 359 LINE SMOOTH",
"290 359 OFFCURVE",
"280 360 OFFCURVE",
"273 361 CURVE SMOOTH",
"266 362 OFFCURVE",
"262 363 OFFCURVE",
"263 365 CURVE",
"293 519 LINE SMOOTH",
"298 549 OFFCURVE",
"305 575 OFFCURVE",
"313 597 CURVE SMOOTH",
"315 602 OFFCURVE",
"321 606 OFFCURVE",
"330 608 CURVE SMOOTH",
"339 609 OFFCURVE",
"355 610 OFFCURVE",
"376 610 CURVE SMOOTH",
"411 610 LINE SMOOTH",
"459 610 OFFCURVE",
"508 569 OFFCURVE",
"523 518 CURVE",
"524 513 OFFCURVE",
"528 511 OFFCURVE",
"535 511 CURVE SMOOTH",
"546 511 OFFCURVE",
"554 513 OFFCURVE",
"557 516 CURVE",
"557 573 LINE SMOOTH",
"557 614 OFFCURVE",
"558 644 OFFCURVE",
"559 664 CURVE",
"523 664 OFFCURVE",
"473 663 OFFCURVE",
"408 662 CURVE SMOOTH",
"343 660 OFFCURVE",
"293 659 OFFCURVE",
"258 659 CURVE SMOOTH",
"224 659 OFFCURVE",
"180 660 OFFCURVE",
"127 662 CURVE",
"122 657 OFFCURVE",
"120 648 OFFCURVE",
"120 635 CURVE SMOOTH",
"120 630 OFFCURVE",
"121 628 OFFCURVE",
"122 628 CURVE SMOOTH",
"134 628 OFFCURVE",
"172 610 OFFCURVE",
"173 599 CURVE",
"174 590 OFFCURVE",
"170 564 OFFCURVE",
"163 521 CURVE SMOOTH",
"90 143 LINE SMOOTH",
"81 98 OFFCURVE",
"73 69 OFFCURVE",
"65 55 CURVE SMOOTH",
"58 43 OFFCURVE",
"19 30 OFFCURVE",
"6 30 CURVE SMOOTH",
"2 30 OFFCURVE",
"-2 12 OFFCURVE",
"-2 5 CURVE SMOOTH",
"-2 0 OFFCURVE",
"-1 -3 OFFCURVE",
"0 -4 CURVE",
"7 -4 OFFCURVE",
"23 -3 OFFCURVE",
"48 -1 CURVE SMOOTH",
"73 1 OFFCURVE",
"96 2 OFFCURVE",
"119 2 CURVE SMOOTH"
);
}
);
};
color = -1;
layerId = "EE330C8E-4A1C-402A-831D-620872201BE1";
paths = (
{
closed = 1;
nodes = (
"221 659 OFFCURVE",
"172 661 OFFCURVE",
"120 664 CURVE",
"118 662 OFFCURVE",
"115 656 OFFCURVE",
"113 645 CURVE SMOOTH",
"111 633 OFFCURVE",
"111 627 OFFCURVE",
"114 627 CURVE SMOOTH",
"132 627 OFFCURVE",
"174 608 OFFCURVE",
"175 599 CURVE",
"176 584 OFFCURVE",
"173 558 OFFCURVE",
"166 521 CURVE SMOOTH",
"93 143 LINE SMOOTH",
"85 100 OFFCURVE",
"76 70 OFFCURVE",
"70 55 CURVE",
"65 47 OFFCURVE",
"20 33 OFFCURVE",
"-1 33 CURVE SMOOTH",
"-4 33 OFFCURVE",
"-6 26 OFFCURVE",
"-9 13 CURVE SMOOTH",
"-11 4 OFFCURVE",
"-10 -1 OFFCURVE",
"-8 -4 CURVE",
"129 2 LINE",
"175 2 OFFCURVE",
"235 1 OFFCURVE",
"309 0 CURVE SMOOTH",
"366 -1 OFFCURVE",
"419 -2 OFFCURVE",
"453 -2 CURVE",
"461 21 OFFCURVE",
"490 78 OFFCURVE",
"541 170 CURVE",
"538 174 OFFCURVE",
"528 176 OFFCURVE",
"512 176 CURVE SMOOTH",
"503 176 OFFCURVE",
"499 174 OFFCURVE",
"497 170 CURVE",
"476 134 OFFCURVE",
"436 94 OFFCURVE",
"407 80 CURVE SMOOTH",
"371 63 OFFCURVE",
"331 54 OFFCURVE",
"307 54 CURVE SMOOTH",
"281 54 LINE SMOOTH",
"239 54 OFFCURVE",
"217 59 OFFCURVE",
"216 70 CURVE SMOOTH",
"215 85 OFFCURVE",
"216 109 OFFCURVE",
"222 141 CURVE SMOOTH",
"252 295 LINE SMOOTH",
"253 301 OFFCURVE",
"278 304 OFFCURVE",
"326 304 CURVE SMOOTH",
"366 304 OFFCURVE",
"389 299 OFFCURVE",
"395 286 CURVE SMOOTH",
"398 279 OFFCURVE",
"402 256 OFFCURVE",
"402 238 CURVE",
"403 233 OFFCURVE",
"408 230 OFFCURVE",
"417 230 CURVE SMOOTH",
"428 230 OFFCURVE",
"435 231 OFFCURVE",
"438 234 CURVE",
"475 423 LINE",
"473 426 OFFCURVE",
"465 428 OFFCURVE",
"454 428 CURVE SMOOTH",
"445 428 OFFCURVE",
"440 426 OFFCURVE",
"438 421 CURVE",
"432 400 OFFCURVE",
"418 372 OFFCURVE",
"412 365 CURVE",
"406 361 OFFCURVE",
"381 359 OFFCURVE",
"344 359 CURVE SMOOTH",
"308 359 LINE SMOOTH",
"279 359 OFFCURVE",
"265 361 OFFCURVE",
"266 365 CURVE SMOOTH",
"296 519 LINE SMOOTH",
"303 555 OFFCURVE",
"310 581 OFFCURVE",
"316 597 CURVE",
"319 606 OFFCURVE",
"341 610 OFFCURVE",
"383 610 CURVE SMOOTH",
"421 610 LINE SMOOTH",
"473 610 OFFCURVE",
"508 585 OFFCURVE",
"527 518 CURVE",
"528 513 OFFCURVE",
"532 511 OFFCURVE",
"539 511 CURVE SMOOTH",
"551 511 OFFCURVE",
"560 513 OFFCURVE",
"563 516 CURVE",
"562 592 OFFCURVE",
"562 656 OFFCURVE",
"563 664 CURVE",
"531 664 OFFCURVE",
"474 662 OFFCURVE",
"422 662 CURVE SMOOTH",
"329 662 OFFCURVE",
"280 659 OFFCURVE",
"256 659 CURVE SMOOTH"
);
}
);
width = 581;
}
);
note = E;
unicode = 0045;
},
{
color = 3;
glyphname = Eogonek;
lastChange = "2019-01-08 22:46:28 +0000";
layers = (
{
anchors = (
{
name = top;
position = "{374, 658}";
},
{
name = topleft;
position = "{108, 658}";
}
);
background = {
paths = (
{
closed = 1;
nodes = (
"417 -143 OFFCURVE",
"382 -164 OFFCURVE",
"348 -164 CURVE SMOOTH",
"317 -164 OFFCURVE",
"312 -142 OFFCURVE",
"316 -121 CURVE SMOOTH",
"324 -81 OFFCURVE",
"386 -29 OFFCURVE",
"433 -4 CURVE",
"444 29 OFFCURVE",
"503 134 OFFCURVE",
"520 162 CURVE",
"516 166 OFFCURVE",
"509 168 OFFCURVE",
"496 168 CURVE SMOOTH",
"488 168 OFFCURVE",
"482 166 OFFCURVE",
"481 162 CURVE",
"456 111 OFFCURVE",
"420 72 OFFCURVE",
"398 61 CURVE",
"374 50 OFFCURVE",
"331 44 OFFCURVE",
"269 44 CURVE SMOOTH",
"221 44 LINE SMOOTH",
"178 44 OFFCURVE",
"155 47 OFFCURVE",
"155 54 CURVE",
"152 71 OFFCURVE",
"155 102 OFFCURVE",
"163 145 CURVE SMOOTH",
"193 300 LINE SMOOTH",
"194 306 OFFCURVE",
"219 309 OFFCURVE",
"267 309 CURVE SMOOTH",
"329 309 OFFCURVE",
"363 307 OFFCURVE",
"371 301 CURVE SMOOTH",
"384 291 OFFCURVE",
"386 276 OFFCURVE",
"387 238 CURVE",
"388 233 OFFCURVE",
"393 230 OFFCURVE",
"402 230 CURVE SMOOTH",
"410 230 OFFCURVE",
"415 231 OFFCURVE",
"419 234 CURVE",
"455 423 LINE",
"453 426 OFFCURVE",
"447 428 OFFCURVE",
"439 428 CURVE SMOOTH",
"430 428 OFFCURVE",
"425 426 OFFCURVE",
"423 421 CURVE SMOOTH",
"410 389 OFFCURVE",
"398 367 OFFCURVE",
"383 361 CURVE",
"372 357 OFFCURVE",
"352 353 OFFCURVE",
"324 353 CURVE SMOOTH",
"247 353 LINE SMOOTH",
"218 353 OFFCURVE",
"204 355 OFFCURVE",
"205 359 CURVE SMOOTH",
"236 519 LINE SMOOTH",
"244 559 OFFCURVE",
"251 587 OFFCURVE",
"257 603 CURVE",
"260 612 OFFCURVE",
"291 616 OFFCURVE",
"348 616 CURVE SMOOTH",
"415 616 LINE SMOOTH",
"478 616 OFFCURVE",
"508 603 OFFCURVE",
"514 530 CURVE",
"514 525 OFFCURVE",
"518 523 OFFCURVE",
"527 523 CURVE SMOOTH",
"536 523 OFFCURVE",
"542 525 OFFCURVE",
"546 528 CURVE",
"546 546 OFFCURVE",
"541 621 OFFCURVE",
"543 664 CURVE",
"506 664 OFFCURVE",
"450 663 OFFCURVE",
"375 660 CURVE SMOOTH",
"301 657 OFFCURVE",
"249 656 OFFCURVE",
"219 656 CURVE SMOOTH",
"174 656 OFFCURVE",
"135 657 OFFCURVE",
"100 658 CURVE",
"96 655 OFFCURVE",
"94 650 OFFCURVE",
"93 641 CURVE SMOOTH",
"92 633 OFFCURVE",
"91 629 OFFCURVE",
"94 629 CURVE SMOOTH",
"111 629 OFFCURVE",
"157 618 OFFCURVE",
"159 607 CURVE",
"161 589 OFFCURVE",
"157 560 OFFCURVE",
"149 521 CURVE SMOOTH",
"76 143 LINE SMOOTH",
"65 88 OFFCURVE",
"57 57 OFFCURVE",
"51 49 CURVE SMOOTH",
"42 37 OFFCURVE",
"-6 26 OFFCURVE",
"-23 26 CURVE SMOOTH",
"-25 26 OFFCURVE",
"-27 22 OFFCURVE",
"-28 13 CURVE SMOOTH",
"-29 4 OFFCURVE",
"-30 -1 OFFCURVE",
"-28 -3 CURVE",
"93 0 LINE SMOOTH",
"140 1 OFFCURVE",
"200 0 OFFCURVE",
"273 -2 CURVE SMOOTH",
"314 -3 OFFCURVE",
"348 -3 OFFCURVE",
"377 -4 CURVE",
"319 -42 OFFCURVE",
"267 -97 OFFCURVE",
"257 -146 CURVE SMOOTH",
"250 -182 OFFCURVE",
"264 -223 OFFCURVE",
"313 -223 CURVE SMOOTH",
"350 -223 OFFCURVE",
"393 -204 OFFCURVE",
"431 -157 CURVE SMOOTH",
"435 -152 OFFCURVE",
"438 -146 OFFCURVE",
"439 -139 CURVE SMOOTH",
"440 -130 OFFCURVE",
"440 -126 OFFCURVE",
"437 -126 CURVE"
);
}
);
};
color = -1;
layerId = "02396921-8257-42A3-8ED5-3052446F9CE3";
paths = (
{
closed = 1;
nodes = (
"355 -223 OFFCURVE",
"395 -204 OFFCURVE",
"432 -157 CURVE SMOOTH",
"436 -152 OFFCURVE",
"439 -146 OFFCURVE",
"440 -139 CURVE SMOOTH",
"441 -130 OFFCURVE",
"441 -126 OFFCURVE",
"438 -126 CURVE",
"419 -143 OFFCURVE",
"385 -164 OFFCURVE",
"353 -164 CURVE SMOOTH",
"326 -164 OFFCURVE",
"316 -150 OFFCURVE",
"316 -133 CURVE SMOOTH",
"316 -83 OFFCURVE",
"391 -27 OFFCURVE",
"434 -4 CURVE",
"444 29 OFFCURVE",
"504 134 OFFCURVE",
"520 162 CURVE",
"517 166 OFFCURVE",
"510 168 OFFCURVE",
"497 168 CURVE SMOOTH",
"489 168 OFFCURVE",
"483 166 OFFCURVE",
"481 162 CURVE SMOOTH",
"456 111 OFFCURVE",
"421 72 OFFCURVE",
"399 61 CURVE SMOOTH",
"375 49 OFFCURVE",
"331 44 OFFCURVE",
"269 44 CURVE SMOOTH",
"241 44 LINE SMOOTH",
"198 44 OFFCURVE",
"176 47 OFFCURVE",
"175 54 CURVE SMOOTH",
"173 71 OFFCURVE",
"176 102 OFFCURVE",
"184 145 CURVE SMOOTH",
"214 300 LINE SMOOTH",
"215 306 OFFCURVE",
"240 309 OFFCURVE",
"288 309 CURVE SMOOTH",
"330 309 OFFCURVE",
"364 307 OFFCURVE",
"371 301 CURVE SMOOTH",
"383 290 OFFCURVE",
"387 276 OFFCURVE",
"388 238 CURVE",
"389 233 OFFCURVE",
"394 230 OFFCURVE",
"403 230 CURVE SMOOTH",
"411 230 OFFCURVE",
"416 231 OFFCURVE",
"419 234 CURVE",
"456 423 LINE",
"454 426 OFFCURVE",
"448 428 OFFCURVE",
"440 428 CURVE SMOOTH",
"431 428 OFFCURVE",
"426 426 OFFCURVE",
"424 421 CURVE SMOOTH",
"410 389 OFFCURVE",
"399 367 OFFCURVE",
"384 361 CURVE SMOOTH",
"372 356 OFFCURVE",
"352 353 OFFCURVE",
"324 353 CURVE SMOOTH",
"267 353 LINE SMOOTH",
"238 353 OFFCURVE",
"225 355 OFFCURVE",
"226 359 CURVE",
"257 519 LINE SMOOTH",
"265 559 OFFCURVE",
"272 587 OFFCURVE",
"278 603 CURVE",
"281 612 OFFCURVE",
"312 616 OFFCURVE",
"369 616 CURVE SMOOTH",
"416 616 LINE SMOOTH",
"479 616 OFFCURVE",
"509 603 OFFCURVE",
"515 530 CURVE",
"515 525 OFFCURVE",
"519 523 OFFCURVE",
"528 523 CURVE SMOOTH",
"537 523 OFFCURVE",
"543 525 OFFCURVE",
"546 528 CURVE",
"547 546 OFFCURVE",
"542 621 OFFCURVE",
"544 664 CURVE",
"507 664 OFFCURVE",
"451 663 OFFCURVE",
"376 660 CURVE SMOOTH",
"302 657 OFFCURVE",
"269 656 OFFCURVE",
"239 656 CURVE SMOOTH",
"200 656 OFFCURVE",
"162 657 OFFCURVE",
"127 658 CURVE",
"123 655 OFFCURVE",
"121 650 OFFCURVE",
"119 641 CURVE SMOOTH",
"117 633 OFFCURVE",
"118 629 OFFCURVE",
"121 629 CURVE SMOOTH",
"138 629 OFFCURVE",
"184 618 OFFCURVE",
"186 607 CURVE",
"187 589 OFFCURVE",
"184 560 OFFCURVE",
"176 521 CURVE SMOOTH",
"103 143 LINE SMOOTH",
"92 88 OFFCURVE",
"84 57 OFFCURVE",
"77 49 CURVE SMOOTH",
"67 38 OFFCURVE",
"21 26 OFFCURVE",
"4 26 CURVE SMOOTH",
"2 26 OFFCURVE",
"0 22 OFFCURVE",
"-2 13 CURVE SMOOTH",
"-4 4 OFFCURVE",
"-3 -1 OFFCURVE",
"-2 -3 CURVE",
"114 0 LINE SMOOTH",
"161 1 OFFCURVE",
"201 -1 OFFCURVE",
"273 -2 CURVE SMOOTH",
"327 -3 OFFCURVE",
"371 -2 OFFCURVE",
"403 -4 CURVE",
"402 10 LINE",
"336 -23 OFFCURVE",
"256 -96 OFFCURVE",
"256 -163 CURVE SMOOTH",
"256 -194 OFFCURVE",
"277 -223 OFFCURVE",
"320 -223 CURVE SMOOTH"
);
}
);
width = 553;
},
{
anchors = (
{
name = top;
position = "{379, 658}";
},
{
name = topleft;
position = "{100, 658}";
}
);
background = {
paths = (
{
closed = 1;
nodes = (
"221 659 OFFCURVE",
"172 661 OFFCURVE",
"120 664 CURVE",
"118 662 OFFCURVE",
"115 656 OFFCURVE",
"113 645 CURVE SMOOTH",
"111 633 OFFCURVE",
"111 627 OFFCURVE",
"114 627 CURVE SMOOTH",
"132 627 OFFCURVE",
"174 608 OFFCURVE",
"175 599 CURVE",
"176 584 OFFCURVE",
"173 558 OFFCURVE",
"166 521 CURVE SMOOTH",
"93 143 LINE SMOOTH",
"85 100 OFFCURVE",
"76 70 OFFCURVE",
"70 55 CURVE",
"65 47 OFFCURVE",
"20 33 OFFCURVE",
"-1 33 CURVE SMOOTH",
"-4 33 OFFCURVE",
"-6 26 OFFCURVE",
"-9 13 CURVE SMOOTH",
"-11 4 OFFCURVE",
"-10 -1 OFFCURVE",
"-8 -4 CURVE",
"129 2 LINE",
"175 2 OFFCURVE",
"235 1 OFFCURVE",
"309 0 CURVE SMOOTH",
"366 -1 OFFCURVE",
"419 -2 OFFCURVE",
"453 -2 CURVE",
"461 21 OFFCURVE",
"490 78 OFFCURVE",
"541 170 CURVE",
"538 174 OFFCURVE",
"528 176 OFFCURVE",
"512 176 CURVE SMOOTH",
"503 176 OFFCURVE",
"499 174 OFFCURVE",
"497 170 CURVE",
"476 134 OFFCURVE",
"436 94 OFFCURVE",
"407 80 CURVE SMOOTH",
"371 63 OFFCURVE",
"331 54 OFFCURVE",
"307 54 CURVE SMOOTH",
"281 54 LINE SMOOTH",
"239 54 OFFCURVE",
"217 59 OFFCURVE",
"216 70 CURVE SMOOTH",
"215 85 OFFCURVE",
"216 109 OFFCURVE",
"222 141 CURVE SMOOTH",
"252 295 LINE SMOOTH",
"253 301 OFFCURVE",
"278 304 OFFCURVE",
"326 304 CURVE SMOOTH",
"366 304 OFFCURVE",
"389 299 OFFCURVE",
"395 286 CURVE SMOOTH",
"398 279 OFFCURVE",
"402 256 OFFCURVE",
"402 238 CURVE",
"403 233 OFFCURVE",
"408 230 OFFCURVE",
"417 230 CURVE SMOOTH",
"428 230 OFFCURVE",
"435 231 OFFCURVE",
"438 234 CURVE",
"475 423 LINE",
"473 426 OFFCURVE",
"465 428 OFFCURVE",
"454 428 CURVE SMOOTH",
"445 428 OFFCURVE",
"440 426 OFFCURVE",
"438 421 CURVE",
"432 400 OFFCURVE",
"418 372 OFFCURVE",
"412 365 CURVE",
"406 361 OFFCURVE",
"381 359 OFFCURVE",
"344 359 CURVE SMOOTH",
"308 359 LINE SMOOTH",
"279 359 OFFCURVE",
"265 361 OFFCURVE",
"266 365 CURVE SMOOTH",
"296 519 LINE SMOOTH",
"303 555 OFFCURVE",
"310 581 OFFCURVE",
"316 597 CURVE",
"319 606 OFFCURVE",
"341 610 OFFCURVE",
"383 610 CURVE SMOOTH",
"421 610 LINE SMOOTH",
"473 610 OFFCURVE",
"508 585 OFFCURVE",
"527 518 CURVE",
"528 513 OFFCURVE",
"532 511 OFFCURVE",
"539 511 CURVE SMOOTH",
"551 511 OFFCURVE",
"560 513 OFFCURVE",
"563 516 CURVE",
"562 592 OFFCURVE",
"562 656 OFFCURVE",
"563 664 CURVE",
"531 664 OFFCURVE",
"474 662 OFFCURVE",
"422 662 CURVE SMOOTH",
"329 662 OFFCURVE",
"280 659 OFFCURVE",
"256 659 CURVE SMOOTH"
);
},
{
closed = 1;
nodes = (
"363 -218 OFFCURVE",
"424 -189 OFFCURVE",
"452 -149 CURVE SMOOTH",
"456 -143 OFFCURVE",
"464 -131 OFFCURVE",
"464 -117 CURVE SMOOTH",
"464 -112 OFFCURVE",
"463 -109 OFFCURVE",
"461 -109 CURVE",
"443 -122 OFFCURVE",
"400 -142 OFFCURVE",
"375 -142 CURVE SMOOTH",
"352 -142 OFFCURVE",
"336 -130 OFFCURVE",
"340 -110 CURVE SMOOTH",
"347 -73 OFFCURVE",
"385 -35 OFFCURVE",
"456 2 CURVE",
"469 10 LINE",
"435 10 LINE",
"412 3 LINE",
"346 -16 OFFCURVE",
"249 -91 OFFCURVE",
"249 -155 CURVE SMOOTH",
"249 -194 OFFCURVE",
"279 -218 OFFCURVE",
"324 -218 CURVE SMOOTH"
);
}
);
};
color = -1;
layerId = "EE330C8E-4A1C-402A-831D-620872201BE1";
paths = (
{
closed = 1;
nodes = (
"363 -218 OFFCURVE",
"424 -189 OFFCURVE",
"452 -149 CURVE SMOOTH",
"456 -143 OFFCURVE",
"464 -131 OFFCURVE",
"464 -117 CURVE SMOOTH",
"464 -112 OFFCURVE",
"463 -109 OFFCURVE",
"461 -109 CURVE",
"443 -122 OFFCURVE",
"400 -142 OFFCURVE",
"375 -142 CURVE SMOOTH",
"352 -142 OFFCURVE",
"340 -135 OFFCURVE",
"340 -115 CURVE SMOOTH",
"340 -78 OFFCURVE",
"385 -35 OFFCURVE",
"453 -2 CURVE",
"461 21 OFFCURVE",
"490 78 OFFCURVE",
"541 170 CURVE",
"538 174 OFFCURVE",
"528 176 OFFCURVE",
"512 176 CURVE SMOOTH",
"503 176 OFFCURVE",
"499 174 OFFCURVE",
"497 170 CURVE",
"476 134 OFFCURVE",
"436 94 OFFCURVE",
"407 80 CURVE SMOOTH",
"371 63 OFFCURVE",
"331 54 OFFCURVE",
"307 54 CURVE SMOOTH",
"281 54 LINE SMOOTH",
"239 54 OFFCURVE",
"217 59 OFFCURVE",
"216 70 CURVE SMOOTH",
"215 85 OFFCURVE",
"216 109 OFFCURVE",
"222 141 CURVE SMOOTH",
"252 295 LINE SMOOTH",
"253 301 OFFCURVE",
"278 304 OFFCURVE",
"326 304 CURVE SMOOTH",
"366 304 OFFCURVE",
"389 299 OFFCURVE",
"395 286 CURVE SMOOTH",
"398 279 OFFCURVE",
"402 256 OFFCURVE",
"402 238 CURVE",
"403 233 OFFCURVE",
"408 230 OFFCURVE",
"417 230 CURVE SMOOTH",
"428 230 OFFCURVE",
"435 231 OFFCURVE",
"438 234 CURVE",
"475 423 LINE",
"473 426 OFFCURVE",
"465 428 OFFCURVE",
"454 428 CURVE SMOOTH",
"445 428 OFFCURVE",
"440 426 OFFCURVE",
"438 421 CURVE",
"432 400 OFFCURVE",
"418 372 OFFCURVE",
"412 365 CURVE",
"406 361 OFFCURVE",
"381 359 OFFCURVE",
"344 359 CURVE SMOOTH",
"308 359 LINE SMOOTH",
"279 359 OFFCURVE",
"265 361 OFFCURVE",
"266 365 CURVE",
"296 519 LINE SMOOTH",
"303 555 OFFCURVE",
"310 581 OFFCURVE",
"316 597 CURVE",
"319 606 OFFCURVE",
"341 610 OFFCURVE",
"383 610 CURVE SMOOTH",
"421 610 LINE SMOOTH",
"473 610 OFFCURVE",
"508 585 OFFCURVE",
"527 518 CURVE",
"528 513 OFFCURVE",
"532 511 OFFCURVE",
"539 511 CURVE SMOOTH",
"551 511 OFFCURVE",
"560 513 OFFCURVE",
"563 516 CURVE",
"562 592 OFFCURVE",
"562 656 OFFCURVE",
"563 664 CURVE",
"531 664 OFFCURVE",
"474 662 OFFCURVE",
"422 662 CURVE SMOOTH",
"329 662 OFFCURVE",
"280 659 OFFCURVE",
"256 659 CURVE SMOOTH",
"221 659 OFFCURVE",
"172 661 OFFCURVE",
"120 664 CURVE",
"118 662 OFFCURVE",
"115 656 OFFCURVE",
"113 645 CURVE SMOOTH",
"111 633 OFFCURVE",
"111 627 OFFCURVE",
"114 627 CURVE SMOOTH",
"132 627 OFFCURVE",
"174 608 OFFCURVE",
"175 599 CURVE",
"176 584 OFFCURVE",
"173 558 OFFCURVE",
"166 521 CURVE SMOOTH",
"93 143 LINE SMOOTH",
"85 100 OFFCURVE",
"76 70 OFFCURVE",
"70 55 CURVE",
"65 47 OFFCURVE",
"20 33 OFFCURVE",
"-1 33 CURVE SMOOTH",
"-4 33 OFFCURVE",
"-6 26 OFFCURVE",
"-9 13 CURVE SMOOTH",
"-11 4 OFFCURVE",
"-10 -1 OFFCURVE",
"-8 -4 CURVE",
"129 2 LINE",
"175 2 OFFCURVE",
"235 1 OFFCURVE",
"309 0 CURVE SMOOTH",
"352 -1 OFFCURVE",
"393 -1 OFFCURVE",
"422 -3 CURVE",
"422 5 LINE",
"358 -7 OFFCURVE",
"249 -87 OFFCURVE",
"249 -155 CURVE SMOOTH",
"249 -194 OFFCURVE",
"279 -218 OFFCURVE",
"324 -218 CURVE SMOOTH"
);
}
);
width = 581;
}
);
leftMetricsKey = E;
widthMetricsKey = E;
note = Eogonek;
unicode = 0118;
},
{
color = 3;
glyphname = F;
lastChange = "2019-01-08 22:46:28 +0000";
layers = (
{
anchors = (
{
name = bottom;
position = "{225, 0}";
},
{
name = top;
position = "{353, 658}";
}
);
background = {
paths = (
{
closed = 1;
nodes = (
"135 2 OFFCURVE",
"174 0 OFFCURVE",
"236 -3 CURVE",
"240 1 OFFCURVE",
"242 7 OFFCURVE",
"242 16 CURVE SMOOTH",
"242 21 OFFCURVE",
"241 24 OFFCURVE",
"240 24 CURVE",
"223 26 LINE SMOOTH",
"200 29 OFFCURVE",
"172 38 OFFCURVE",
"172 49 CURVE SMOOTH",
"172 75 OFFCURVE",
"175 101 OFFCURVE",
"180 128 CURVE SMOOTH",
"214 300 LINE SMOOTH",
"215 306 OFFCURVE",
"238 309 OFFCURVE",
"282 309 CURVE SMOOTH",
"340 309 OFFCURVE",
"372 306 OFFCURVE",
"379 301 CURVE SMOOTH",
"391 291 OFFCURVE",
"393 270 OFFCURVE",
"394 238 CURVE",
"395 233 OFFCURVE",
"399 230 OFFCURVE",
"408 230 CURVE SMOOTH",
"413 230 OFFCURVE",
"418 231 OFFCURVE",
"422 234 CURVE",
"459 426 LINE",
"457 429 OFFCURVE",
"452 431 OFFCURVE",
"444 431 CURVE SMOOTH",
"437 431 OFFCURVE",
"432 429 OFFCURVE",
"430 424 CURVE SMOOTH",
"399 355 OFFCURVE",
"397 353 OFFCURVE",
"309 353 CURVE SMOOTH",
"264 353 LINE SMOOTH",
"246 353 OFFCURVE",
"227 353 OFFCURVE",
"227 361 CURVE",
"259 536 LINE SMOOTH",
"264 561 OFFCURVE",
"270 583 OFFCURVE",
"277 603 CURVE SMOOTH",
"280 612 OFFCURVE",
"306 616 OFFCURVE",
"353 616 CURVE SMOOTH",
"407 616 LINE SMOOTH",
"474 616 OFFCURVE",
"502 605 OFFCURVE",
"506 530 CURVE",
"506 525 OFFCURVE",
"510 523 OFFCURVE",
"518 523 CURVE SMOOTH",
"527 523 OFFCURVE",
"533 525 OFFCURVE",
"536 528 CURVE",
"536 539 OFFCURVE",
"536 555 OFFCURVE",
"535 576 CURVE SMOOTH",
"534 597 OFFCURVE",
"534 614 OFFCURVE",
"534 625 CURVE SMOOTH",
"534 642 OFFCURVE",
"534 655 OFFCURVE",
"535 664 CURVE",
"500 664 OFFCURVE",
"449 663 OFFCURVE",
"383 660 CURVE SMOOTH",
"317 657 OFFCURVE",
"271 656 OFFCURVE",
"244 656 CURVE SMOOTH",
"203 656 OFFCURVE",
"168 657 OFFCURVE",
"137 658 CURVE",
"132 653 OFFCURVE",
"130 646 OFFCURVE",
"130 635 CURVE SMOOTH",
"130 632 OFFCURVE",
"131 631 OFFCURVE",
"132 631 CURVE SMOOTH",
"147 631 OFFCURVE",
"187 618 OFFCURVE",
"188 607 CURVE SMOOTH",
"189 592 OFFCURVE",
"186 561 OFFCURVE",
"177 514 CURVE SMOOTH",
"105 142 LINE SMOOTH",
"97 99 OFFCURVE",
"88 68 OFFCURVE",
"79 49 CURVE SMOOTH",
"74 37 OFFCURVE",
"27 24 OFFCURVE",
"12 24 CURVE SMOOTH",
"9 24 OFFCURVE",
"7 18 OFFCURVE",
"7 5 CURVE SMOOTH",
"7 0 OFFCURVE",
"7 -2 OFFCURVE",
"8 -3 CURVE",
"82 0 OFFCURVE",
"119 2 OFFCURVE",
"119 2 CURVE"
);
}
);
};
color = -1;
layerId = "02396921-8257-42A3-8ED5-3052446F9CE3";
paths = (
{
closed = 1;
nodes = (
"38 0 OFFCURVE",
"78 2 OFFCURVE",
"115 2 CURVE SMOOTH",
"126 2 OFFCURVE",
"164 0 OFFCURVE",
"230 -3 CURVE",
"232 1 OFFCURVE",
"234 6 OFFCURVE",
"235 11 CURVE SMOOTH",
"237 21 OFFCURVE",
"237 26 OFFCURVE",
"234 26 CURVE SMOOTH",
"214 26 OFFCURVE",
"174 39 OFFCURVE",
"174 46 CURVE SMOOTH",
"174 69 OFFCURVE",
"176 100 OFFCURVE",
"183 139 CURVE SMOOTH",
"213 297 LINE SMOOTH",
"214 303 OFFCURVE",
"239 306 OFFCURVE",
"286 306 CURVE SMOOTH",
"331 306 OFFCURVE",
"366 303 OFFCURVE",
"374 298 CURVE SMOOTH",
"384 292 OFFCURVE",
"386 274 OFFCURVE",
"389 235 CURVE",
"390 230 OFFCURVE",
"395 227 OFFCURVE",
"404 227 CURVE SMOOTH",
"412 227 OFFCURVE",
"417 228 OFFCURVE",
"421 231 CURVE",
"458 425 LINE",
"456 428 OFFCURVE",
"450 430 OFFCURVE",
"442 430 CURVE SMOOTH",
"433 430 OFFCURVE",
"428 428 OFFCURVE",
"426 423 CURVE",
"408 383 OFFCURVE",
"398 367 OFFCURVE",
"387 360 CURVE SMOOTH",
"377 354 OFFCURVE",
"348 350 OFFCURVE",
"322 350 CURVE SMOOTH",
"266 350 LINE SMOOTH",
"238 350 OFFCURVE",
"224 352 OFFCURVE",
"225 356 CURVE SMOOTH",
"257 519 LINE SMOOTH",
"265 559 OFFCURVE",
"272 587 OFFCURVE",
"278 603 CURVE",
"281 612 OFFCURVE",
"311 616 OFFCURVE",
"368 616 CURVE SMOOTH",
"418 616 LINE SMOOTH",
"489 616 OFFCURVE",
"513 596 OFFCURVE",
"518 530 CURVE",
"518 525 OFFCURVE",
"521 523 OFFCURVE",
"530 523 CURVE SMOOTH",
"539 523 OFFCURVE",
"546 525 OFFCURVE",
"549 528 CURVE",
"550 546 OFFCURVE",
"544 621 OFFCURVE",
"547 664 CURVE",
"510 664 OFFCURVE",
"454 663 OFFCURVE",
"399 660 CURVE SMOOTH",
"324 656 OFFCURVE",
"269 656 OFFCURVE",
"239 656 CURVE SMOOTH",
"200 656 OFFCURVE",
"161 657 OFFCURVE",
"127 658 CURVE",
"123 655 OFFCURVE",
"121 650 OFFCURVE",
"119 641 CURVE SMOOTH",
"117 633 OFFCURVE",
"118 629 OFFCURVE",
"121 629 CURVE SMOOTH",
"147 629 OFFCURVE",
"184 617 OFFCURVE",
"186 607 CURVE",
"187 589 OFFCURVE",
"184 560 OFFCURVE",
"176 521 CURVE SMOOTH",
"101 136 LINE SMOOTH",
"93 94 OFFCURVE",
"85 64 OFFCURVE",
"77 46 CURVE",
"72 38 OFFCURVE",
"30 26 OFFCURVE",
"6 26 CURVE SMOOTH",
"3 26 OFFCURVE",
"2 21 OFFCURVE",
"-1 12 CURVE SMOOTH",
"-3 5 OFFCURVE",
"-2 0 OFFCURVE",
"0 -3 CURVE"
);
}
);
width = 515;
},
{
anchors = (
{
name = bottom;
position = "{229, 0}";
},
{
name = top;
position = "{357, 658}";
}
);
background = {
paths = (
{
closed = 1;
nodes = (
"149 3 OFFCURVE",
"202 1 OFFCURVE",
"289 -4 CURVE",
"290 -2 OFFCURVE",
"292 4 OFFCURVE",
"294 14 CURVE SMOOTH",
"296 25 OFFCURVE",
"296 30 OFFCURVE",
"293 30 CURVE SMOOTH",
"270 30 OFFCURVE",
"210 35 OFFCURVE",
"210 74 CURVE SMOOTH",
"210 89 OFFCURVE",
"213 111 OFFCURVE",
"219 141 CURVE SMOOTH",
"248 295 LINE SMOOTH",
"249 301 OFFCURVE",
"272 304 OFFCURVE",
"317 304 CURVE SMOOTH",
"359 304 OFFCURVE",
"384 300 OFFCURVE",
"392 292 CURVE SMOOTH",
"398 286 OFFCURVE",
"402 268 OFFCURVE",
"403 238 CURVE",
"404 233 OFFCURVE",
"409 230 OFFCURVE",
"416 230 CURVE SMOOTH",
"427 230 OFFCURVE",
"434 231 OFFCURVE",
"437 234 CURVE",
"473 423 LINE",
"471 426 OFFCURVE",
"465 428 OFFCURVE",
"454 428 CURVE SMOOTH",
"445 428 OFFCURVE",
"440 426 OFFCURVE",
"438 421 CURVE SMOOTH",
"425 391 OFFCURVE",
"415 373 OFFCURVE",
"410 368 CURVE SMOOTH",
"405 362 OFFCURVE",
"395 359 OFFCURVE",
"380 359 CURVE SMOOTH",
"301 359 LINE SMOOTH",
"289 359 OFFCURVE",
"279 360 OFFCURVE",
"272 361 CURVE SMOOTH",
"265 362 OFFCURVE",
"261 363 OFFCURVE",
"262 365 CURVE",
"292 519 LINE SMOOTH",
"297 549 OFFCURVE",
"304 575 OFFCURVE",
"312 597 CURVE SMOOTH",
"314 602 OFFCURVE",
"320 606 OFFCURVE",
"329 608 CURVE SMOOTH",
"338 609 OFFCURVE",
"354 610 OFFCURVE",
"375 610 CURVE SMOOTH",
"410 610 LINE SMOOTH",
"458 610 OFFCURVE",
"507 569 OFFCURVE",
"522 518 CURVE",
"523 513 OFFCURVE",
"527 511 OFFCURVE",
"534 511 CURVE SMOOTH",
"545 511 OFFCURVE",
"553 513 OFFCURVE",
"556 516 CURVE",
"556 573 LINE SMOOTH",
"556 614 OFFCURVE",
"557 644 OFFCURVE",
"558 664 CURVE",
"522 664 OFFCURVE",
"472 663 OFFCURVE",
"408 662 CURVE SMOOTH",
"343 660 OFFCURVE",
"293 659 OFFCURVE",
"258 659 CURVE SMOOTH",
"224 659 OFFCURVE",
"180 660 OFFCURVE",
"127 662 CURVE",
"122 657 OFFCURVE",
"120 648 OFFCURVE",
"120 635 CURVE SMOOTH",
"120 630 OFFCURVE",
"121 628 OFFCURVE",
"122 628 CURVE SMOOTH",
"134 628 OFFCURVE",
"172 610 OFFCURVE",
"173 599 CURVE",
"174 590 OFFCURVE",
"170 564 OFFCURVE",
"163 521 CURVE SMOOTH",
"90 143 LINE SMOOTH",
"81 98 OFFCURVE",
"73 69 OFFCURVE",
"65 55 CURVE SMOOTH",
"58 43 OFFCURVE",
"19 30 OFFCURVE",
"6 30 CURVE SMOOTH",
"2 30 OFFCURVE",
"-2 12 OFFCURVE",
"-2 5 CURVE SMOOTH",
"-2 0 OFFCURVE",
"-1 -3 OFFCURVE",
"0 -4 CURVE",
"34 -2 OFFCURVE",
"96 3 OFFCURVE",
"130 3 CURVE SMOOTH"
);
}
);
};
color = -1;
layerId = "EE330C8E-4A1C-402A-831D-620872201BE1";
paths = (
{
closed = 1;
nodes = (
"42 -1 OFFCURVE",
"90 2 OFFCURVE",
"129 2 CURVE",
"151 2 OFFCURVE",
"202 0 OFFCURVE",
"281 -4 CURVE",
"283 0 OFFCURVE",
"285 6 OFFCURVE",
"287 14 CURVE SMOOTH",
"289 27 OFFCURVE",
"289 33 OFFCURVE",
"286 33 CURVE SMOOTH",
"254 33 OFFCURVE",
"214 47 OFFCURVE",
"213 59 CURVE SMOOTH",
"212 80 OFFCURVE",
"216 107 OFFCURVE",
"222 141 CURVE SMOOTH",
"252 295 LINE SMOOTH",
"253 301 OFFCURVE",
"258 304 OFFCURVE",
"306 304 CURVE SMOOTH",
"352 304 OFFCURVE",
"385 303 OFFCURVE",
"392 286 CURVE SMOOTH",
"394 281 OFFCURVE",
"397 264 OFFCURVE",
"399 238 CURVE",
"400 233 OFFCURVE",
"405 230 OFFCURVE",
"414 230 CURVE SMOOTH",
"425 230 OFFCURVE",
"432 231 OFFCURVE",
"435 234 CURVE",
"472 423 LINE",
"470 426 OFFCURVE",
"462 428 OFFCURVE",
"451 428 CURVE SMOOTH",
"442 428 OFFCURVE",
"437 426 OFFCURVE",
"434 421 CURVE",
"427 400 OFFCURVE",
"416 368 OFFCURVE",
"410 364 CURVE SMOOTH",
"405 361 OFFCURVE",
"382 359 OFFCURVE",
"341 359 CURVE SMOOTH",
"308 359 LINE SMOOTH",
"279 359 OFFCURVE",
"265 361 OFFCURVE",
"266 365 CURVE SMOOTH",
"296 519 LINE SMOOTH",
"303 555 OFFCURVE",
"310 581 OFFCURVE",
"316 597 CURVE",
"319 606 OFFCURVE",
"341 610 OFFCURVE",
"383 610 CURVE SMOOTH",
"401 610 LINE SMOOTH",
"476 610 OFFCURVE",
"505 581 OFFCURVE",
"524 518 CURVE",
"525 513 OFFCURVE",
"529 511 OFFCURVE",
"536 511 CURVE SMOOTH",
"548 511 OFFCURVE",
"557 513 OFFCURVE",
"560 516 CURVE",
"559 608 OFFCURVE",
"560 657 OFFCURVE",
"560 664 CURVE",
"525 664 OFFCURVE",
"474 663 OFFCURVE",
"405 662 CURVE SMOOTH",
"335 661 OFFCURVE",
"299 659 OFFCURVE",
"256 659 CURVE SMOOTH",
"218 659 OFFCURVE",
"179 661 OFFCURVE",
"120 664 CURVE",
"118 662 OFFCURVE",
"115 656 OFFCURVE",
"113 645 CURVE SMOOTH",
"111 633 OFFCURVE",
"111 627 OFFCURVE",
"114 627 CURVE SMOOTH",
"132 627 OFFCURVE",
"174 608 OFFCURVE",
"175 599 CURVE",
"176 584 OFFCURVE",
"173 558 OFFCURVE",
"166 521 CURVE SMOOTH",
"93 143 LINE SMOOTH",
"85 100 OFFCURVE",
"76 70 OFFCURVE",
"70 55 CURVE",
"65 47 OFFCURVE",
"20 33 OFFCURVE",
"-1 33 CURVE SMOOTH",
"-4 33 OFFCURVE",
"-6 26 OFFCURVE",
"-9 13 CURVE SMOOTH",
"-11 4 OFFCURVE",
"-10 -1 OFFCURVE",
"-8 -4 CURVE"
);
}
);
width = 534;
}
);
note = F;
unicode = 0046;
},
{
color = 3;
glyphname = G;
lastChange = "2019-01-08 22:46:28 +0000";
layers = (
{
anchors = (
{
name = bottom;
position = "{304, 0}";
},
{
name = top;
position = "{432, 658}";
}
);
background = {
paths = (
{
closed = 1;
nodes = (
"1210 667 OFFCURVE",
"1082 574 OFFCURVE",
"1014 447 CURVE SMOOTH",
"980 383 OFFCURVE",
"963 319 OFFCURVE",
"963 254 CURVE SMOOTH",
"963 106 OFFCURVE",
"1061 -6 OFFCURVE",
"1202 -6 CURVE SMOOTH",
"1264 -6 OFFCURVE",
"1300 0 OFFCURVE",
"1351 10 CURVE SMOOTH",
"1366 13 OFFCURVE",
"1432 35 OFFCURVE",
"1443 41 CURVE",
"1459 47 OFFCURVE",
"1466 52 OFFCURVE",
"1466 63 CURVE SMOOTH",
"1466 65 OFFCURVE",
"1466 69 OFFCURVE",
"1465 75 CURVE SMOOTH",
"1464 80 OFFCURVE",
"1464 85 OFFCURVE",
"1464 90 CURVE SMOOTH",
"1464 91 OFFCURVE",
"1465 92 OFFCURVE",
"1465 94 CURVE SMOOTH",
"1465 95 OFFCURVE",
"1465 96 OFFCURVE",
"1465 97 CURVE",
"1489 236 LINE SMOOTH",
"1493 261 OFFCURVE",
"1540 274 OFFCURVE",
"1563 274 CURVE SMOOTH",
"1567 274 OFFCURVE",
"1569 283 OFFCURVE",
"1569 301 CURVE",
"1506 298 OFFCURVE",
"1469 296 OFFCURVE",
"1460 296 CURVE SMOOTH",
"1459 296 OFFCURVE",
"1423 298 OFFCURVE",
"1351 301 CURVE",
"1346 296 OFFCURVE",
"1343 288 OFFCURVE",
"1343 279 CURVE SMOOTH",
"1343 276 OFFCURVE",
"1344 274 OFFCURVE",
"1345 274 CURVE SMOOTH",
"1362 274 OFFCURVE",
"1414 260 OFFCURVE",
"1414 248 CURVE SMOOTH",
"1414 240 OFFCURVE",
"1412 229 OFFCURVE",
"1411 222 CURVE",
"1410 218 LINE",
"1382 76 LINE SMOOTH",
"1380 67 OFFCURVE",
"1376 62 OFFCURVE",
"1371 59 CURVE SMOOTH",
"1343 42 OFFCURVE",
"1301 37 OFFCURVE",
"1246 37 CURVE SMOOTH",
"1129 37 OFFCURVE",
"1058 145 OFFCURVE",
"1058 273 CURVE SMOOTH",
"1058 380 OFFCURVE",
"1111 498 OFFCURVE",
"1199 571 CURVE SMOOTH",
"1242 607 OFFCURVE",
"1288 625 OFFCURVE",
"1337 625 CURVE SMOOTH",
"1398 625 OFFCURVE",
"1444 607 OFFCURVE",
"1465 586 CURVE SMOOTH",
"1485 566 OFFCURVE",
"1497 539 OFFCURVE",
"1500 488 CURVE",
"1501 485 OFFCURVE",
"1505 483 OFFCURVE",
"1511 483 CURVE SMOOTH",
"1526 483 OFFCURVE",
"1533 486 OFFCURVE",
"1534 492 CURVE",
"1538 513 OFFCURVE",
"1545 556 OFFCURVE",
"1555 622 CURVE",
"1458 652 OFFCURVE",
"1387 667 OFFCURVE",
"1342 667 CURVE SMOOTH"
);
},
{
closed = 1;
nodes = (
"397 -6 OFFCURVE",
"479 9 OFFCURVE",
"533 38 CURVE",
"542 42 OFFCURVE",
"592 168 OFFCURVE",
"595 183 CURVE",
"587 188 OFFCURVE",
"578 192 OFFCURVE",
"561 192 CURVE",
"540 144 OFFCURVE",
"514 107 OFFCURVE",
"480 81 CURVE SMOOTH",
"441 51 OFFCURVE",
"392 37 OFFCURVE",
"352 37 CURVE SMOOTH",
"229 37 OFFCURVE",
"159 127 OFFCURVE",
"159 258 CURVE SMOOTH",
"159 442 OFFCURVE",
"284 625 OFFCURVE",
"452 625 CURVE SMOOTH",
"537 625 OFFCURVE",
"590 587 OFFCURVE",
"599 485 CURVE",
"604 482 OFFCURVE",
"628 485 OFFCURVE",
"634 491 CURVE",
"637 505 OFFCURVE",
"647 553 OFFCURVE",
"666 642 CURVE",
"586 659 OFFCURVE",
"513 667 OFFCURVE",
"472 667 CURVE SMOOTH",
"247 667 OFFCURVE",
"65 475 OFFCURVE",
"65 253 CURVE SMOOTH",
"65 98 OFFCURVE",
"176 -6 OFFCURVE",
"343 -6 CURVE SMOOTH"
);
}
);
};
color = -1;
layerId = "02396921-8257-42A3-8ED5-3052446F9CE3";
paths = (
{
closed = 1;
nodes = (
"384 -6 OFFCURVE",
"463 4 OFFCURVE",
"545 39 CURVE",
"564 48 OFFCURVE",
"574 54 OFFCURVE",
"574 59 CURVE SMOOTH",
"574 61 OFFCURVE",
"574 68 OFFCURVE",
"571 79 CURVE SMOOTH",
"569 94 OFFCURVE",
"569 106 OFFCURVE",
"571 122 CURVE SMOOTH",
"582 186 LINE SMOOTH",
"589 226 OFFCURVE",
"597 248 OFFCURVE",
"605 253 CURVE",
"618 260 OFFCURVE",
"658 271 OFFCURVE",
"685 271 CURVE SMOOTH",
"688 271 OFFCURVE",
"690 276 OFFCURVE",
"692 286 CURVE SMOOTH",
"693 291 OFFCURVE",
"693 296 OFFCURVE",
"693 300 CURVE",
"606 297 OFFCURVE",
"570 295 OFFCURVE",
"555 295 CURVE SMOOTH",
"523 295 OFFCURVE",
"479 297 OFFCURVE",
"435 300 CURVE",
"432 298 OFFCURVE",
"427 287 OFFCURVE",
"427 275 CURVE SMOOTH",
"427 272 OFFCURVE",
"427 271 OFFCURVE",
"429 271 CURVE SMOOTH",
"450 271 OFFCURVE",
"500 262 OFFCURVE",
"502 249 CURVE SMOOTH",
"504 235 OFFCURVE",
"501 206 OFFCURVE",
"493 163 CURVE SMOOTH",
"477 74 LINE SMOOTH",
"476 66 OFFCURVE",
"473 61 OFFCURVE",
"467 59 CURVE",
"436 44 OFFCURVE",
"392 37 OFFCURVE",
"352 37 CURVE SMOOTH",
"229 37 OFFCURVE",
"159 127 OFFCURVE",
"159 258 CURVE SMOOTH",
"159 442 OFFCURVE",
"284 625 OFFCURVE",
"452 625 CURVE SMOOTH",
"537 625 OFFCURVE",
"590 587 OFFCURVE",
"598 486 CURVE",
"606 482 OFFCURVE",
"628 485 OFFCURVE",
"634 491 CURVE",
"637 505 OFFCURVE",
"647 553 OFFCURVE",
"666 642 CURVE",
"586 659 OFFCURVE",
"516 667 OFFCURVE",
"473 667 CURVE SMOOTH",
"247 667 OFFCURVE",
"65 475 OFFCURVE",
"65 253 CURVE SMOOTH",
"65 98 OFFCURVE",
"176 -6 OFFCURVE",
"339 -6 CURVE SMOOTH"
);
}
);
width = 709;
},
{
anchors = (
{
name = bottom;
position = "{310, 0}";
},
{
name = top;
position = "{438, 658}";
}
);
background = {
paths = (
{
closed = 1;
nodes = (
"26 124 OFFCURVE",
"151 -7 OFFCURVE",
"341 -7 CURVE SMOOTH",
"397 -7 OFFCURVE",
"484 16 OFFCURVE",
"548 48 CURVE SMOOTH",
"564 56 OFFCURVE",
"575 65 OFFCURVE",
"575 76 CURVE SMOOTH",
"575 77 OFFCURVE",
"575 81 OFFCURVE",
"574 87 CURVE SMOOTH",
"573 93 OFFCURVE",
"574 102 OFFCURVE",
"576 114 CURVE SMOOTH",
"587 172 LINE SMOOTH",
"596 219 OFFCURVE",
"607 246 OFFCURVE",
"619 251 CURVE SMOOTH",
"641 260 OFFCURVE",
"660 266 OFFCURVE",
"675 266 CURVE SMOOTH",
"678 266 OFFCURVE",
"680 272 OFFCURVE",
"682 284 CURVE SMOOTH",
"683 291 OFFCURVE",
"684 298 OFFCURVE",
"683 304 CURVE",
"602 300 OFFCURVE",
"557 298 OFFCURVE",
"547 298 CURVE SMOOTH",
"517 298 OFFCURVE",
"435 302 OFFCURVE",
"399 304 CURVE",
"397 302 OFFCURVE",
"393 294 OFFCURVE",
"391 286 CURVE SMOOTH",
"389 276 OFFCURVE",
"390 267 OFFCURVE",
"393 267 CURVE SMOOTH",
"432 267 OFFCURVE",
"452 258 OFFCURVE",
"454 240 CURVE SMOOTH",
"456 223 OFFCURVE",
"453 197 OFFCURVE",
"446 163 CURVE SMOOTH",
"432 93 LINE SMOOTH",
"429 79 OFFCURVE",
"423 69 OFFCURVE",
"415 63 CURVE SMOOTH",
"400 52 OFFCURVE",
"377 47 OFFCURVE",
"358 47 CURVE SMOOTH",
"242 47 OFFCURVE",
"181 165 OFFCURVE",
"214 345 CURVE SMOOTH",
"246 522 OFFCURVE",
"348 611 OFFCURVE",
"457 611 CURVE SMOOTH",
"534 611 OFFCURVE",
"594 567 OFFCURVE",
"602 478 CURVE",
"608 475 OFFCURVE",
"634 476 OFFCURVE",
"646 481 CURVE",
"654 518 OFFCURVE",
"659 598 OFFCURVE",
"655 638 CURVE",
"590 657 OFFCURVE",
"519 667 OFFCURVE",
"473 667 CURVE SMOOTH",
"293 667 OFFCURVE",
"105 526 OFFCURVE",
"65 322 CURVE SMOOTH"
);
}
);
};
color = -1;
layerId = "EE330C8E-4A1C-402A-831D-620872201BE1";
paths = (
{
closed = 1;
nodes = (
"397 -7 OFFCURVE",
"484 16 OFFCURVE",
"548 48 CURVE SMOOTH",
"564 56 OFFCURVE",
"575 65 OFFCURVE",
"575 76 CURVE SMOOTH",
"575 77 OFFCURVE",
"575 81 OFFCURVE",
"574 87 CURVE SMOOTH",
"573 93 OFFCURVE",
"574 102 OFFCURVE",
"576 114 CURVE SMOOTH",
"587 172 LINE SMOOTH",
"596 219 OFFCURVE",
"607 246 OFFCURVE",
"619 251 CURVE SMOOTH",
"641 260 OFFCURVE",
"660 266 OFFCURVE",
"675 266 CURVE SMOOTH",
"678 266 OFFCURVE",
"680 272 OFFCURVE",
"682 284 CURVE SMOOTH",
"683 291 OFFCURVE",
"684 298 OFFCURVE",
"683 304 CURVE",
"602 300 OFFCURVE",
"557 298 OFFCURVE",
"547 298 CURVE SMOOTH",
"517 298 OFFCURVE",
"435 302 OFFCURVE",
"399 304 CURVE",
"397 302 OFFCURVE",
"393 294 OFFCURVE",
"391 286 CURVE SMOOTH",
"389 276 OFFCURVE",
"390 267 OFFCURVE",
"393 267 CURVE SMOOTH",
"432 267 OFFCURVE",
"452 258 OFFCURVE",
"454 240 CURVE SMOOTH",
"456 223 OFFCURVE",
"453 197 OFFCURVE",
"446 163 CURVE SMOOTH",
"432 93 LINE SMOOTH",
"429 79 OFFCURVE",
"423 69 OFFCURVE",
"415 63 CURVE SMOOTH",
"400 52 OFFCURVE",
"377 47 OFFCURVE",
"358 47 CURVE SMOOTH",
"263 47 OFFCURVE",
"205 126 OFFCURVE",
"205 253 CURVE SMOOTH",
"205 422 OFFCURVE",
"292 611 OFFCURVE",
"457 611 CURVE SMOOTH",
"534 611 OFFCURVE",
"594 567 OFFCURVE",
"602 478 CURVE",
"608 475 OFFCURVE",
"634 476 OFFCURVE",
"646 481 CURVE",
"654 518 OFFCURVE",
"659 598 OFFCURVE",
"655 638 CURVE",
"590 657 OFFCURVE",
"519 667 OFFCURVE",
"473 667 CURVE SMOOTH",
"258 667 OFFCURVE",
"58 473 OFFCURVE",
"58 252 CURVE SMOOTH",
"58 94 OFFCURVE",
"174 -7 OFFCURVE",
"341 -7 CURVE SMOOTH"
);
}
);
width = 703;
}
);
leftMetricsKey = O;
note = G;
unicode = 0047;
},
{
color = 3;
glyphname = H;
lastChange = "2019-01-08 20:14:28 +0000";
layers = (
{
anchors = (
{
name = bottom;
position = "{287, 0}";
},
{
name = stroke;
position = "{385, 499}";
},
{
name = top;
position = "{415, 658}";
},
{
name = topleft;
position = "{81, 658}";
}
);
background = {
paths = (
{
closed = 1;
nodes = (
"317 365 OFFCURVE",
"276 366 OFFCURVE",
"259 367 CURVE SMOOTH",
"241 368 OFFCURVE",
"232 370 OFFCURVE",
"232 373 CURVE SMOOTH",
"232 374 LINE",
"257 515 LINE SMOOTH",
"264 552 OFFCURVE",
"272 583 OFFCURVE",
"283 608 CURVE SMOOTH",
"287 617 OFFCURVE",
"334 631 OFFCURVE",
"345 631 CURVE SMOOTH",
"350 631 OFFCURVE",
"352 639 OFFCURVE",
"352 655 CURVE SMOOTH",
"352 658 LINE",
"347 658 OFFCURVE",
"333 657 OFFCURVE",
"308 655 CURVE SMOOTH",
"283 653 OFFCURVE",
"262 652 OFFCURVE",
"246 652 CURVE SMOOTH",
"213 652 OFFCURVE",
"154 657 OFFCURVE",
"138 658 CURVE",
"133 653 OFFCURVE",
"130 645 OFFCURVE",
"130 636 CURVE SMOOTH",
"130 633 OFFCURVE",
"131 631 OFFCURVE",
"132 631 CURVE SMOOTH",
"149 631 OFFCURVE",
"188 619 OFFCURVE",
"188 604 CURVE SMOOTH",
"188 579 OFFCURVE",
"184 549 OFFCURVE",
"177 512 CURVE SMOOTH",
"106 142 LINE SMOOTH",
"98 101 OFFCURVE",
"90 69 OFFCURVE",
"80 46 CURVE SMOOTH",
"75 34 OFFCURVE",
"32 24 OFFCURVE",
"16 24 CURVE SMOOTH",
"11 24 OFFCURVE",
"9 18 OFFCURVE",
"9 5 CURVE SMOOTH",
"9 1 OFFCURVE",
"10 -2 OFFCURVE",
"11 -3 CURVE",
"83 0 OFFCURVE",
"120 2 OFFCURVE",
"121 2 CURVE SMOOTH",
"129 2 OFFCURVE",
"164 0 OFFCURVE",
"225 -3 CURVE",
"229 5 OFFCURVE",
"231 13 OFFCURVE",
"231 20 CURVE SMOOTH",
"231 23 OFFCURVE",
"230 24 OFFCURVE",
"229 24 CURVE",
"215 26 LINE SMOOTH",
"198 28 OFFCURVE",
"175 38 OFFCURVE",
"175 49 CURVE SMOOTH",
"175 72 OFFCURVE",
"179 102 OFFCURVE",
"186 139 CURVE SMOOTH",
"218 304 LINE SMOOTH",
"220 312 OFFCURVE",
"268 316 OFFCURVE",
"364 316 CURVE SMOOTH",
"424 316 OFFCURVE",
"462 316 OFFCURVE",
"478 315 CURVE SMOOTH",
"493 314 OFFCURVE",
"501 311 OFFCURVE",
"501 308 CURVE SMOOTH",
"501 307 LINE",
"469 142 LINE SMOOTH",
"461 101 OFFCURVE",
"453 69 OFFCURVE",
"443 46 CURVE SMOOTH",
"438 34 OFFCURVE",
"395 24 OFFCURVE",
"379 24 CURVE SMOOTH",
"374 24 OFFCURVE",
"372 18 OFFCURVE",
"372 5 CURVE SMOOTH",
"372 1 OFFCURVE",
"373 -2 OFFCURVE",
"374 -3 CURVE",
"445 0 OFFCURVE",
"482 2 OFFCURVE",
"484 2 CURVE SMOOTH",
"491 2 OFFCURVE",
"526 0 OFFCURVE",
"588 -3 CURVE",
"592 5 OFFCURVE",
"594 13 OFFCURVE",
"594 20 CURVE SMOOTH",
"594 23 OFFCURVE",
"593 24 OFFCURVE",
"592 24 CURVE",
"579 26 LINE SMOOTH",
"560 29 OFFCURVE",
"538 38 OFFCURVE",
"538 49 CURVE SMOOTH",
"538 72 OFFCURVE",
"542 102 OFFCURVE",
"549 139 CURVE SMOOTH",
"622 515 LINE SMOOTH",
"630 555 OFFCURVE",
"638 586 OFFCURVE",
"648 608 CURVE SMOOTH",
"652 617 OFFCURVE",
"698 631 OFFCURVE",
"709 631 CURVE SMOOTH",
"714 631 OFFCURVE",
"716 639 OFFCURVE",
"716 655 CURVE SMOOTH",
"716 658 LINE",
"712 658 OFFCURVE",
"697 657 OFFCURVE",
"672 655 CURVE SMOOTH",
"646 653 OFFCURVE",
"625 652 OFFCURVE",
"609 652 CURVE SMOOTH",
"576 652 OFFCURVE",
"517 657 OFFCURVE",
"501 658 CURVE",
"496 653 OFFCURVE",
"493 645 OFFCURVE",
"493 636 CURVE SMOOTH",
"493 633 OFFCURVE",
"494 631 OFFCURVE",
"495 631 CURVE SMOOTH",
"512 631 OFFCURVE",
"551 619 OFFCURVE",
"551 604 CURVE SMOOTH",
"551 579 OFFCURVE",
"547 549 OFFCURVE",
"540 512 CURVE SMOOTH",
"513 373 LINE",
"512 368 OFFCURVE",
"469 365 OFFCURVE",
"382 365 CURVE SMOOTH"
);
}
);
};
color = -1;
layerId = "02396921-8257-42A3-8ED5-3052446F9CE3";
paths = (
{
closed = 1;
nodes = (
"78 0 OFFCURVE",
"118 2 OFFCURVE",
"118 2 CURVE SMOOTH",
"129 2 OFFCURVE",
"164 0 OFFCURVE",
"230 -3 CURVE",
"232 2 OFFCURVE",
"234 7 OFFCURVE",
"235 10 CURVE SMOOTH",
"238 18 OFFCURVE",
"236 26 OFFCURVE",
"234 26 CURVE SMOOTH",
"214 26 OFFCURVE",
"175 39 OFFCURVE",
"174 46 CURVE SMOOTH",
"171 69 OFFCURVE",
"175 100 OFFCURVE",
"183 139 CURVE SMOOTH",
"216 309 LINE",
"221 313 LINE",
"235 316 OFFCURVE",
"279 317 OFFCURVE",
"362 317 CURVE SMOOTH",
"398 317 OFFCURVE",
"436 316 OFFCURVE",
"499 315 CURVE",
"500 311 LINE",
"466 135 LINE SMOOTH",
"458 94 OFFCURVE",
"450 64 OFFCURVE",
"442 46 CURVE",
"437 38 OFFCURVE",
"395 26 OFFCURVE",
"371 26 CURVE SMOOTH",
"368 26 OFFCURVE",
"366 22 OFFCURVE",
"365 14 CURVE SMOOTH",
"363 5 OFFCURVE",
"363 0 OFFCURVE",
"365 -3 CURVE",
"443 0 OFFCURVE",
"480 2 OFFCURVE",
"484 2 CURVE SMOOTH",
"493 2 OFFCURVE",
"528 0 OFFCURVE",
"594 -3 CURVE",
"596 1 OFFCURVE",
"598 6 OFFCURVE",
"599 11 CURVE SMOOTH",
"601 21 OFFCURVE",
"601 26 OFFCURVE",
"598 26 CURVE SMOOTH",
"578 26 OFFCURVE",
"539 39 OFFCURVE",
"538 46 CURVE SMOOTH",
"535 67 OFFCURVE",
"540 98 OFFCURVE",
"548 139 CURVE SMOOTH",
"622 519 LINE SMOOTH",
"630 560 OFFCURVE",
"639 591 OFFCURVE",
"648 612 CURVE",
"651 619 OFFCURVE",
"696 633 OFFCURVE",
"716 633 CURVE SMOOTH",
"719 633 OFFCURVE",
"721 638 OFFCURVE",
"723 647 CURVE SMOOTH",
"724 653 OFFCURVE",
"724 658 OFFCURVE",
"724 662 CURVE",
"681 659 OFFCURVE",
"630 656 OFFCURVE",
"611 656 CURVE SMOOTH",
"586 656 OFFCURVE",
"526 659 OFFCURVE",
"495 662 CURVE",
"491 659 OFFCURVE",
"489 654 OFFCURVE",
"488 646 CURVE SMOOTH",
"486 637 OFFCURVE",
"486 633 OFFCURVE",
"489 633 CURVE SMOOTH",
"512 633 OFFCURVE",
"550 620 OFFCURVE",
"552 612 CURVE",
"553 594 OFFCURVE",
"550 564 OFFCURVE",
"542 523 CURVE SMOOTH",
"512 371 LINE",
"509 367 LINE",
"449 366 OFFCURVE",
"410 365 OFFCURVE",
"371 365 CURVE SMOOTH",
"335 365 OFFCURVE",
"294 366 OFFCURVE",
"229 367 CURVE",
"228 370 LINE",
"257 519 LINE SMOOTH",
"265 558 OFFCURVE",
"274 590 OFFCURVE",
"284 613 CURVE",
"287 620 OFFCURVE",
"332 633 OFFCURVE",
"352 633 CURVE SMOOTH",
"354 633 OFFCURVE",
"358 642 OFFCURVE",
"359 649 CURVE SMOOTH",
"360 654 OFFCURVE",
"360 660 OFFCURVE",
"360 662 CURVE",
"292 658 OFFCURVE",
"259 656 OFFCURVE",
"245 656 CURVE SMOOTH",
"228 656 OFFCURVE",
"177 659 OFFCURVE",
"130 662 CURVE",
"126 659 OFFCURVE",
"124 654 OFFCURVE",
"123 646 CURVE SMOOTH",
"122 637 OFFCURVE",
"121 633 OFFCURVE",
"124 633 CURVE SMOOTH",
"147 633 OFFCURVE",
"185 620 OFFCURVE",
"187 612 CURVE",
"188 594 OFFCURVE",
"185 564 OFFCURVE",
"177 523 CURVE SMOOTH",
"101 135 LINE SMOOTH",
"93 94 OFFCURVE",
"85 64 OFFCURVE",
"77 46 CURVE",
"72 38 OFFCURVE",
"30 26 OFFCURVE",
"6 26 CURVE SMOOTH",
"3 26 OFFCURVE",
"2 21 OFFCURVE",
"-1 12 CURVE SMOOTH",
"-3 5 OFFCURVE",
"-2 0 OFFCURVE",
"0 -3 CURVE"
);
}
);
width = 680;
},
{
anchors = (
{
name = bottom;
position = "{308, 0}";
},
{
name = stroke;
position = "{403, 499}";
},
{
name = top;
position = "{436, 658}";
},
{
name = topleft;
position = "{101, 658}";
}
);
background = {
paths = (
{
closed = 1;
nodes = (
"348 369 OFFCURVE",
"296 370 OFFCURVE",
"286 371 CURVE SMOOTH",
"277 371 OFFCURVE",
"268 373 OFFCURVE",
"268 376 CURVE SMOOTH",
"268 378 LINE",
"295 519 LINE SMOOTH",
"298 534 OFFCURVE",
"311 591 OFFCURVE",
"319 604 CURVE SMOOTH",
"324 613 OFFCURVE",
"367 628 OFFCURVE",
"378 628 CURVE SMOOTH",
"382 628 OFFCURVE",
"386 646 OFFCURVE",
"386 657 CURVE SMOOTH",
"386 662 LINE",
"310 658 OFFCURVE",
"266 656 OFFCURVE",
"254 656 CURVE SMOOTH",
"229 656 OFFCURVE",
"161 660 OFFCURVE",
"132 662 CURVE",
"128 658 OFFCURVE",
"126 648 OFFCURVE",
"126 632 CURVE SMOOTH",
"126 629 OFFCURVE",
"126 628 OFFCURVE",
"127 628 CURVE SMOOTH",
"142 628 OFFCURVE",
"175 616 OFFCURVE",
"175 596 CURVE SMOOTH",
"175 579 OFFCURVE",
"172 555 OFFCURVE",
"166 523 CURVE SMOOTH",
"91 135 LINE SMOOTH",
"85 97 OFFCURVE",
"77 69 OFFCURVE",
"66 52 CURVE",
"59 40 OFFCURVE",
"22 30 OFFCURVE",
"7 30 CURVE SMOOTH",
"4 30 OFFCURVE",
"1 11 OFFCURVE",
"1 2 CURVE SMOOTH",
"1 -1 OFFCURVE",
"1 -3 OFFCURVE",
"2 -4 CURVE",
"18 -3 OFFCURVE",
"95 3 OFFCURVE",
"128 3 CURVE SMOOTH",
"153 3 OFFCURVE",
"227 -2 OFFCURVE",
"255 -4 CURVE",
"260 3 OFFCURVE",
"262 12 OFFCURVE",
"262 25 CURVE SMOOTH",
"262 28 OFFCURVE",
"261 30 OFFCURVE",
"260 30 CURVE SMOOTH",
"248 30 OFFCURVE",
"212 46 OFFCURVE",
"212 59 CURVE SMOOTH",
"212 78 OFFCURVE",
"215 104 OFFCURVE",
"222 139 CURVE SMOOTH",
"254 303 LINE",
"255 308 OFFCURVE",
"293 311 OFFCURVE",
"368 311 CURVE SMOOTH",
"441 311 OFFCURVE",
"478 309 OFFCURVE",
"478 305 CURVE SMOOTH",
"478 304 LINE",
"444 135 LINE SMOOTH",
"434 91 OFFCURVE",
"426 64 OFFCURVE",
"420 53 CURVE SMOOTH",
"413 41 OFFCURVE",
"375 30 OFFCURVE",
"360 30 CURVE SMOOTH",
"357 30 OFFCURVE",
"355 13 OFFCURVE",
"355 2 CURVE SMOOTH",
"355 -1 OFFCURVE",
"355 -3 OFFCURVE",
"356 -4 CURVE",
"371 -3 OFFCURVE",
"452 3 OFFCURVE",
"485 3 CURVE SMOOTH",
"501 3 OFFCURVE",
"525 2 OFFCURVE",
"558 -1 CURVE SMOOTH",
"590 -3 OFFCURVE",
"607 -4 OFFCURVE",
"608 -4 CURVE",
"613 4 OFFCURVE",
"616 14 OFFCURVE",
"616 25 CURVE SMOOTH",
"616 28 OFFCURVE",
"615 30 OFFCURVE",
"614 30 CURVE SMOOTH",
"602 30 OFFCURVE",
"565 46 OFFCURVE",
"565 59 CURVE SMOOTH",
"565 74 OFFCURVE",
"569 101 OFFCURVE",
"576 139 CURVE SMOOTH",
"650 519 LINE SMOOTH",
"658 561 OFFCURVE",
"666 589 OFFCURVE",
"674 604 CURVE SMOOTH",
"679 613 OFFCURVE",
"722 628 OFFCURVE",
"731 628 CURVE SMOOTH",
"736 628 OFFCURVE",
"740 644 OFFCURVE",
"740 656 CURVE SMOOTH",
"740 660 OFFCURVE",
"740 662 OFFCURVE",
"740 662 CURVE",
"664 658 OFFCURVE",
"624 656 OFFCURVE",
"619 656 CURVE SMOOTH",
"615 656 OFFCURVE",
"571 658 OFFCURVE",
"487 662 CURVE",
"482 657 OFFCURVE",
"479 647 OFFCURVE",
"479 634 CURVE SMOOTH",
"479 630 OFFCURVE",
"480 628 OFFCURVE",
"481 628 CURVE SMOOTH",
"513 628 OFFCURVE",
"529 619 OFFCURVE",
"529 600 CURVE SMOOTH",
"529 585 OFFCURVE",
"526 559 OFFCURVE",
"520 523 CURVE SMOOTH",
"492 375 LINE SMOOTH",
"491 371 OFFCURVE",
"454 369 OFFCURVE",
"380 369 CURVE SMOOTH"
);
}
);
};
color = -1;
layerId = "EE330C8E-4A1C-402A-831D-620872201BE1";
paths = (
{
closed = 1;
nodes = (
"57 0 OFFCURVE",
"108 4 OFFCURVE",
"126 4 CURVE SMOOTH",
"163 4 OFFCURVE",
"196 0 OFFCURVE",
"266 -4 CURVE",
"269 0 OFFCURVE",
"271 7 OFFCURVE",
"273 14 CURVE SMOOTH",
"276 25 OFFCURVE",
"274 33 OFFCURVE",
"271 33 CURVE SMOOTH",
"255 33 OFFCURVE",
"215 51 OFFCURVE",
"214 58 CURVE SMOOTH",
"211 79 OFFCURVE",
"216 107 OFFCURVE",
"223 142 CURVE SMOOTH",
"256 309 LINE",
"258 311 LINE",
"273 312 OFFCURVE",
"288 314 OFFCURVE",
"371 314 CURVE SMOOTH",
"406 314 OFFCURVE",
"435 314 OFFCURVE",
"477 312 CURVE",
"478 308 LINE",
"445 138 LINE SMOOTH",
"438 101 OFFCURVE",
"430 74 OFFCURVE",
"424 59 CURVE",
"419 50 OFFCURVE",
"371 33 OFFCURVE",
"352 33 CURVE SMOOTH",
"349 33 OFFCURVE",
"346 25 OFFCURVE",
"344 14 CURVE SMOOTH",
"343 7 OFFCURVE",
"343 -2 OFFCURVE",
"344 -4 CURVE",
"392 0 OFFCURVE",
"462 4 OFFCURVE",
"485 4 CURVE SMOOTH",
"510 4 OFFCURVE",
"572 -1 OFFCURVE",
"618 -4 CURVE",
"621 2 OFFCURVE",
"624 8 OFFCURVE",
"625 13 CURVE SMOOTH",
"628 27 OFFCURVE",
"628 34 OFFCURVE",
"625 34 CURVE SMOOTH",
"608 34 OFFCURVE",
"568 50 OFFCURVE",
"567 57 CURVE SMOOTH",
"564 78 OFFCURVE",
"569 106 OFFCURVE",
"576 142 CURVE SMOOTH",
"648 516 LINE SMOOTH",
"655 553 OFFCURVE",
"664 581 OFFCURVE",
"673 601 CURVE SMOOTH",
"676 608 OFFCURVE",
"724 625 OFFCURVE",
"741 625 CURVE SMOOTH",
"744 625 OFFCURVE",
"747 631 OFFCURVE",
"749 644 CURVE SMOOTH",
"750 650 OFFCURVE",
"751 656 OFFCURVE",
"750 662 CURVE",
"669 658 OFFCURVE",
"624 656 OFFCURVE",
"614 656 CURVE SMOOTH",
"607 656 OFFCURVE",
"567 658 OFFCURVE",
"476 662 CURVE",
"473 660 OFFCURVE",
"470 652 OFFCURVE",
"468 644 CURVE SMOOTH",
"465 633 OFFCURVE",
"467 625 OFFCURVE",
"470 625 CURVE SMOOTH",
"488 625 OFFCURVE",
"526 608 OFFCURVE",
"527 599 CURVE",
"529 581 OFFCURVE",
"526 555 OFFCURVE",
"519 520 CURVE SMOOTH",
"490 372 LINE",
"487 368 LINE",
"427 367 OFFCURVE",
"398 366 OFFCURVE",
"380 366 CURVE SMOOTH",
"365 366 OFFCURVE",
"333 367 OFFCURVE",
"268 368 CURVE",
"267 371 LINE",
"295 516 LINE SMOOTH",
"303 559 OFFCURVE",
"312 587 OFFCURVE",
"320 601 CURVE",
"324 608 OFFCURVE",
"373 625 OFFCURVE",
"389 625 CURVE SMOOTH",
"392 625 OFFCURVE",
"394 630 OFFCURVE",
"396 641 CURVE SMOOTH",
"398 652 OFFCURVE",
"398 659 OFFCURVE",
"397 662 CURVE",
"316 658 OFFCURVE",
"267 656 OFFCURVE",
"250 656 CURVE SMOOTH",
"249 656 OFFCURVE",
"213 658 OFFCURVE",
"122 662 CURVE",
"121 661 OFFCURVE",
"118 655 OFFCURVE",
"116 645 CURVE SMOOTH",
"113 632 OFFCURVE",
"114 625 OFFCURVE",
"117 625 CURVE SMOOTH",
"140 625 OFFCURVE",
"172 610 OFFCURVE",
"174 598 CURVE",
"177 587 OFFCURVE",
"174 561 OFFCURVE",
"166 520 CURVE SMOOTH",
"92 138 LINE SMOOTH",
"85 102 OFFCURVE",
"78 75 OFFCURVE",
"69 57 CURVE",
"64 48 OFFCURVE",
"19 33 OFFCURVE",
"-3 33 CURVE SMOOTH",
"-4 33 OFFCURVE",
"-7 26 OFFCURVE",
"-8 13 CURVE SMOOTH",
"-9 4 OFFCURVE",
"-10 -1 OFFCURVE",
"-8 -4 CURVE"
);
}
);
width = 699;
}
);
note = H;
unicode = 0048;
},
{
color = 6;
glyphname = Hbar;
lastChange = "2019-01-09 15:54:20 +0000";
layers = (
{
background = {
paths = (
{
closed = 1;
nodes = (
"691 470 LINE",
"700 481 OFFCURVE",
"702 495 QCURVE",
"705 508 OFFCURVE",
"699 508 QCURVE SMOOTH",
"661 508 LINE",
"676 583 OFFCURVE",
"689 612 QCURVE SMOOTH",
"692 619 OFFCURVE",
"744 633 OFFCURVE",
"753 633 QCURVE SMOOTH",
"757 633 OFFCURVE",
"759 647 QCURVE",
"760 652 OFFCURVE",
"760 662 QCURVE",
"754 662 OFFCURVE",
"677 656 OFFCURVE",
"653 656 QCURVE SMOOTH",
"628 656 OFFCURVE",
"553 661 OFFCURVE",
"542 662 QCURVE",
"539 660 OFFCURVE",
"534 645 OFFCURVE",
"534 634 OFFCURVE",
"536 633 QCURVE",
"548 633 OFFCURVE",
"593 620 OFFCURVE",
"594 612 QCURVE",
"595 586 OFFCURVE",
"580 508 QCURVE",
"543 507 OFFCURVE",
"441 507 QCURVE SMOOTH",
"309 507 OFFCURVE",
"298 508 QCURVE",
"312 580 OFFCURVE",
"326 612 QCURVE SMOOTH",
"329 619 OFFCURVE",
"381 633 OFFCURVE",
"390 633 QCURVE SMOOTH",
"393 633 OFFCURVE",
"398 657 OFFCURVE",
"397 662 QCURVE",
"384 661 OFFCURVE",
"342 658 OFFCURVE",
"306 656 OFFCURVE",
"288 656 QCURVE SMOOTH",
"263 656 OFFCURVE",
"189 661 OFFCURVE",
"178 662 QCURVE",
"173 657 OFFCURVE",
"171 646 QCURVE SMOOTH",
"169 633 OFFCURVE",
"172 633 QCURVE SMOOTH",
"184 633 OFFCURVE",
"229 620 OFFCURVE",
"230 612 QCURVE",
"231 579 OFFCURVE",
"217 508 QCURVE",
"186 508 LINE",
"179 498 OFFCURVE",
"176 483 QCURVE SMOOTH",
"173 470 OFFCURVE",
"178 470 QCURVE SMOOTH",
"209 470 LINE",
"144 135 LINE SMOOTH",
"135 80 OFFCURVE",
"120 46 QCURVE",
"115 38 OFFCURVE",
"66 26 OFFCURVE",
"54 26 QCURVE SMOOTH",
"50 26 OFFCURVE",
"48 12 QCURVE",
"46 2 OFFCURVE",
"49 -3 QCURVE",
"156 2 OFFCURVE",
"161 2 QCURVE SMOOTH",
"176 2 OFFCURVE",
"268 -3 QCURVE",
"271 3 OFFCURVE",
"275 25 OFFCURVE",
"272 26 QCURVE",
"263 26 OFFCURVE",
"217 39 OFFCURVE",
"216 46 QCURVE",
"215 81 OFFCURVE",
"226 139 QCURVE SMOOTH",
"256 294 LINE SMOOTH",
"257 299 OFFCURVE",
"400 299 QCURVE SMOOTH",
"450 299 OFFCURVE",
"538 297 QCURVE",
"539 293 LINE",
"508 135 LINE SMOOTH",
"499 80 OFFCURVE",
"484 46 QCURVE",
"479 38 OFFCURVE",
"430 26 OFFCURVE",
"418 26 QCURVE SMOOTH",
"414 26 OFFCURVE",
"409 1 OFFCURVE",
"412 -3 QCURVE",
"520 2 OFFCURVE",
"526 2 QCURVE SMOOTH",
"538 2 OFFCURVE",
"631 -3 QCURVE",
"633 0 OFFCURVE",
"635 11 QCURVE SMOOTH",
"638 26 OFFCURVE",
"635 26 QCURVE SMOOTH",
"626 26 OFFCURVE",
"580 39 OFFCURVE",
"579 46 QCURVE",
"578 77 OFFCURVE",
"590 139 QCURVE SMOOTH",
"654 470 LINE"
);
},
{
closed = 1;
nodes = (
"535 471 OFFCURVE",
"573 470 QCURVE",
"550 353 LINE",
"550 351 OFFCURVE",
"548 349 QCURVE",
"464 347 OFFCURVE",
"410 347 QCURVE SMOOTH",
"359 347 OFFCURVE",
"269 349 QCURVE SMOOTH",
"267 349 OFFCURVE",
"267 352 QCURVE",
"290 470 LINE",
"332 471 OFFCURVE",
"434 471 QCURVE SMOOTH"
);
}
);
};
color = -1;
components = (
{
name = H;
},
{
name = strokelongcomb.case;
transform = "{1, 0, 0, 1, 235, 169}";
}
);
layerId = "02396921-8257-42A3-8ED5-3052446F9CE3";
width = 680;
},
{
background = {
paths = (
{
closed = 1;
nodes = (
"419.333 468 OFFCURVE",
"457 467.667 OFFCURVE",
"503 467 CURVE",
"481 356 LINE SMOOTH",
"480.333 352 OFFCURVE",
"443 350 OFFCURVE",
"369 350 CURVE SMOOTH",
"294.333 350 OFFCURVE",
"257 352.333 OFFCURVE",
"257 357 CURVE SMOOTH",
"257 358.333 OFFCURVE",
"257 359 OFFCURVE",
"257 359 CURVE",
"278 467 LINE",
"352.667 467.667 OFFCURVE",
"390 468 OFFCURVE",
"390 468 CURVE"
);
},
{
closed = 1;
nodes = (
"221.689 656 OFFCURVE",
"154.792 660.014 OFFCURVE",
"125 662 CURVE",
"121 658 OFFCURVE",
"119 648 OFFCURVE",
"119 632 CURVE SMOOTH",
"119 629.333 OFFCURVE",
"119.333 628 OFFCURVE",
"120 628 CURVE SMOOTH",
"134.667 628 OFFCURVE",
"168 616 OFFCURVE",
"168 596 CURVE SMOOTH",
"168 578 OFFCURVE",
"165 554 OFFCURVE",
"159 524 CURVE",
"112 525 LINE",
"101 521 LINE",
"94.333 514.333 OFFCURVE",
"87.667 498 OFFCURVE",
"81 472 CURVE SMOOTH",
"79.473 465.89 OFFCURVE",
"84.83 465 OFFCURVE",
"88 465 CURVE SMOOTH",
"150 466 LINE",
"84 135 LINE SMOOTH",
"74.667 91.667 OFFCURVE",
"66.333 64 OFFCURVE",
"59 52 CURVE",
"52.333 40 OFFCURVE",
"14.667 30 OFFCURVE",
"0 30 CURVE SMOOTH",
"-2.667 30 OFFCURVE",
"-6 11.333 OFFCURVE",
"-6 2 CURVE SMOOTH",
"-6 -1.333 OFFCURVE",
"-5.667 -3.333 OFFCURVE",
"-5 -4 CURVE",
"11 -2.667 OFFCURVE",
"87.667 3 OFFCURVE",
"121 3 CURVE SMOOTH",
"146.237 3 OFFCURVE",
"220.324 -1.694 OFFCURVE",
"248 -4 CURVE",
"252.667 2.667 OFFCURVE",
"255 12.333 OFFCURVE",
"255 25 CURVE SMOOTH",
"255 28.333 OFFCURVE",
"254.333 30 OFFCURVE",
"253 30 CURVE SMOOTH",
"241 30 OFFCURVE",
"205 45.667 OFFCURVE",
"205 59 CURVE SMOOTH",
"205 77.667 OFFCURVE",
"208.333 104.333 OFFCURVE",
"215 139 CURVE SMOOTH",
"243 284 LINE",
"244.333 289.333 OFFCURVE",
"282.333 292 OFFCURVE",
"357 292 CURVE SMOOTH",
"430.333 292 OFFCURVE",
"467 290 OFFCURVE",
"467 286 CURVE SMOOTH",
"467 285 LINE",
"437 135 LINE SMOOTH",
"427 91 OFFCURVE",
"419 63.667 OFFCURVE",
"413 53 CURVE SMOOTH",
"406.333 41 OFFCURVE",
"367.667 30 OFFCURVE",
"353 30 CURVE SMOOTH",
"349.667 30 OFFCURVE",
"348 20.667 OFFCURVE",
"348 2 CURVE SMOOTH",
"348 -1.333 OFFCURVE",
"348.333 -3.333 OFFCURVE",
"349 -4 CURVE",
"363.667 -2.667 OFFCURVE",
"444.667 3 OFFCURVE",
"478 3 CURVE SMOOTH",
"494 3 OFFCURVE",
"518.167 1.833 OFFCURVE",
"550.5 -0.5 CURVE SMOOTH",
"582.833 -2.833 OFFCURVE",
"599.667 -4 OFFCURVE",
"601 -4 CURVE",
"606.333 4 OFFCURVE",
"609 13.667 OFFCURVE",
"609 25 CURVE SMOOTH",
"609 28.333 OFFCURVE",
"608.333 30 OFFCURVE",
"607 30 CURVE SMOOTH",
"595 30 OFFCURVE",
"558 45.667 OFFCURVE",
"558 59 CURVE SMOOTH",
"558 74.333 OFFCURVE",
"561.667 101 OFFCURVE",
"569 139 CURVE SMOOTH",
"633 466 LINE",
"680 465 LINE",
"691 469 LINE",
"699 477 OFFCURVE",
"706 493.333 OFFCURVE",
"712 518 CURVE SMOOTH",
"713.527 524.11 OFFCURVE",
"708.17 525 OFFCURVE",
"705 525 CURVE SMOOTH",
"644 524 LINE",
"652 564.667 OFFCURVE",
"659.667 591.333 OFFCURVE",
"667 604 CURVE SMOOTH",
"672.333 613.333 OFFCURVE",
"714.667 628 OFFCURVE",
"724 628 CURVE SMOOTH",
"730 628 OFFCURVE",
"733 637.333 OFFCURVE",
"733 656 CURVE SMOOTH",
"733 662 LINE",
"657 658 OFFCURVE",
"616.667 656 OFFCURVE",
"612 656 CURVE SMOOTH",
"608 656 OFFCURVE",
"564 658 OFFCURVE",
"480 662 CURVE",
"474.667 656.667 OFFCURVE",
"472 647.333 OFFCURVE",
"472 634 CURVE SMOOTH",
"472 630 OFFCURVE",
"472.667 628 OFFCURVE",
"474 628 CURVE SMOOTH",
"506 628 OFFCURVE",
"522 618.667 OFFCURVE",
"522 600 CURVE SMOOTH",
"522 590.667 OFFCURVE",
"518.667 565 OFFCURVE",
"512 523 CURVE",
"398 522 LINE SMOOTH",
"369.333 522 OFFCURVE",
"333 522.333 OFFCURVE",
"289 523 CURVE",
"297.667 565 OFFCURVE",
"305.333 592 OFFCURVE",
"312 604 CURVE SMOOTH",
"317.333 613.333 OFFCURVE",
"360.333 628 OFFCURVE",
"371 628 CURVE SMOOTH",
"375 628 OFFCURVE",
"379 646.333 OFFCURVE",
"379 657 CURVE SMOOTH",
"379 660.333 OFFCURVE",
"379 662 OFFCURVE",
"379 662 CURVE",
"303 658 OFFCURVE",
"259 656 OFFCURVE",
"247 656 CURVE SMOOTH"
);
}
);
};
color = -1;
components = (
{
name = H;
},
{
name = strokelongcomb.case;
transform = "{1, 0, 0, 1, 253, 169}";
}
);
layerId = "EE330C8E-4A1C-402A-831D-620872201BE1";
width = 699;
}
);
note = Hbar;
unicode = 0126;
},
{
color = 3;
glyphname = I;
lastChange = "2019-01-09 09:18:03 +0000";
layers = (
{
anchors = (
{
name = bottom;
position = "{115, 0}";
},
{
name = ogonek;
position = "{215, 10}";
},
{
name = top;
position = "{243, 658}";
},
{
name = topleft;
position = "{104, 658}";
}
);
background = {
paths = (
{
closed = 1;
nodes = (
"45 0 OFFCURVE",
"95 2 OFFCURVE",
"118 2 CURVE SMOOTH",
"149 2 OFFCURVE",
"187 0 OFFCURVE",
"233 -3 CURVE",
"235 1 OFFCURVE",
"237 6 OFFCURVE",
"238 11 CURVE SMOOTH",
"240 21 OFFCURVE",
"240 26 OFFCURVE",
"237 26 CURVE SMOOTH",
"224 26 OFFCURVE",
"178 37 OFFCURVE",
"177 45 CURVE",
"175 69 OFFCURVE",
"178 100 OFFCURVE",
"186 139 CURVE SMOOTH",
"260 519 LINE SMOOTH",
"267 558 OFFCURVE",
"276 589 OFFCURVE",
"287 612 CURVE",
"292 621 OFFCURVE",
"342 633 OFFCURVE",
"355 633 CURVE SMOOTH",
"358 633 OFFCURVE",
"360 638 OFFCURVE",
"362 647 CURVE SMOOTH",
"363 653 OFFCURVE",
"363 658 OFFCURVE",
"363 662 CURVE",
"305 659 OFFCURVE",
"277 657 OFFCURVE",
"246 657 CURVE SMOOTH",
"223 657 OFFCURVE",
"183 659 OFFCURVE",
"127 662 CURVE",
"123 659 OFFCURVE",
"121 654 OFFCURVE",
"120 646 CURVE SMOOTH",
"118 637 OFFCURVE",
"118 633 OFFCURVE",
"121 633 CURVE SMOOTH",
"138 633 OFFCURVE",
"182 623 OFFCURVE",
"184 612 CURVE",
"185 594 OFFCURVE",
"182 564 OFFCURVE",
"174 523 CURVE SMOOTH",
"98 135 LINE SMOOTH",
"90 94 OFFCURVE",
"82 64 OFFCURVE",
"74 46 CURVE",
"68 35 OFFCURVE",
"20 26 OFFCURVE",
"3 26 CURVE SMOOTH",
"0 26 OFFCURVE",
"-2 21 OFFCURVE",
"-4 12 CURVE SMOOTH",
"-5 5 OFFCURVE",
"-5 0 OFFCURVE",
"-3 -3 CURVE"
);
}
);
};
color = -1;
layerId = "02396921-8257-42A3-8ED5-3052446F9CE3";
paths = (
{
closed = 1;
nodes = (
"48 0 OFFCURVE",
"98 2 OFFCURVE",
"118 2 CURVE SMOOTH",
"146 2 OFFCURVE",
"184 0 OFFCURVE",
"230 -3 CURVE",
"232 1 OFFCURVE",
"234 6 OFFCURVE",
"235 11 CURVE SMOOTH",
"237 21 OFFCURVE",
"237 26 OFFCURVE",
"234 26 CURVE SMOOTH",
"221 26 OFFCURVE",
"175 37 OFFCURVE",
"174 45 CURVE",
"172 69 OFFCURVE",
"175 100 OFFCURVE",
"183 139 CURVE SMOOTH",
"257 519 LINE SMOOTH",
"265 558 OFFCURVE",
"273 589 OFFCURVE",
"284 612 CURVE",
"289 621 OFFCURVE",
"339 633 OFFCURVE",
"352 633 CURVE SMOOTH",
"355 633 OFFCURVE",
"357 638 OFFCURVE",
"359 647 CURVE SMOOTH",
"360 653 OFFCURVE",
"360 658 OFFCURVE",
"360 662 CURVE",
"302 659 OFFCURVE",
"274 657 OFFCURVE",
"246 657 CURVE SMOOTH",
"223 657 OFFCURVE",
"186 659 OFFCURVE",
"130 662 CURVE",
"126 659 OFFCURVE",
"124 654 OFFCURVE",
"123 646 CURVE SMOOTH",
"122 637 OFFCURVE",
"121 633 OFFCURVE",
"124 633 CURVE SMOOTH",
"141 633 OFFCURVE",
"185 623 OFFCURVE",
"187 612 CURVE",
"188 594 OFFCURVE",
"185 564 OFFCURVE",
"177 523 CURVE SMOOTH",
"101 135 LINE SMOOTH",
"93 94 OFFCURVE",
"85 64 OFFCURVE",
"77 46 CURVE",
"71 35 OFFCURVE",
"23 26 OFFCURVE",
"6 26 CURVE SMOOTH",
"3 26 OFFCURVE",
"2 21 OFFCURVE",
"-1 12 CURVE SMOOTH",
"-3 5 OFFCURVE",
"-2 0 OFFCURVE",
"0 -3 CURVE"
);
}
);
width = 315;
},
{
anchors = (
{
name = bottom;
position = "{130, 0}";
},
{
name = ogonek;
position = "{228, 10}";
},
{
name = top;
position = "{258, 658}";
},
{
name = topleft;
position = "{111, 658}";
}
);
background = {
paths = (
{
closed = 1;
nodes = (
"299 534 OFFCURVE",
"312 591 OFFCURVE",
"320 604 CURVE SMOOTH",
"325 613 OFFCURVE",
"368 628 OFFCURVE",
"379 628 CURVE SMOOTH",
"383 628 OFFCURVE",
"387 646 OFFCURVE",
"387 657 CURVE SMOOTH",
"387 662 LINE",
"311 658 OFFCURVE",
"267 656 OFFCURVE",
"255 656 CURVE SMOOTH",
"230 656 OFFCURVE",
"162 660 OFFCURVE",
"133 662 CURVE",
"129 658 OFFCURVE",
"127 648 OFFCURVE",
"127 632 CURVE SMOOTH",
"127 629 OFFCURVE",
"127 628 OFFCURVE",
"128 628 CURVE SMOOTH",
"143 628 OFFCURVE",
"176 616 OFFCURVE",
"176 596 CURVE SMOOTH",
"176 579 OFFCURVE",
"173 555 OFFCURVE",
"167 523 CURVE SMOOTH",
"92 135 LINE SMOOTH",
"86 97 OFFCURVE",
"78 69 OFFCURVE",
"67 52 CURVE",
"60 40 OFFCURVE",
"23 30 OFFCURVE",
"8 30 CURVE SMOOTH",
"5 30 OFFCURVE",
"2 11 OFFCURVE",
"2 2 CURVE SMOOTH",
"2 -1 OFFCURVE",
"2 -3 OFFCURVE",
"3 -4 CURVE",
"9 -4 OFFCURVE",
"29 -3 OFFCURVE",
"62 -1 CURVE SMOOTH",
"95 2 OFFCURVE",
"119 3 OFFCURVE",
"136 3 CURVE SMOOTH",
"152 3 OFFCURVE",
"175 2 OFFCURVE",
"206 -1 CURVE SMOOTH",
"237 -3 OFFCURVE",
"253 -4 OFFCURVE",
"256 -4 CURVE",
"261 3 OFFCURVE",
"263 12 OFFCURVE",
"263 25 CURVE SMOOTH",
"263 28 OFFCURVE",
"262 30 OFFCURVE",
"261 30 CURVE SMOOTH",
"249 30 OFFCURVE",
"213 46 OFFCURVE",
"213 59 CURVE SMOOTH",
"213 78 OFFCURVE",
"216 104 OFFCURVE",
"223 139 CURVE SMOOTH",
"296 519 LINE SMOOTH"
);
}
);
};
color = -1;
layerId = "EE330C8E-4A1C-402A-831D-620872201BE1";
paths = (
{
closed = 1;
nodes = (
"11 -3 OFFCURVE",
"103 4 OFFCURVE",
"139 4 CURVE SMOOTH",
"170 4 OFFCURVE",
"232 -2 OFFCURVE",
"266 -4 CURVE",
"268 0 OFFCURVE",
"270 6 OFFCURVE",
"272 14 CURVE SMOOTH",
"275 27 OFFCURVE",
"274 33 OFFCURVE",
"271 33 CURVE SMOOTH",
"259 33 OFFCURVE",
"216 49 OFFCURVE",
"214 57 CURVE",
"213 88 OFFCURVE",
"218 118 OFFCURVE",
"223 146 CURVE SMOOTH",
"298 531 LINE SMOOTH",
"302 551 OFFCURVE",
"312 585 OFFCURVE",
"319 601 CURVE",
"323 610 OFFCURVE",
"377 625 OFFCURVE",
"389 625 CURVE SMOOTH",
"392 625 OFFCURVE",
"394 631 OFFCURVE",
"396 644 CURVE SMOOTH",
"397 650 OFFCURVE",
"398 656 OFFCURVE",
"397 662 CURVE",
"316 658 OFFCURVE",
"279 656 OFFCURVE",
"266 656 CURVE SMOOTH",
"218 656 OFFCURVE",
"169 659 OFFCURVE",
"122 662 CURVE",
"121 661 OFFCURVE",
"118 654 OFFCURVE",
"116 642 CURVE SMOOTH",
"114 631 OFFCURVE",
"114 625 OFFCURVE",
"117 625 CURVE SMOOTH",
"132 625 OFFCURVE",
"169 611 OFFCURVE",
"174 600 CURVE",
"177 591 OFFCURVE",
"175 565 OFFCURVE",
"167 522 CURVE SMOOTH",
"92 138 LINE SMOOTH",
"85 103 OFFCURVE",
"78 76 OFFCURVE",
"69 58 CURVE",
"63 47 OFFCURVE",
"13 33 OFFCURVE",
"-2 33 CURVE SMOOTH",
"-4 33 OFFCURVE",
"-6 26 OFFCURVE",
"-9 12 CURVE SMOOTH",
"-11 4 OFFCURVE",
"-10 -1 OFFCURVE",
"-8 -4 CURVE"
);
}
);
width = 355;
}
);
note = I;
unicode = 0049;
},
{
color = 6;
glyphname = Iogonek;
lastChange = "2019-01-09 15:54:20 +0000";
layers = (
{
background = {
paths = (
{
closed = 1;
nodes = (
"258 580 OFFCURVE",
"271 608 QCURVE SMOOTH",
"274 615 OFFCURVE",
"325 631 OFFCURVE",
"333 631 QCURVE SMOOTH",
"340 631 OFFCURVE",
"340 655 QCURVE SMOOTH",
"340 658 LINE",
"333 658 OFFCURVE",
"258 652 OFFCURVE",
"234 652 QCURVE SMOOTH",
"209 652 OFFCURVE",
"138 657 OFFCURVE",
"126 658 QCURVE",
"118 650 OFFCURVE",
"118 636 QCURVE SMOOTH",
"118 631 OFFCURVE",
"120 631 QCURVE SMOOTH",
"133 631 OFFCURVE",
"176 615 OFFCURVE",
"176 604 QCURVE SMOOTH",
"176 567 OFFCURVE",
"165 512 QCURVE SMOOTH",
"94 142 LINE SMOOTH",
"83 80 OFFCURVE",
"68 46 QCURVE SMOOTH",
"64 37 OFFCURVE",
"16 24 OFFCURVE",
"4 24 QCURVE SMOOTH",
"-3 24 OFFCURVE",
"-3 5 QCURVE SMOOTH",
"-3 -1 OFFCURVE",
"-1 -3 QCURVE",
"106 2 OFFCURVE",
"109 2 QCURVE",
"66 -19 OFFCURVE",
"-13 -134 OFFCURVE",
"-13 -180 QCURVE SMOOTH",
"-13 -201 OFFCURVE",
"15 -230 OFFCURVE",
"37 -230 QCURVE SMOOTH",
"88 -230 OFFCURVE",
"148 -163 QCURVE",
"151 -160 OFFCURVE",
"159 -134 OFFCURVE",
"154 -133 QCURVE",
"153 -133 OFFCURVE",
"130 -152 OFFCURVE",
"92 -171 OFFCURVE",
"71 -171 QCURVE SMOOTH",
"40 -171 OFFCURVE",
"40 -139 QCURVE SMOOTH",
"40 -106 OFFCURVE",
"114 -25 OFFCURVE",
"166 -10 QCURVE SMOOTH",
"192 -3 OFFCURVE",
"213 -3 QCURVE",
"219 9 OFFCURVE",
"219 20 QCURVE SMOOTH",
"219 24 OFFCURVE",
"217 24 QCURVE",
"204 26 LINE SMOOTH",
"190 28 OFFCURVE",
"163 41 OFFCURVE",
"163 49 QCURVE SMOOTH",
"163 84 OFFCURVE",
"174 139 QCURVE SMOOTH",
"245 515 LINE SMOOTH"
);
}
);
};
color = -1;
components = (
{
name = I;
},
{
name = ogonekcomb;
transform = "{1, 0, 0, 1, -38, 0}";
}
);
layerId = "02396921-8257-42A3-8ED5-3052446F9CE3";
width = 315;
},
{
background = {
paths = (
{
closed = 1;
nodes = (
"294.667 559 OFFCURVE",
"302.667 587.333 OFFCURVE",
"312 604 CURVE SMOOTH",
"317.333 613.333 OFFCURVE",
"360.333 628 OFFCURVE",
"371 628 CURVE SMOOTH",
"375 628 OFFCURVE",
"379 646.333 OFFCURVE",
"379 657 CURVE SMOOTH",
"379 662 LINE",
"303 658 OFFCURVE",
"259 656 OFFCURVE",
"247 656 CURVE SMOOTH",
"221.689 656 OFFCURVE",
"154.792 660.014 OFFCURVE",
"125 662 CURVE",
"121 658 OFFCURVE",
"119 648 OFFCURVE",
"119 632 CURVE SMOOTH",
"119 629.333 OFFCURVE",
"119.333 628 OFFCURVE",
"120 628 CURVE SMOOTH",
"134.667 628 OFFCURVE",
"168 616 OFFCURVE",
"168 596 CURVE SMOOTH",
"168 579.333 OFFCURVE",
"165 555 OFFCURVE",
"159 523 CURVE SMOOTH",
"84 135 LINE SMOOTH",
"78 97 OFFCURVE",
"69.667 69.333 OFFCURVE",
"59 52 CURVE",
"52.333 40 OFFCURVE",
"14.667 30 OFFCURVE",
"0 30 CURVE SMOOTH",
"-2.667 30 OFFCURVE",
"-6 11.333 OFFCURVE",
"-6 2 CURVE SMOOTH",
"-6 -1.333 OFFCURVE",
"-5.667 -3.333 OFFCURVE",
"-5 -4 CURVE",
"67 0 OFFCURVE",
"106.333 2 OFFCURVE",
"113 2 CURVE",
"69 -11.333 OFFCURVE",
"-10 -104 OFFCURVE",
"-10 -156 CURVE SMOOTH",
"-10 -190.667 OFFCURVE",
"16.333 -216 OFFCURVE",
"47 -216 CURVE SMOOTH",
"85.667 -216 OFFCURVE",
"136.667 -185.333 OFFCURVE",
"166 -152 CURVE",
"170 -148 OFFCURVE",
"177.667 -118.333 OFFCURVE",
"171 -117 CURVE",
"165.845 -117 OFFCURVE",
"119.861 -144 OFFCURVE",
"94 -144 CURVE SMOOTH",
"75.333 -144 OFFCURVE",
"66 -132 OFFCURVE",
"66 -120 CURVE SMOOTH",
"66 -73.333 OFFCURVE",
"151.333 -2 OFFCURVE",
"202 -2 CURVE SMOOTH",
"216.667 -2 OFFCURVE",
"232 -2.667 OFFCURVE",
"248 -4 CURVE",
"252.667 2.667 OFFCURVE",
"255 12.333 OFFCURVE",
"255 25 CURVE SMOOTH",
"255 28.333 OFFCURVE",
"254.333 30 OFFCURVE",
"253 30 CURVE SMOOTH",
"241 30 OFFCURVE",
"205 45.667 OFFCURVE",
"205 59 CURVE SMOOTH",
"205 77.667 OFFCURVE",
"208.333 104.333 OFFCURVE",
"215 139 CURVE SMOOTH",
"288 519 LINE SMOOTH"
);
}
);
};
color = -1;
components = (
{
name = I;
},
{
name = ogonekcomb;
transform = "{1, 0, 0, 1, -29, 0}";
}
);
layerId = "EE330C8E-4A1C-402A-831D-620872201BE1";
width = 355;
}
);
note = Iogonek;
unicode = 012E;
},
{
color = 3;
glyphname = J;
lastChange = "2019-01-09 14:15:31 +0000";
layers = (
{
anchors = (
{
name = bottom;
position = "{104, 0}";
},
{
name = top;
position = "{249, 658}";
}
);
background = {
anchors = (
{
name = bottom;
position = "{104, 0}";
},
{
name = top;
position = "{249, 658}";
}
);
paths = (
{
closed = 1;
nodes = (
"212 656 OFFCURVE",
"146 661 OFFCURVE",
"129 662 CURVE",
"126 659 OFFCURVE",
"124 654 OFFCURVE",
"122 646 CURVE SMOOTH",
"121 637 OFFCURVE",
"121 633 OFFCURVE",
"124 633 CURVE SMOOTH",
"141 633 OFFCURVE",
"185 623 OFFCURVE",
"187 612 CURVE",
"188 594 OFFCURVE",
"184 564 OFFCURVE",
"176 523 CURVE SMOOTH",
"90 77 LINE SMOOTH",
"73 -7 OFFCURVE",
"47 -76 OFFCURVE",
"21 -112 CURVE SMOOTH",
"-5 -148 OFFCURVE",
"-28 -167 OFFCURVE",
"-47 -167 CURVE SMOOTH",
"-56 -167 OFFCURVE",
"-65 -160 OFFCURVE",
"-79 -146 CURVE SMOOTH",
"-91 -131 OFFCURVE",
"-108 -124 OFFCURVE",
"-121 -124 CURVE SMOOTH",
"-153 -124 OFFCURVE",
"-180 -144 OFFCURVE",
"-186 -172 CURVE SMOOTH",
"-192 -206 OFFCURVE",
"-168 -227 OFFCURVE",
"-112 -227 CURVE SMOOTH",
"7 -227 OFFCURVE",
"146 -83 OFFCURVE",
"178 85 CURVE SMOOTH",
"263 519 LINE SMOOTH",
"270 558 OFFCURVE",
"279 589 OFFCURVE",
"290 613 CURVE",
"294 621 OFFCURVE",
"345 633 OFFCURVE",
"358 633 CURVE SMOOTH",
"361 633 OFFCURVE",
"363 638 OFFCURVE",
"364 647 CURVE SMOOTH",
"366 653 OFFCURVE",
"366 658 OFFCURVE",
"365 662 CURVE",
"337 660 OFFCURVE",
"274 656 OFFCURVE",
"248 656 CURVE SMOOTH"
);
}
);
};
color = -1;
layerId = "02396921-8257-42A3-8ED5-3052446F9CE3";
paths = (
{
closed = 1;
nodes = (
"4 -227 OFFCURVE",
"137 -92 OFFCURVE",
"172 85 CURVE SMOOTH",
"257 519 LINE SMOOTH",
"265 558 OFFCURVE",
"273 589 OFFCURVE",
"284 613 CURVE",
"288 621 OFFCURVE",
"339 633 OFFCURVE",
"352 633 CURVE SMOOTH",
"356 633 OFFCURVE",
"360 652 OFFCURVE",
"360 657 CURVE SMOOTH",
"360 659 OFFCURVE",
"359 660 OFFCURVE",
"359 662 CURVE",
"331 660 OFFCURVE",
"268 656 OFFCURVE",
"245 656 CURVE SMOOTH",
"209 656 OFFCURVE",
"146 661 OFFCURVE",
"129 662 CURVE",
"125 658 OFFCURVE",
"121 651 OFFCURVE",
"121 638 CURVE SMOOTH",
"121 635 OFFCURVE",
"122 633 OFFCURVE",
"124 633 CURVE SMOOTH",
"141 633 OFFCURVE",
"185 623 OFFCURVE",
"187 612 CURVE",
"188 594 OFFCURVE",
"184 564 OFFCURVE",
"176 523 CURVE SMOOTH",
"90 77 LINE SMOOTH",
"73 -7 OFFCURVE",
"49 -76 OFFCURVE",
"22 -113 CURVE SMOOTH",
"-3 -148 OFFCURVE",
"-28 -167 OFFCURVE",
"-47 -167 CURVE SMOOTH",
"-70 -167 OFFCURVE",
"-91 -124 OFFCURVE",
"-129 -124 CURVE SMOOTH",
"-161 -124 OFFCURVE",
"-187 -145 OFFCURVE",
"-187 -177 CURVE SMOOTH",
"-187 -206 OFFCURVE",
"-162 -227 OFFCURVE",
"-112 -227 CURVE SMOOTH"
);
}
);
width = 309;
},
{
anchors = (
{
name = bottom;
position = "{62, 0}";
},
{
name = top;
position = "{261, 658}";
}
);
background = {
anchors = (
{
name = bottom;
position = "{62, 0}";
},
{
name = top;
position = "{266, 658}";
}
);
paths = (
{
closed = 1;
nodes = (
"261 656 OFFCURVE",
"214 658 OFFCURVE",
"123 662 CURVE",
"121 661 OFFCURVE",
"119 654 OFFCURVE",
"117 642 CURVE SMOOTH",
"115 631 OFFCURVE",
"114 625 OFFCURVE",
"117 625 CURVE SMOOTH",
"132 625 OFFCURVE",
"170 611 OFFCURVE",
"174 600 CURVE",
"178 591 OFFCURVE",
"176 565 OFFCURVE",
"167 522 CURVE SMOOTH",
"92 135 LINE SMOOTH",
"74 40 OFFCURVE",
"55 -31 OFFCURVE",
"37 -78 CURVE SMOOTH",
"19 -125 OFFCURVE",
"-6 -148 OFFCURVE",
"-35 -148 CURVE SMOOTH",
"-44 -148 OFFCURVE",
"-56 -138 OFFCURVE",
"-71 -118 CURVE SMOOTH",
"-85 -97 OFFCURVE",
"-100 -87 OFFCURVE",
"-116 -87 CURVE SMOOTH",
"-149 -87 OFFCURVE",
"-185 -115 OFFCURVE",
"-191 -148 CURVE SMOOTH",
"-199 -187 OFFCURVE",
"-171 -218 OFFCURVE",
"-113 -218 CURVE SMOOTH",
"40 -218 OFFCURVE",
"190 -84 OFFCURVE",
"234 143 CURVE SMOOTH",
"306 516 LINE SMOOTH",
"314 555 OFFCURVE",
"321 583 OFFCURVE",
"330 602 CURVE",
"334 610 OFFCURVE",
"387 625 OFFCURVE",
"399 625 CURVE SMOOTH",
"402 625 OFFCURVE",
"405 631 OFFCURVE",
"407 644 CURVE SMOOTH",
"408 650 OFFCURVE",
"408 656 OFFCURVE",
"408 662 CURVE",
"327 658 OFFCURVE",
"279 656 OFFCURVE",
"266 656 CURVE SMOOTH"
);
}
);
};
color = -1;
layerId = "EE330C8E-4A1C-402A-831D-620872201BE1";
paths = (
{
closed = 1;
nodes = (
"40 -218 OFFCURVE",
"180 -84 OFFCURVE",
"224 143 CURVE SMOOTH",
"296 516 LINE SMOOTH",
"304 555 OFFCURVE",
"311 583 OFFCURVE",
"320 602 CURVE",
"324 610 OFFCURVE",
"377 625 OFFCURVE",
"389 625 CURVE SMOOTH",
"392 625 OFFCURVE",
"395 631 OFFCURVE",
"397 644 CURVE SMOOTH",
"398 650 OFFCURVE",
"398 656 OFFCURVE",
"398 662 CURVE",
"317 658 OFFCURVE",
"279 656 OFFCURVE",
"266 656 CURVE SMOOTH",
"261 656 OFFCURVE",
"214 658 OFFCURVE",
"113 662 CURVE",
"111 661 OFFCURVE",
"109 654 OFFCURVE",
"107 642 CURVE SMOOTH",
"105 631 OFFCURVE",
"104 625 OFFCURVE",
"107 625 CURVE SMOOTH",
"132 625 OFFCURVE",
"170 611 OFFCURVE",
"174 600 CURVE",
"178 591 OFFCURVE",
"176 565 OFFCURVE",
"167 522 CURVE SMOOTH",
"92 135 LINE SMOOTH",
"74 40 OFFCURVE",
"55 -31 OFFCURVE",
"37 -78 CURVE SMOOTH",
"19 -125 OFFCURVE",
"-6 -148 OFFCURVE",
"-35 -148 CURVE SMOOTH",
"-60 -148 OFFCURVE",
"-81 -87 OFFCURVE",
"-127 -87 CURVE SMOOTH",
"-161 -87 OFFCURVE",
"-191 -114 OFFCURVE",
"-191 -156 CURVE SMOOTH",
"-191 -187 OFFCURVE",
"-171 -218 OFFCURVE",
"-113 -218 CURVE SMOOTH"
);
}
);
width = 342;
}
);
note = J;
unicode = 004A;
},
{
color = 3;
glyphname = K;
lastChange = "2019-01-09 09:14:47 +0000";
layers = (
{
anchors = (
{
name = bottom;
position = "{297, 0}";
},
{
name = top;
position = "{425, 658}";
}
);
background = {
paths = (
{
closed = 1;
nodes = (
"263 558 OFFCURVE",
"272 589 OFFCURVE",
"281 608 CURVE SMOOTH",
"285 617 OFFCURVE",
"332 631 OFFCURVE",
"343 631 CURVE SMOOTH",
"348 631 OFFCURVE",
"350 639 OFFCURVE",
"350 655 CURVE SMOOTH",
"350 658 LINE",
"345 658 OFFCURVE",
"331 657 OFFCURVE",
"306 655 CURVE SMOOTH",
"281 653 OFFCURVE",
"260 652 OFFCURVE",
"244 652 CURVE SMOOTH",
"211 652 OFFCURVE",
"152 657 OFFCURVE",
"136 658 CURVE",
"131 653 OFFCURVE",
"128 645 OFFCURVE",
"128 636 CURVE SMOOTH",
"128 633 OFFCURVE",
"129 631 OFFCURVE",
"130 631 CURVE SMOOTH",
"147 631 OFFCURVE",
"186 619 OFFCURVE",
"186 604 CURVE SMOOTH",
"186 579 OFFCURVE",
"182 549 OFFCURVE",
"175 512 CURVE SMOOTH",
"104 142 LINE SMOOTH",
"96 101 OFFCURVE",
"88 69 OFFCURVE",
"78 46 CURVE SMOOTH",
"73 34 OFFCURVE",
"30 24 OFFCURVE",
"14 24 CURVE SMOOTH",
"9 24 OFFCURVE",
"7 18 OFFCURVE",
"7 5 CURVE SMOOTH",
"7 1 OFFCURVE",
"8 -2 OFFCURVE",
"9 -3 CURVE",
"81 0 OFFCURVE",
"118 2 OFFCURVE",
"119 2 CURVE SMOOTH",
"127 2 OFFCURVE",
"162 0 OFFCURVE",
"223 -3 CURVE",
"227 5 OFFCURVE",
"229 13 OFFCURVE",
"229 20 CURVE SMOOTH",
"229 23 OFFCURVE",
"228 24 OFFCURVE",
"227 24 CURVE",
"213 26 LINE SMOOTH",
"196 28 OFFCURVE",
"173 38 OFFCURVE",
"173 49 CURVE SMOOTH",
"173 72 OFFCURVE",
"177 102 OFFCURVE",
"184 139 CURVE SMOOTH",
"255 515 LINE SMOOTH"
);
},
{
closed = 1;
nodes = (
"234 307 OFFCURVE",
"309 214 OFFCURVE",
"440 44 CURVE SMOOTH",
"457 22 OFFCURVE",
"503 -2 OFFCURVE",
"556 -2 CURVE SMOOTH",
"572 -2 OFFCURVE",
"597 -1 OFFCURVE",
"631 1 CURVE",
"634 8 OFFCURVE",
"636 15 OFFCURVE",
"636 22 CURVE SMOOTH",
"636 26 OFFCURVE",
"635 28 OFFCURVE",
"634 28 CURVE SMOOTH",
"615 28 OFFCURVE",
"552 44 OFFCURVE",
"529 72 CURVE SMOOTH",
"325 319 LINE",
"321 324 OFFCURVE",
"319 330 OFFCURVE",
"319 335 CURVE SMOOTH",
"319 340 OFFCURVE",
"321 344 OFFCURVE",
"324 347 CURVE SMOOTH",
"568 591 LINE SMOOTH",
"592 615 OFFCURVE",
"627 630 OFFCURVE",
"674 635 CURVE",
"678 635 OFFCURVE",
"680 643 OFFCURVE",
"680 658 CURVE",
"676 658 OFFCURVE",
"661 657 OFFCURVE",
"636 655 CURVE SMOOTH",
"610 653 OFFCURVE",
"589 652 OFFCURVE",
"573 652 CURVE SMOOTH",
"553 652 OFFCURVE",
"499 656 OFFCURVE",
"475 658 CURVE",
"472 653 OFFCURVE",
"470 647 OFFCURVE",
"470 641 CURVE SMOOTH",
"470 637 OFFCURVE",
"471 635 OFFCURVE",
"473 635 CURVE SMOOTH",
"490 635 OFFCURVE",
"521 630 OFFCURVE",
"521 618 CURVE SMOOTH",
"521 610 OFFCURVE",
"497 584 OFFCURVE",
"491 578 CURVE",
"398 475 OFFCURVE",
"281 363 OFFCURVE",
"220 326 CURVE"
);
}
);
};
color = -1;
layerId = "02396921-8257-42A3-8ED5-3052446F9CE3";
paths = (
{
closed = 1;
nodes = (
"58 0 OFFCURVE",
"97 2 OFFCURVE",
"121 2 CURVE SMOOTH",
"132 2 OFFCURVE",
"164 0 OFFCURVE",
"230 -3 CURVE",
"232 0 OFFCURVE",
"234 5 OFFCURVE",
"235 10 CURVE SMOOTH",
"236 18 OFFCURVE",
"236 26 OFFCURVE",
"234 26 CURVE SMOOTH",
"221 26 OFFCURVE",
"175 37 OFFCURVE",
"174 46 CURVE SMOOTH",
"172 69 OFFCURVE",
"175 100 OFFCURVE",
"183 139 CURVE SMOOTH",
"216 311 LINE",
"238 311 LINE SMOOTH",
"249 311 OFFCURVE",
"256 308 OFFCURVE",
"260 302 CURVE SMOOTH",
"382 104 LINE SMOOTH",
"435 18 OFFCURVE",
"469 -2 OFFCURVE",
"535 -2 CURVE SMOOTH",
"551 -2 OFFCURVE",
"588 -2 OFFCURVE",
"614 0 CURVE",
"616 3 OFFCURVE",
"618 6 OFFCURVE",
"619 11 CURVE SMOOTH",
"621 23 OFFCURVE",
"620 29 OFFCURVE",
"617 29 CURVE SMOOTH",
"592 29 OFFCURVE",
"533 37 OFFCURVE",
"494 97 CURVE SMOOTH",
"345 330 LINE SMOOTH",
"340 338 OFFCURVE",
"339 343 OFFCURVE",
"340 348 CURVE SMOOTH",
"340 351 OFFCURVE",
"342 355 OFFCURVE",
"344 357 CURVE SMOOTH",
"575 595 LINE SMOOTH",
"599 620 OFFCURVE",
"633 632 OFFCURVE",
"675 637 CURVE",
"677 639 OFFCURVE",
"679 644 OFFCURVE",
"681 651 CURVE SMOOTH",
"682 655 OFFCURVE",
"682 660 OFFCURVE",
"682 662 CURVE",
"665 661 OFFCURVE",
"612 656 OFFCURVE",
"579 656 CURVE SMOOTH",
"557 656 OFFCURVE",
"499 660 OFFCURVE",
"474 662 CURVE",
"472 657 OFFCURVE",
"470 652 OFFCURVE",
"469 646 CURVE SMOOTH",
"468 640 OFFCURVE",
"468 637 OFFCURVE",
"471 637 CURVE SMOOTH",
"509 637 OFFCURVE",
"528 631 OFFCURVE",
"524 620 CURVE SMOOTH",
"522 614 OFFCURVE",
"513 602 OFFCURVE",
"494 582 CURVE SMOOTH",
"302 379 LINE SMOOTH",
"283 359 OFFCURVE",
"259 350 OFFCURVE",
"238 350 CURVE SMOOTH",
"224 350 LINE",
"257 519 LINE SMOOTH",
"264 558 OFFCURVE",
"273 589 OFFCURVE",
"284 612 CURVE SMOOTH",
"289 621 OFFCURVE",
"339 633 OFFCURVE",
"352 633 CURVE SMOOTH",
"354 633 OFFCURVE",
"358 642 OFFCURVE",
"359 649 CURVE SMOOTH",
"360 655 OFFCURVE",
"360 660 OFFCURVE",
"360 662 CURVE",
"331 660 OFFCURVE",
"268 656 OFFCURVE",
"248 656 CURVE SMOOTH",
"212 656 OFFCURVE",
"146 661 OFFCURVE",
"130 662 CURVE",
"126 659 OFFCURVE",
"124 654 OFFCURVE",
"123 646 CURVE SMOOTH",
"122 637 OFFCURVE",
"121 633 OFFCURVE",
"124 633 CURVE SMOOTH",
"141 633 OFFCURVE",
"185 623 OFFCURVE",
"187 612 CURVE",
"188 594 OFFCURVE",
"185 564 OFFCURVE",
"177 523 CURVE SMOOTH",
"101 135 LINE SMOOTH",
"93 94 OFFCURVE",
"85 64 OFFCURVE",
"77 46 CURVE",
"71 35 OFFCURVE",
"23 26 OFFCURVE",
"6 26 CURVE SMOOTH",
"3 26 OFFCURVE",
"2 21 OFFCURVE",
"-1 12 CURVE SMOOTH",
"-3 5 OFFCURVE",
"-2 0 OFFCURVE",
"0 -3 CURVE"
);
}
);
width = 639;
},
{
anchors = (
{
name = bottom;
position = "{314, 0}";
},
{
name = top;
position = "{442, 658}";
}
);
background = {
paths = (
{
closed = 1;
nodes = (
"295 534 OFFCURVE",
"308 591 OFFCURVE",
"316 604 CURVE SMOOTH",
"321 613 OFFCURVE",
"364 628 OFFCURVE",
"375 628 CURVE SMOOTH",
"379 628 OFFCURVE",
"383 646 OFFCURVE",
"383 657 CURVE SMOOTH",
"383 662 LINE",
"307 658 OFFCURVE",
"263 656 OFFCURVE",
"251 656 CURVE SMOOTH",
"226 656 OFFCURVE",
"158 660 OFFCURVE",
"129 662 CURVE",
"125 658 OFFCURVE",
"123 648 OFFCURVE",
"123 632 CURVE SMOOTH",
"123 629 OFFCURVE",
"123 628 OFFCURVE",
"124 628 CURVE SMOOTH",
"139 628 OFFCURVE",
"172 616 OFFCURVE",
"172 596 CURVE SMOOTH",
"172 579 OFFCURVE",
"169 555 OFFCURVE",
"163 523 CURVE SMOOTH",
"88 135 LINE SMOOTH",
"82 97 OFFCURVE",
"74 69 OFFCURVE",
"63 52 CURVE",
"56 40 OFFCURVE",
"19 30 OFFCURVE",
"4 30 CURVE SMOOTH",
"1 30 OFFCURVE",
"-2 11 OFFCURVE",
"-2 2 CURVE SMOOTH",
"-2 -1 OFFCURVE",
"-2 -3 OFFCURVE",
"-1 -4 CURVE",
"15 -3 OFFCURVE",
"92 3 OFFCURVE",
"125 3 CURVE SMOOTH",
"150 3 OFFCURVE",
"224 -2 OFFCURVE",
"252 -4 CURVE",
"257 3 OFFCURVE",
"259 12 OFFCURVE",
"259 25 CURVE SMOOTH",
"259 28 OFFCURVE",
"258 30 OFFCURVE",
"257 30 CURVE SMOOTH",
"245 30 OFFCURVE",
"209 46 OFFCURVE",
"209 59 CURVE SMOOTH",
"209 78 OFFCURVE",
"212 104 OFFCURVE",
"219 139 CURVE SMOOTH",
"292 519 LINE SMOOTH"
);
},
{
closed = 1;
nodes = (
"420 76 LINE SMOOTH",
"440 45 OFFCURVE",
"463 25 OFFCURVE",
"483 14 CURVE SMOOTH",
"493 9 OFFCURVE",
"505 5 OFFCURVE",
"520 2 CURVE SMOOTH",
"535 -1 OFFCURVE",
"562 -3 OFFCURVE",
"603 -4 CURVE SMOOTH",
"632 -4 OFFCURVE",
"652 -3 OFFCURVE",
"663 0 CURVE",
"668 7 OFFCURVE",
"670 14 OFFCURVE",
"670 22 CURVE SMOOTH",
"670 27 OFFCURVE",
"669 30 OFFCURVE",
"667 30 CURVE SMOOTH",
"626 30 OFFCURVE",
"594 49 OFFCURVE",
"550 112 CURVE SMOOTH",
"395 334 LINE SMOOTH",
"393 337 OFFCURVE",
"392 340 OFFCURVE",
"392 343 CURVE SMOOTH",
"392 350 OFFCURVE",
"395 356 OFFCURVE",
"402 363 CURVE SMOOTH",
"615 585 LINE SMOOTH",
"639 610 OFFCURVE",
"676 625 OFFCURVE",
"726 630 CURVE",
"730 630 OFFCURVE",
"734 650 OFFCURVE",
"734 662 CURVE",
"658 658 OFFCURVE",
"619 656 OFFCURVE",
"616 656 CURVE SMOOTH",
"601 656 OFFCURVE",
"560 658 OFFCURVE",
"492 662 CURVE",
"489 657 OFFCURVE",
"488 650 OFFCURVE",
"488 641 CURVE SMOOTH",
"488 634 OFFCURVE",
"489 630 OFFCURVE",
"491 630 CURVE SMOOTH",
"506 630 OFFCURVE",
"543 622 OFFCURVE",
"543 610 CURVE SMOOTH",
"543 602 OFFCURVE",
"539 594 OFFCURVE",
"531 586 CURVE SMOOTH",
"445 500 OFFCURVE",
"385 441 OFFCURVE",
"350 409 CURVE SMOOTH",
"315 376 OFFCURVE",
"284 351 OFFCURVE",
"256 333 CURVE"
);
}
);
};
color = -1;
layerId = "EE330C8E-4A1C-402A-831D-620872201BE1";
paths = (
{
closed = 1;
nodes = (
"11 -3 OFFCURVE",
"103 4 OFFCURVE",
"129 4 CURVE SMOOTH",
"148 4 OFFCURVE",
"210 0 OFFCURVE",
"266 -4 CURVE",
"268 0 OFFCURVE",
"270 6 OFFCURVE",
"272 14 CURVE SMOOTH",
"274 29 OFFCURVE",
"274 33 OFFCURVE",
"271 33 CURVE SMOOTH",
"257 33 OFFCURVE",
"216 51 OFFCURVE",
"214 58 CURVE SMOOTH",
"212 75 OFFCURVE",
"214 98 OFFCURVE",
"223 146 CURVE SMOOTH",
"251 289 LINE",
"270 289 LINE SMOOTH",
"284 289 OFFCURVE",
"291 285 OFFCURVE",
"297 275 CURVE SMOOTH",
"405 102 LINE SMOOTH",
"455 22 OFFCURVE",
"492 -5 OFFCURVE",
"565 -5 CURVE SMOOTH",
"592 -5 OFFCURVE",
"619 -6 OFFCURVE",
"652 -4 CURVE",
"655 0 OFFCURVE",
"657 4 OFFCURVE",
"660 14 CURVE SMOOTH",
"664 26 OFFCURVE",
"663 33 OFFCURVE",
"659 33 CURVE SMOOTH",
"611 33 OFFCURVE",
"577 71 OFFCURVE",
"541 128 CURVE SMOOTH",
"397 353 LINE",
"394 357 OFFCURVE",
"393 362 OFFCURVE",
"394 367 CURVE SMOOTH",
"395 372 OFFCURVE",
"398 377 OFFCURVE",
"404 382 CURVE SMOOTH",
"616 586 LINE SMOOTH",
"640 609 OFFCURVE",
"685 624 OFFCURVE",
"740 627 CURVE",
"742 629 OFFCURVE",
"744 634 OFFCURVE",
"748 647 CURVE SMOOTH",
"750 654 OFFCURVE",
"749 660 OFFCURVE",
"749 662 CURVE",
"649 657 OFFCURVE",
"623 656 OFFCURVE",
"616 656 CURVE SMOOTH",
"602 656 OFFCURVE",
"574 657 OFFCURVE",
"491 662 CURVE",
"489 660 OFFCURVE",
"489 657 OFFCURVE",
"488 653 CURVE SMOOTH",
"485 642 OFFCURVE",
"486 627 OFFCURVE",
"490 627 CURVE SMOOTH",
"523 627 OFFCURVE",
"548 619 OFFCURVE",
"546 609 CURVE SMOOTH",
"543 596 OFFCURVE",
"535 587 OFFCURVE",
"522 574 CURVE SMOOTH",
"324 388 LINE SMOOTH",
"302 368 OFFCURVE",
"280 350 OFFCURVE",
"273 350 CURVE SMOOTH",
"263 350 LINE",
"295 516 LINE SMOOTH",
"307 570 OFFCURVE",
"311 587 OFFCURVE",
"319 601 CURVE SMOOTH",
"323 608 OFFCURVE",
"372 625 OFFCURVE",
"389 625 CURVE SMOOTH",
"392 625 OFFCURVE",
"394 631 OFFCURVE",
"396 644 CURVE SMOOTH",
"398 652 OFFCURVE",
"398 658 OFFCURVE",
"397 662 CURVE",
"316 658 OFFCURVE",
"269 656 OFFCURVE",
"256 656 CURVE SMOOTH",
"251 656 OFFCURVE",
"213 658 OFFCURVE",
"122 662 CURVE",
"120 660 OFFCURVE",
"117 650 OFFCURVE",
"116 642 CURVE SMOOTH",
"114 629 OFFCURVE",
"114 625 OFFCURVE",
"117 625 CURVE SMOOTH",
"135 625 OFFCURVE",
"170 610 OFFCURVE",
"174 600 CURVE",
"177 590 OFFCURVE",
"175 561 OFFCURVE",
"167 522 CURVE SMOOTH",
"92 138 LINE SMOOTH",
"84 98 OFFCURVE",
"77 74 OFFCURVE",
"69 58 CURVE",
"64 49 OFFCURVE",
"18 33 OFFCURVE",
"-2 33 CURVE SMOOTH",
"-4 33 OFFCURVE",
"-6 27 OFFCURVE",
"-9 12 CURVE SMOOTH",
"-11 6 OFFCURVE",
"-10 1 OFFCURVE",
"-8 -4 CURVE"
);
}
);
width = 694;
}
);
note = K;
unicode = 004B;
},
{
color = 3;
glyphname = L;
lastChange = "2019-01-09 09:14:43 +0000";
layers = (
{
anchors = (
{
name = bottom;
position = "{238, 0}";
},
{
name = center;
position = "{224, 329}";
},
{
name = dotacc;
position = "{403, 329}";
},
{
name = top;
position = "{366, 658}";
},
{
name = topright;
position = "{433, 431}";
}
);
background = {
paths = (
{
closed = 1;
nodes = (
"269 515 LINE SMOOTH",
"278 558 OFFCURVE",
"286 589 OFFCURVE",
"295 608 CURVE SMOOTH",
"299 617 OFFCURVE",
"346 631 OFFCURVE",
"357 631 CURVE SMOOTH",
"362 631 OFFCURVE",
"364 639 OFFCURVE",
"364 655 CURVE SMOOTH",
"364 658 LINE",
"359 658 OFFCURVE",
"345 657 OFFCURVE",
"320 655 CURVE SMOOTH",
"295 653 OFFCURVE",
"274 652 OFFCURVE",
"258 652 CURVE SMOOTH",
"225 652 OFFCURVE",
"166 657 OFFCURVE",
"150 658 CURVE",
"145 653 OFFCURVE",
"142 645 OFFCURVE",
"142 636 CURVE SMOOTH",
"142 633 OFFCURVE",
"143 631 OFFCURVE",
"144 631 CURVE SMOOTH",
"161 631 OFFCURVE",
"200 619 OFFCURVE",
"200 604 CURVE SMOOTH",
"200 579 OFFCURVE",
"196 549 OFFCURVE",
"189 512 CURVE SMOOTH",
"118 142 LINE SMOOTH",
"110 99 OFFCURVE",
"101 68 OFFCURVE",
"92 49 CURVE SMOOTH",
"87 38 OFFCURVE",
"44 29 OFFCURVE",
"27 29 CURVE SMOOTH",
"22 29 OFFCURVE",
"20 21 OFFCURVE",
"20 5 CURVE SMOOTH",
"20 0 OFFCURVE",
"20 -2 OFFCURVE",
"21 -3 CURVE",
"132 2 LINE",
"159 2 OFFCURVE",
"209 1 OFFCURVE",
"284 -1 CURVE SMOOTH",
"359 -3 OFFCURVE",
"413 -4 OFFCURVE",
"448 -4 CURVE",
"456 20 OFFCURVE",
"483 75 OFFCURVE",
"530 162 CURVE",
"527 166 OFFCURVE",
"520 168 OFFCURVE",
"509 168 CURVE SMOOTH",
"501 168 OFFCURVE",
"496 166 OFFCURVE",
"494 162 CURVE SMOOTH",
"469 111 OFFCURVE",
"437 72 OFFCURVE",
"416 61 CURVE SMOOTH",
"393 50 OFFCURVE",
"353 44 OFFCURVE",
"295 44 CURVE SMOOTH",
"250 44 LINE SMOOTH",
"220 44 OFFCURVE",
"202 45 OFFCURVE",
"197 47 CURVE SMOOTH",
"191 49 OFFCURVE",
"188 55 OFFCURVE",
"188 65 CURVE SMOOTH",
"188 76 OFFCURVE",
"191 100 OFFCURVE",
"198 139 CURVE SMOOTH"
);
}
);
};
color = -1;
guideLines = (
{
angle = 78.8823;
position = "{61, 331}";
}
);
layerId = "02396921-8257-42A3-8ED5-3052446F9CE3";
paths = (
{
closed = 1;
nodes = (
"223 656 OFFCURVE",
"177 659 OFFCURVE",
"130 662 CURVE",
"126 659 OFFCURVE",
"124 654 OFFCURVE",
"123 646 CURVE SMOOTH",
"122 637 OFFCURVE",
"121 633 OFFCURVE",
"124 633 CURVE SMOOTH",
"147 633 OFFCURVE",
"186 620 OFFCURVE",
"187 612 CURVE",
"189 594 OFFCURVE",
"184 564 OFFCURVE",
"176 521 CURVE SMOOTH",
"103 143 LINE SMOOTH",
"92 88 OFFCURVE",
"84 57 OFFCURVE",
"78 49 CURVE SMOOTH",
"71 40 OFFCURVE",
"29 28 OFFCURVE",
"4 28 CURVE SMOOTH",
"2 28 OFFCURVE",
"1 24 OFFCURVE",
"-1 15 CURVE SMOOTH",
"-3 6 OFFCURVE",
"-3 1 OFFCURVE",
"-1 -1 CURVE",
"29 0 OFFCURVE",
"80 2 OFFCURVE",
"120 2 CURVE SMOOTH",
"160 2 OFFCURVE",
"219 1 OFFCURVE",
"273 -1 CURVE SMOOTH",
"345 -4 OFFCURVE",
"399 -4 OFFCURVE",
"434 -4 CURVE",
"442 18 OFFCURVE",
"483 98 OFFCURVE",
"521 162 CURVE",
"517 166 OFFCURVE",
"510 168 OFFCURVE",
"497 168 CURVE SMOOTH",
"489 168 OFFCURVE",
"483 166 OFFCURVE",
"482 162 CURVE",
"425 54 OFFCURVE",
"385 44 OFFCURVE",
"270 44 CURVE SMOOTH",
"242 44 LINE SMOOTH",
"199 44 OFFCURVE",
"176 47 OFFCURVE",
"176 54 CURVE",
"174 77 OFFCURVE",
"177 107 OFFCURVE",
"184 142 CURVE SMOOTH",
"257 519 LINE SMOOTH",
"265 558 OFFCURVE",
"274 589 OFFCURVE",
"284 612 CURVE SMOOTH",
"287 619 OFFCURVE",
"332 633 OFFCURVE",
"352 633 CURVE SMOOTH",
"355 633 OFFCURVE",
"357 638 OFFCURVE",
"359 647 CURVE SMOOTH",
"360 653 OFFCURVE",
"360 658 OFFCURVE",
"360 662 CURVE",
"292 658 OFFCURVE",
"257 656 OFFCURVE",
"243 656 CURVE SMOOTH"
);
}
);
width = 533;
},
{
anchors = (
{
name = bottom;
position = "{252, 0}";
},
{
name = center;
position = "{214, 329}";
},
{
name = dotacc;
position = "{428, 329}";
},
{
name = top;
position = "{380, 658}";
},
{
name = topright;
position = "{418, 439}";
}
);
background = {
paths = (
{
closed = 1;
nodes = (
"292 519 LINE SMOOTH",
"295 534 OFFCURVE",
"308 591 OFFCURVE",
"316 604 CURVE SMOOTH",
"321 613 OFFCURVE",
"364 628 OFFCURVE",
"375 628 CURVE SMOOTH",
"379 628 OFFCURVE",
"383 646 OFFCURVE",
"383 657 CURVE SMOOTH",
"383 662 LINE",
"307 658 OFFCURVE",
"263 656 OFFCURVE",
"251 656 CURVE SMOOTH",
"226 656 OFFCURVE",
"158 660 OFFCURVE",
"129 662 CURVE",
"125 658 OFFCURVE",
"123 648 OFFCURVE",
"123 632 CURVE SMOOTH",
"123 629 OFFCURVE",
"123 628 OFFCURVE",
"124 628 CURVE SMOOTH",
"139 628 OFFCURVE",
"172 616 OFFCURVE",
"172 596 CURVE SMOOTH",
"172 579 OFFCURVE",
"169 555 OFFCURVE",
"163 523 CURVE SMOOTH",
"88 135 LINE SMOOTH",
"81 98 OFFCURVE",
"74 71 OFFCURVE",
"67 56 CURVE SMOOTH",
"62 45 OFFCURVE",
"18 30 OFFCURVE",
"5 30 CURVE SMOOTH",
"2 30 OFFCURVE",
"-2 13 OFFCURVE",
"-2 5 CURVE SMOOTH",
"-2 2 OFFCURVE",
"-1 -1 OFFCURVE",
"0 -4 CURVE",
"21 -2 LINE",
"49 -1 OFFCURVE",
"99 2 OFFCURVE",
"131 2 CURVE SMOOTH",
"158 2 OFFCURVE",
"208 1 OFFCURVE",
"283 0 CURVE SMOOTH",
"358 -1 OFFCURVE",
"413 -2 OFFCURVE",
"448 -2 CURVE",
"462 40 OFFCURVE",
"514 134 OFFCURVE",
"532 170 CURVE",
"529 174 OFFCURVE",
"520 176 OFFCURVE",
"505 176 CURVE SMOOTH",
"498 176 OFFCURVE",
"493 174 OFFCURVE",
"491 170 CURVE",
"468 129 OFFCURVE",
"430 92 OFFCURVE",
"407 80 CURVE SMOOTH",
"372 63 OFFCURVE",
"336 54 OFFCURVE",
"297 54 CURVE SMOOTH",
"273 54 LINE SMOOTH",
"245 54 OFFCURVE",
"228 56 OFFCURVE",
"222 60 CURVE SMOOTH",
"215 63 OFFCURVE",
"212 71 OFFCURVE",
"212 82 CURVE SMOOTH",
"212 92 OFFCURVE",
"214 111 OFFCURVE",
"219 139 CURVE SMOOTH"
);
}
);
};
color = -1;
layerId = "EE330C8E-4A1C-402A-831D-620872201BE1";
paths = (
{
closed = 1;
nodes = (
"251 656 OFFCURVE",
"216 658 OFFCURVE",
"122 662 CURVE",
"121 661 OFFCURVE",
"118 652 OFFCURVE",
"116 642 CURVE SMOOTH",
"114 630 OFFCURVE",
"114 625 OFFCURVE",
"117 625 CURVE SMOOTH",
"135 625 OFFCURVE",
"170 610 OFFCURVE",
"174 600 CURVE",
"177 591 OFFCURVE",
"174 563 OFFCURVE",
"167 525 CURVE SMOOTH",
"93 143 LINE SMOOTH",
"85 100 OFFCURVE",
"77 70 OFFCURVE",
"70 55 CURVE",
"65 46 OFFCURVE",
"23 33 OFFCURVE",
"-1 33 CURVE SMOOTH",
"-4 33 OFFCURVE",
"-6 28 OFFCURVE",
"-8 13 CURVE SMOOTH",
"-9 4 OFFCURVE",
"-10 -1 OFFCURVE",
"-8 -4 CURVE",
"32 -2 OFFCURVE",
"90 2 OFFCURVE",
"129 2 CURVE SMOOTH",
"158 2 OFFCURVE",
"212 1 OFFCURVE",
"293 0 CURVE SMOOTH",
"354 -1 OFFCURVE",
"413 -2 OFFCURVE",
"451 -2 CURVE",
"458 20 OFFCURVE",
"484 72 OFFCURVE",
"538 170 CURVE",
"535 174 OFFCURVE",
"525 176 OFFCURVE",
"509 176 CURVE SMOOTH",
"501 176 OFFCURVE",
"496 174 OFFCURVE",
"494 170 CURVE",
"449 92 OFFCURVE",
"380 51 OFFCURVE",
"308 51 CURVE SMOOTH",
"282 51 LINE SMOOTH",
"239 51 OFFCURVE",
"218 59 OFFCURVE",
"217 70 CURVE SMOOTH",
"215 89 OFFCURVE",
"218 116 OFFCURVE",
"223 142 CURVE SMOOTH",
"296 521 LINE SMOOTH",
"305 564 OFFCURVE",
"311 586 OFFCURVE",
"319 601 CURVE SMOOTH",
"322 608 OFFCURVE",
"372 625 OFFCURVE",
"389 625 CURVE SMOOTH",
"392 625 OFFCURVE",
"394 630 OFFCURVE",
"396 644 CURVE SMOOTH",
"397 650 OFFCURVE",
"398 656 OFFCURVE",
"397 662 CURVE",
"321 658 OFFCURVE",
"270 656 OFFCURVE",
"256 656 CURVE SMOOTH"
);
}
);
width = 543;
}
);
note = L;
unicode = 004C;
},
{
color = 6;
glyphname = Lslash;
lastChange = "2019-01-09 15:54:20 +0000";
layers = (
{
background = {
paths = (
{
closed = 1;
nodes = (
"171 260 LINE",
"90 207 LINE",
"84 202 OFFCURVE",
"100 178 QCURVE",
"164 220 LINE",
"149 143 LINE SMOOTH",
"134 62 OFFCURVE",
"124 49 QCURVE SMOOTH",
"117 40 OFFCURVE",
"69 28 OFFCURVE",
"56 28 QCURVE SMOOTH",
"52 28 OFFCURVE",
"50 15 QCURVE",
"47 2 OFFCURVE",
"50 -1 QCURVE",
"163 2 LINE SMOOTH",
"226 2 OFFCURVE",
"431 -4 OFFCURVE",
"479 -4 QCURVE",
"484 11 OFFCURVE",
"505 57 OFFCURVE",
"524 92 OFFCURVE",
"554 149 OFFCURVE",
"561 162 QCURVE",
"557 168 OFFCURVE",
"539 168 QCURVE SMOOTH",
"528 168 OFFCURVE",
"525 162 QCURVE SMOOTH",
"507 124 OFFCURVE",
"463 69 OFFCURVE",
"447 61 QCURVE SMOOTH",
"413 44 OFFCURVE",
"327 44 QCURVE SMOOTH",
"282 44 LINE SMOOTH",
"222 44 OFFCURVE",
"221 54 QCURVE",
"220 93 OFFCURVE",
"229 142 QCURVE SMOOTH",
"256 280 LINE",
"473 416 LINE SMOOTH",
"476 418 OFFCURVE",
"467 442 OFFCURVE",
"463 447 QCURVE",
"264 320 LINE",
"303 519 LINE SMOOTH",
"315 580 OFFCURVE",
"329 612 QCURVE SMOOTH",
"332 619 OFFCURVE",
"384 633 OFFCURVE",
"393 633 QCURVE SMOOTH",
"397 633 OFFCURVE",
"399 647 QCURVE",
"400 652 OFFCURVE",
"400 662 QCURVE",
"387 661 OFFCURVE",
"345 658 OFFCURVE",
"309 656 OFFCURVE",
"291 656 QCURVE SMOOTH",
"266 656 OFFCURVE",
"192 661 OFFCURVE",
"181 662 QCURVE",
"176 657 OFFCURVE",
"174 646 QCURVE SMOOTH",
"172 633 OFFCURVE",
"175 633 QCURVE SMOOTH",
"187 633 OFFCURVE",
"232 620 OFFCURVE",
"233 612 QCURVE",
"234 592 OFFCURVE",
"222 521 QCURVE SMOOTH"
);
}
);
};
color = -1;
components = (
{
name = L;
},
{
name = slashshortcomb.case;
transform = "{1, 0, 0, 1, 0, 17}";
}
);
layerId = "02396921-8257-42A3-8ED5-3052446F9CE3";
width = 533;
},
{
background = {
paths = (
{
closed = 1;
nodes = (
"269.333 656 OFFCURVE",
"225 658 OFFCURVE",
"141 662 CURVE",
"139 660 OFFCURVE",
"137 653.333 OFFCURVE",
"135 642 CURVE SMOOTH",
"133.667 632.667 OFFCURVE",
"133.667 628 OFFCURVE",
"135 628 CURVE SMOOTH",
"147 628 OFFCURVE",
"184 610.667 OFFCURVE",
"188 600 CURVE SMOOTH",
"190.667 592.667 OFFCURVE",
"188.333 567.667 OFFCURVE",
"181 525 CURVE SMOOTH",
"132 271 LINE",
"60 224 LINE",
"57.333 222 OFFCURVE",
"55.333 218.667 OFFCURVE",
"54 214 CURVE",
"52.667 203.333 OFFCURVE",
"66.333 171 OFFCURVE",
"73 171 CURVE",
"118 200 LINE",
"107 143 LINE SMOOTH",
"99 101.667 OFFCURVE",
"91.333 72.333 OFFCURVE",
"84 55 CURVE",
"77.333 44.333 OFFCURVE",
"31.667 30 OFFCURVE",
"17 30 CURVE SMOOTH",
"15 30 OFFCURVE",
"13 24.333 OFFCURVE",
"11 13 CURVE",
"9 3.667 OFFCURVE",
"9 -2 OFFCURVE",
"11 -4 CURVE",
"148 2 LINE",
"174.667 2 OFFCURVE",
"225.333 1.333 OFFCURVE",
"300 0 CURVE SMOOTH",
"374.667 -1.333 OFFCURVE",
"429.667 -2 OFFCURVE",
"465 -2 CURVE",
"471.667 17.333 OFFCURVE",
"499.667 74.667 OFFCURVE",
"549 170 CURVE",
"546.333 174 OFFCURVE",
"537.333 176 OFFCURVE",
"522 176 CURVE SMOOTH",
"514.667 176 OFFCURVE",
"510 174 OFFCURVE",
"508 170 CURVE",
"485.333 128.667 OFFCURVE",
"446.667 92 OFFCURVE",
"424 80 CURVE SMOOTH",
"389.333 62.667 OFFCURVE",
"352.667 54 OFFCURVE",
"314 54 CURVE SMOOTH",
"290 54 LINE SMOOTH",
"250.667 54 OFFCURVE",
"230.667 59.333 OFFCURVE",
"230 70 CURVE",
"228 82 OFFCURVE",
"230.333 106 OFFCURVE",
"237 142 CURVE SMOOTH",
"266 295 LINE",
"442 408 LINE SMOOTH",
"445.333 410 OFFCURVE",
"447.667 413.667 OFFCURVE",
"449 419 CURVE SMOOTH",
"450.333 423.667 OFFCURVE",
"447.333 434.333 OFFCURVE",
"440 451 CURVE",
"434.667 461 OFFCURVE",
"431 466 OFFCURVE",
"429 466 CURVE",
"281 369 LINE",
"310 521 LINE SMOOTH",
"316 553.667 OFFCURVE",
"323.667 580.333 OFFCURVE",
"333 601 CURVE SMOOTH",
"337 610.333 OFFCURVE",
"387.333 628 OFFCURVE",
"398 628 CURVE SMOOTH",
"400.667 628 OFFCURVE",
"403 633.333 OFFCURVE",
"405 644 CURVE SMOOTH",
"405.667 647.333 OFFCURVE",
"406 653.333 OFFCURVE",
"406 662 CURVE",
"330 658 OFFCURVE",
"286 656 OFFCURVE",
"274 656 CURVE SMOOTH"
);
}
);
};
color = -1;
components = (
{
name = L;
},
{
name = slashshortcomb.case;
transform = "{1, 0, 0, 1, -10, 17}";
}
);
layerId = "EE330C8E-4A1C-402A-831D-620872201BE1";
width = 543;
}
);
note = Lslash;
unicode = 0141;
},
{
color = 3;
glyphname = M;
lastChange = "2019-01-09 09:50:16 +0000";
layers = (
{
anchors = (
{
name = bottom;
position = "{384, 0}";
},
{
name = top;
position = "{522, 658}";
}
);
background = {
paths = (
{
closed = 1;
nodes = (
"475 164 LINE",
"475 163 OFFCURVE",
"474 162 OFFCURVE",
"472 162 CURVE SMOOTH",
"471 162 OFFCURVE",
"471 162 OFFCURVE",
"471 163 CURVE",
"426 438 OFFCURVE",
"401 603 OFFCURVE",
"395 658 CURVE",
"370 657 OFFCURVE",
"338 656 OFFCURVE",
"300 656 CURVE SMOOTH",
"287 656 OFFCURVE",
"255 657 OFFCURVE",
"206 658 CURVE",
"202 655 OFFCURVE",
"200 649 OFFCURVE",
"200 638 CURVE SMOOTH",
"200 633 OFFCURVE",
"201 631 OFFCURVE",
"202 631 CURVE SMOOTH",
"217 631 OFFCURVE",
"270 619 OFFCURVE",
"270 604 CURVE SMOOTH",
"270 584 OFFCURVE",
"261 550 OFFCURVE",
"257 528 CURVE",
"148 137 LINE SMOOTH",
"138 100 OFFCURVE",
"127 71 OFFCURVE",
"115 48 CURVE SMOOTH",
"110 37 OFFCURVE",
"54 24 OFFCURVE",
"38 24 CURVE SMOOTH",
"33 24 OFFCURVE",
"31 18 OFFCURVE",
"31 7 CURVE SMOOTH",
"31 2 OFFCURVE",
"32 -2 OFFCURVE",
"33 -3 CURVE",
"104 0 OFFCURVE",
"141 2 OFFCURVE",
"143 2 CURVE SMOOTH",
"150 2 OFFCURVE",
"185 0 OFFCURVE",
"247 -3 CURVE",
"250 4 OFFCURVE",
"252 11 OFFCURVE",
"252 18 CURVE SMOOTH",
"252 22 OFFCURVE",
"251 24 OFFCURVE",
"250 24 CURVE SMOOTH",
"239 24 OFFCURVE",
"182 39 OFFCURVE",
"182 53 CURVE SMOOTH",
"182 63 OFFCURVE",
"188 91 OFFCURVE",
"201 136 CURVE SMOOTH",
"318 567 LINE",
"318 568 OFFCURVE",
"319 569 OFFCURVE",
"321 569 CURVE SMOOTH",
"322 569 OFFCURVE",
"322 568 OFFCURVE",
"323 567 CURVE",
"408 0 LINE",
"411 -1 OFFCURVE",
"413 -2 OFFCURVE",
"416 -2 CURVE SMOOTH",
"432 -2 OFFCURVE",
"454 19 OFFCURVE",
"461 31 CURVE",
"722 563 LINE SMOOTH",
"723 566 OFFCURVE",
"724 567 OFFCURVE",
"725 567 CURVE SMOOTH",
"729 567 OFFCURVE",
"731 565 OFFCURVE",
"731 561 CURVE SMOOTH",
"731 555 OFFCURVE",
"730 542 OFFCURVE",
"728 522 CURVE SMOOTH",
"688 132 LINE",
"685 121 OFFCURVE",
"685 98 OFFCURVE",
"682 85 CURVE SMOOTH",
"680 73 OFFCURVE",
"673 54 OFFCURVE",
"668 42 CURVE",
"663 31 OFFCURVE",
"622 24 OFFCURVE",
"605 24 CURVE SMOOTH",
"602 24 OFFCURVE",
"598 10 OFFCURVE",
"598 2 CURVE SMOOTH",
"598 1 OFFCURVE",
"599 0 OFFCURVE",
"600 -3 CURVE",
"668 0 OFFCURVE",
"703 2 OFFCURVE",
"705 2 CURVE SMOOTH",
"716 2 OFFCURVE",
"752 0 OFFCURVE",
"814 -3 CURVE",
"818 1 OFFCURVE",
"820 7 OFFCURVE",
"820 15 CURVE SMOOTH",
"820 21 OFFCURVE",
"819 24 OFFCURVE",
"818 24 CURVE SMOOTH",
"814 24 OFFCURVE",
"798 25 OFFCURVE",
"790 26 CURVE SMOOTH",
"785 27 OFFCURVE",
"781 28 OFFCURVE",
"776 30 CURVE SMOOTH",
"771 31 OFFCURVE",
"765 40 OFFCURVE",
"760 56 CURVE",
"760 74 OFFCURVE",
"762 100 OFFCURVE",
"766 135 CURVE SMOOTH",
"805 517 LINE SMOOTH",
"808 546 OFFCURVE",
"812 566 OFFCURVE",
"815 577 CURVE SMOOTH",
"818 588 OFFCURVE",
"822 598 OFFCURVE",
"828 606 CURVE SMOOTH",
"837 619 OFFCURVE",
"860 630 OFFCURVE",
"877 630 CURVE SMOOTH",
"881 630 OFFCURVE",
"885 652 OFFCURVE",
"882 659 CURVE",
"847 656 OFFCURVE",
"818 655 OFFCURVE",
"795 655 CURVE SMOOTH",
"760 655 OFFCURVE",
"734 656 OFFCURVE",
"716 658 CURVE",
"653 523 LINE"
);
}
);
};
color = -1;
layerId = "02396921-8257-42A3-8ED5-3052446F9CE3";
paths = (
{
closed = 1;
nodes = (
"30 0 OFFCURVE",
"79 2 OFFCURVE",
"100 2 CURVE SMOOTH",
"115 2 OFFCURVE",
"146 0 OFFCURVE",
"212 -3 CURVE",
"214 1 OFFCURVE",
"216 6 OFFCURVE",
"217 11 CURVE SMOOTH",
"219 21 OFFCURVE",
"219 26 OFFCURVE",
"216 26 CURVE SMOOTH",
"165 33 OFFCURVE",
"145 42 OFFCURVE",
"142 52 CURVE SMOOTH",
"140 60 OFFCURVE",
"143 79 OFFCURVE",
"149 102 CURVE SMOOTH",
"269 631 LINE",
"246 628 LINE",
"361 10 LINE SMOOTH",
"362 3 OFFCURVE",
"366 -2 OFFCURVE",
"371 -2 CURVE SMOOTH",
"383 -2 OFFCURVE",
"391 3 OFFCURVE",
"403 24 CURVE SMOOTH",
"746 613 LINE",
"719 598 LINE",
"722 578 OFFCURVE",
"721 540 OFFCURVE",
"718 519 CURVE SMOOTH",
"654 124 LINE SMOOTH",
"644 60 OFFCURVE",
"635 46 OFFCURVE",
"626 41 CURVE SMOOTH",
"613 34 OFFCURVE",
"576 26 OFFCURVE",
"563 26 CURVE SMOOTH",
"560 26 OFFCURVE",
"558 22 OFFCURVE",
"556 13 CURVE SMOOTH",
"554 5 OFFCURVE",
"555 0 OFFCURVE",
"557 -3 CURVE",
"635 0 OFFCURVE",
"675 2 OFFCURVE",
"678 2 CURVE SMOOTH",
"691 2 OFFCURVE",
"724 0 OFFCURVE",
"790 -3 CURVE",
"792 1 OFFCURVE",
"794 6 OFFCURVE",
"795 12 CURVE SMOOTH",
"797 21 OFFCURVE",
"797 26 OFFCURVE",
"794 26 CURVE SMOOTH",
"779 26 OFFCURVE",
"734 36 OFFCURVE",
"731 48 CURVE",
"727 71 OFFCURVE",
"727 102 OFFCURVE",
"734 140 CURVE SMOOTH",
"804 546 LINE SMOOTH",
"811 585 OFFCURVE",
"820 607 OFFCURVE",
"829 613 CURVE SMOOTH",
"841 621 OFFCURVE",
"872 633 OFFCURVE",
"891 633 CURVE SMOOTH",
"894 633 OFFCURVE",
"897 638 OFFCURVE",
"899 647 CURVE SMOOTH",
"900 651 OFFCURVE",
"899 656 OFFCURVE",
"899 662 CURVE",
"865 659 OFFCURVE",
"827 658 OFFCURVE",
"786 658 CURVE SMOOTH",
"773 658 OFFCURVE",
"753 659 OFFCURVE",
"711 662 CURVE",
"685 610 OFFCURVE",
"666 579 OFFCURVE",
"645 542 CURVE SMOOTH",
"428 163 LINE",
"426 160 OFFCURVE",
"424 159 OFFCURVE",
"421 159 CURVE SMOOTH",
"419 159 OFFCURVE",
"417 161 OFFCURVE",
"416 166 CURVE SMOOTH",
"348 536 LINE SMOOTH",
"336 601 OFFCURVE",
"330 645 OFFCURVE",
"327 662 CURVE",
"289 659 OFFCURVE",
"269 657 OFFCURVE",
"244 657 CURVE SMOOTH",
"223 657 OFFCURVE",
"155 661 OFFCURVE",
"136 662 CURVE",
"132 659 OFFCURVE",
"130 654 OFFCURVE",
"129 647 CURVE SMOOTH",
"128 638 OFFCURVE",
"127 633 OFFCURVE",
"130 633 CURVE SMOOTH",
"149 633 OFFCURVE",
"203 623 OFFCURVE",
"205 612 CURVE",
"206 602 OFFCURVE",
"204 589 OFFCURVE",
"201 572 CURVE SMOOTH",
"197 549 OFFCURVE",
"171 440 OFFCURVE",
"150 340 CURVE SMOOTH",
"135 273 OFFCURVE",
"120 204 OFFCURVE",
"105 135 CURVE SMOOTH",
"95 89 OFFCURVE",
"84 60 OFFCURVE",
"70 48 CURVE",
"56 36 OFFCURVE",
"7 26 OFFCURVE",
"-12 26 CURVE SMOOTH",
"-15 26 OFFCURVE",
"-17 21 OFFCURVE",
"-20 12 CURVE SMOOTH",
"-22 5 OFFCURVE",
"-20 0 OFFCURVE",
"-18 -3 CURVE"
);
}
);
width = 872;
},
{
anchors = (
{
name = bottom;
position = "{366, 0}";
},
{
name = top;
position = "{494, 658}";
}
);
background = {
paths = (
{
closed = 1;
nodes = (
"441 231 LINE",
"441 230 OFFCURVE",
"440 229 OFFCURVE",
"439 229 CURVE SMOOTH",
"438 229 OFFCURVE",
"437 229 OFFCURVE",
"437 230 CURVE",
"422 306 OFFCURVE",
"389 485 OFFCURVE",
"374 570 CURVE SMOOTH",
"366 612 OFFCURVE",
"361 643 OFFCURVE",
"359 662 CURVE",
"308 659 OFFCURVE",
"275 658 OFFCURVE",
"260 658 CURVE SMOOTH",
"245 658 OFFCURVE",
"210 659 OFFCURVE",
"154 662 CURVE",
"149 657 OFFCURVE",
"146 648 OFFCURVE",
"146 635 CURVE SMOOTH",
"146 630 OFFCURVE",
"146 628 OFFCURVE",
"147 628 CURVE SMOOTH",
"168 628 OFFCURVE",
"213 619 OFFCURVE",
"213 602 CURVE SMOOTH",
"213 599 OFFCURVE",
"211 587 OFFCURVE",
"206 566 CURVE",
"85 101 LINE",
"82 92 OFFCURVE",
"80 85 OFFCURVE",
"79 80 CURVE SMOOTH",
"71 52 OFFCURVE",
"-2 30 OFFCURVE",
"-25 30 CURVE SMOOTH",
"-29 30 OFFCURVE",
"-34 4 OFFCURVE",
"-30 -4 CURVE",
"-14 -3 OFFCURVE",
"62 3 OFFCURVE",
"95 3 CURVE SMOOTH",
"120 3 OFFCURVE",
"195 -2 OFFCURVE",
"223 -4 CURVE",
"227 2 OFFCURVE",
"229 11 OFFCURVE",
"229 24 CURVE SMOOTH",
"229 28 OFFCURVE",
"228 30 OFFCURVE",
"227 30 CURVE SMOOTH",
"212 30 OFFCURVE",
"144 53 OFFCURVE",
"144 70 CURVE SMOOTH",
"144 75 OFFCURVE",
"145 83 OFFCURVE",
"147 93 CURVE SMOOTH",
"156 135 OFFCURVE",
"190 264 OFFCURVE",
"250 479 CURVE",
"251 482 OFFCURVE",
"253 484 OFFCURVE",
"254 484 CURVE SMOOTH",
"255 484 OFFCURVE",
"256 483 OFFCURVE",
"257 480 CURVE",
"350 0 LINE",
"354 -1 OFFCURVE",
"357 -2 OFFCURVE",
"358 -2 CURVE SMOOTH",
"373 -2 OFFCURVE",
"394 19 OFFCURVE",
"401 31 CURVE SMOOTH",
"631 454 LINE SMOOTH",
"634 459 OFFCURVE",
"636 461 OFFCURVE",
"637 461 CURVE SMOOTH",
"640 461 OFFCURVE",
"641 457 OFFCURVE",
"641 450 CURVE SMOOTH",
"641 430 OFFCURVE",
"640 414 OFFCURVE",
"639 402 CURVE SMOOTH",
"612 145 LINE SMOOTH",
"608 96 OFFCURVE",
"606 81 OFFCURVE",
"593 58 CURVE",
"584 45 OFFCURVE",
"543 30 OFFCURVE",
"530 30 CURVE SMOOTH",
"527 30 OFFCURVE",
"523 14 OFFCURVE",
"523 7 CURVE SMOOTH",
"523 2 OFFCURVE",
"524 -1 OFFCURVE",
"525 -4 CURVE",
"530 -4 OFFCURVE",
"550 -3 OFFCURVE",
"584 -1 CURVE SMOOTH",
"618 2 OFFCURVE",
"643 3 OFFCURVE",
"660 3 CURVE SMOOTH",
"676 3 OFFCURVE",
"699 2 OFFCURVE",
"729 -1 CURVE SMOOTH",
"758 -3 OFFCURVE",
"775 -4 OFFCURVE",
"778 -4 CURVE",
"783 2 OFFCURVE",
"785 12 OFFCURVE",
"785 25 CURVE SMOOTH",
"785 28 OFFCURVE",
"784 30 OFFCURVE",
"783 30 CURVE SMOOTH",
"767 30 OFFCURVE",
"730 42 OFFCURVE",
"730 68 CURVE SMOOTH",
"730 83 OFFCURVE",
"734 116 OFFCURVE",
"734 116 CURVE",
"739 182 OFFCURVE",
"752 318 OFFCURVE",
"775 524 CURVE SMOOTH",
"780 569 OFFCURVE",
"788 598 OFFCURVE",
"799 611 CURVE SMOOTH",
"809 622 OFFCURVE",
"825 628 OFFCURVE",
"847 628 CURVE SMOOTH",
"852 628 OFFCURVE",
"854 639 OFFCURVE",
"854 662 CURVE",
"803 659 OFFCURVE",
"771 658 OFFCURVE",
"757 658 CURVE SMOOTH",
"715 658 OFFCURVE",
"683 659 OFFCURVE",
"662 662 CURVE",
"608 546 LINE"
);
}
);
};
color = -1;
layerId = "EE330C8E-4A1C-402A-831D-620872201BE1";
paths = (
{
closed = 1;
nodes = (
"17 0 OFFCURVE",
"46 4 OFFCURVE",
"84 4 CURVE SMOOTH",
"98 4 OFFCURVE",
"140 4 OFFCURVE",
"218 -4 CURVE",
"220 0 OFFCURVE",
"222 6 OFFCURVE",
"224 13 CURVE SMOOTH",
"228 26 OFFCURVE",
"226 33 OFFCURVE",
"223 33 CURVE SMOOTH",
"213 33 OFFCURVE",
"141 56 OFFCURVE",
"140 73 CURVE",
"140 78 OFFCURVE",
"143 90 OFFCURVE",
"146 109 CURVE",
"247 539 LINE",
"228 565 LINE",
"350 20 LINE SMOOTH",
"354 4 OFFCURVE",
"360 -2 OFFCURVE",
"367 -2 CURVE SMOOTH",
"379 -2 OFFCURVE",
"384 4 OFFCURVE",
"400 31 CURVE SMOOTH",
"709 554 LINE",
"666 509 LINE",
"667 499 OFFCURVE",
"671 477 OFFCURVE",
"663 432 CURVE",
"611 109 LINE SMOOTH",
"606 80 OFFCURVE",
"601 71 OFFCURVE",
"594 61 CURVE SMOOTH",
"585 48 OFFCURVE",
"541 33 OFFCURVE",
"526 33 CURVE SMOOTH",
"524 33 OFFCURVE",
"521 26 OFFCURVE",
"519 12 CURVE SMOOTH",
"518 5 OFFCURVE",
"519 -1 OFFCURVE",
"521 -4 CURVE",
"551 0 OFFCURVE",
"629 4 OFFCURVE",
"665 4 CURVE SMOOTH",
"700 4 OFFCURVE",
"768 -3 OFFCURVE",
"783 -4 CURVE",
"785 0 OFFCURVE",
"787 6 OFFCURVE",
"789 13 CURVE SMOOTH",
"793 26 OFFCURVE",
"791 33 OFFCURVE",
"788 33 CURVE SMOOTH",
"776 33 OFFCURVE",
"738 48 OFFCURVE",
"736 60 CURVE",
"732 81 OFFCURVE",
"733 111 OFFCURVE",
"739 152 CURVE SMOOTH",
"800 572 LINE SMOOTH",
"803 592 OFFCURVE",
"811 606 OFFCURVE",
"822 613 CURVE SMOOTH",
"835 621 OFFCURVE",
"850 625 OFFCURVE",
"868 625 CURVE SMOOTH",
"871 625 OFFCURVE",
"875 632 OFFCURVE",
"877 646 CURVE SMOOTH",
"878 653 OFFCURVE",
"878 658 OFFCURVE",
"876 662 CURVE",
"825 657 OFFCURVE",
"773 656 OFFCURVE",
"749 656 CURVE SMOOTH",
"714 656 OFFCURVE",
"697 657 OFFCURVE",
"685 658 CURVE",
"669 621 OFFCURVE",
"637 554 OFFCURVE",
"615 517 CURVE SMOOTH",
"441 221 LINE",
"439 218 OFFCURVE",
"438 216 OFFCURVE",
"436 216 CURVE SMOOTH",
"434 216 OFFCURVE",
"432 219 OFFCURVE",
"430 229 CURVE SMOOTH",
"370 524 LINE SMOOTH",
"359 579 OFFCURVE",
"342 641 OFFCURVE",
"339 662 CURVE",
"312 659 OFFCURVE",
"259 656 OFFCURVE",
"242 656 CURVE SMOOTH",
"217 656 OFFCURVE",
"156 660 OFFCURVE",
"128 662 CURVE",
"124 659 OFFCURVE",
"122 654 OFFCURVE",
"121 647 CURVE SMOOTH",
"119 633 OFFCURVE",
"118 626 OFFCURVE",
"121 626 CURVE SMOOTH",
"138 626 OFFCURVE",
"189 616 OFFCURVE",
"191 605 CURVE",
"192 600 OFFCURVE",
"191 594 OFFCURVE",
"183 557 CURVE SMOOTH",
"175 522 OFFCURVE",
"150 410 OFFCURVE",
"120 285 CURVE SMOOTH",
"104 218 OFFCURVE",
"90 159 OFFCURVE",
"74 97 CURVE SMOOTH",
"69 78 OFFCURVE",
"63 70 OFFCURVE",
"51 60 CURVE",
"26 45 OFFCURVE",
"-23 32 OFFCURVE",
"-41 32 CURVE SMOOTH",
"-43 32 OFFCURVE",
"-46 26 OFFCURVE",
"-47 13 CURVE SMOOTH",
"-48 4 OFFCURVE",
"-49 -1 OFFCURVE",
"-47 -4 CURVE"
);
}
);
width = 857;
}
);
note = M;
unicode = 004D;
},
{
color = 3;
glyphname = N;
lastChange = "2019-01-09 10:34:03 +0000";
layers = (
{
anchors = (
{
name = bottom;
position = "{324, 0}";
},
{
name = top;
position = "{452, 658}";
}
);
background = {
paths = (
{
closed = 1;
nodes = (
"205 654 OFFCURVE",
"127 658 QCURVE",
"120 653 OFFCURVE",
"120 638 QCURVE SMOOTH",
"120 631 OFFCURVE",
"122 631 QCURVE SMOOTH",
"138 631 OFFCURVE",
"190 618 OFFCURVE",
"190 606 QCURVE SMOOTH",
"190 560 OFFCURVE",
"181 516 QCURVE SMOOTH",
"104 144 LINE SMOOTH",
"88 70 OFFCURVE",
"77 48 QCURVE SMOOTH",
"73 40 OFFCURVE",
"12 24 OFFCURVE",
"0 24 QCURVE SMOOTH",
"-7 24 OFFCURVE",
"-7 5 QCURVE SMOOTH",
"-7 -1 OFFCURVE",
"-5 -3 QCURVE",
"103 2 OFFCURVE",
"105 2 QCURVE SMOOTH",
"117 2 OFFCURVE",
"209 -3 QCURVE",
"214 7 OFFCURVE",
"214 19 QCURVE SMOOTH",
"214 24 OFFCURVE",
"212 24 QCURVE",
"195 27 LINE SMOOTH",
"179 30 OFFCURVE",
"147 44 OFFCURVE",
"147 52 QCURVE SMOOTH",
"147 92 OFFCURVE",
"157 141 QCURVE SMOOTH",
"246 581 LINE",
"491 17 OFFCURVE",
"492 15 QCURVE SMOOTH",
"504 -8 OFFCURVE",
"518 -8 QCURVE SMOOTH",
"524 -8 OFFCURVE",
"528 -4 QCURVE",
"530 7 OFFCURVE",
"546 105 OFFCURVE",
"552 136 QCURVE SMOOTH",
"627 516 LINE SMOOTH",
"639 577 OFFCURVE",
"652 609 QCURVE SMOOTH",
"655 616 OFFCURVE",
"720 631 OFFCURVE",
"730 631 QCURVE SMOOTH",
"736 631 OFFCURVE",
"736 658 QCURVE",
"641 653 OFFCURVE",
"627 653 QCURVE SMOOTH",
"625 653 OFFCURVE",
"522 658 QCURVE",
"515 653 OFFCURVE",
"515 638 QCURVE SMOOTH",
"515 631 OFFCURVE",
"517 631 QCURVE SMOOTH",
"532 631 OFFCURVE",
"587 617 OFFCURVE",
"587 605 QCURVE SMOOTH",
"587 578 OFFCURVE",
"574 513 QCURVE SMOOTH",
"523 244 LINE SMOOTH",
"519 223 OFFCURVE",
"512 203 QCURVE",
"451 324 OFFCURVE",
"335 599 OFFCURVE",
"320 658 QCURVE",
"244 654 OFFCURVE",
"226 654 QCURVE SMOOTH"
);
}
);
};
color = -1;
layerId = "02396921-8257-42A3-8ED5-3052446F9CE3";
paths = (
{
closed = 1;
nodes = (
"563 -5 OFFCURVE",
"569 -4 OFFCURVE",
"573 -1 CURVE",
"581 51 OFFCURVE",
"589 98 OFFCURVE",
"597 139 CURVE SMOOTH",
"671 519 LINE SMOOTH",
"679 560 OFFCURVE",
"688 591 OFFCURVE",
"697 612 CURVE SMOOTH",
"701 621 OFFCURVE",
"768 635 OFFCURVE",
"781 635 CURVE SMOOTH",
"784 635 OFFCURVE",
"786 639 OFFCURVE",
"787 647 CURVE SMOOTH",
"788 653 OFFCURVE",
"788 658 OFFCURVE",
"788 662 CURVE",
"757 660 OFFCURVE",
"695 656 OFFCURVE",
"675 656 CURVE SMOOTH",
"639 656 OFFCURVE",
"575 661 OFFCURVE",
"558 662 CURVE",
"554 659 OFFCURVE",
"552 654 OFFCURVE",
"551 647 CURVE SMOOTH",
"550 639 OFFCURVE",
"550 635 OFFCURVE",
"553 635 CURVE SMOOTH",
"570 635 OFFCURVE",
"625 623 OFFCURVE",
"627 612 CURVE",
"629 594 OFFCURVE",
"625 565 OFFCURVE",
"617 524 CURVE SMOOTH",
"557 213 LINE SMOOTH",
"552 185 OFFCURVE",
"544 165 OFFCURVE",
"538 151 CURVE",
"568 128 LINE",
"347 560 LINE SMOOTH",
"320 613 OFFCURVE",
"308 646 OFFCURVE",
"302 662 CURVE",
"283 661 OFFCURVE",
"256 660 OFFCURVE",
"221 660 CURVE SMOOTH",
"205 660 OFFCURVE",
"172 661 OFFCURVE",
"120 662 CURVE",
"116 659 OFFCURVE",
"114 654 OFFCURVE",
"113 646 CURVE SMOOTH",
"112 637 OFFCURVE",
"111 633 OFFCURVE",
"114 633 CURVE SMOOTH",
"133 633 OFFCURVE",
"187 623 OFFCURVE",
"189 612 CURVE",
"191 595 OFFCURVE",
"188 570 OFFCURVE",
"182 537 CURVE SMOOTH",
"105 144 LINE SMOOTH",
"96 99 OFFCURVE",
"86 67 OFFCURVE",
"77 50 CURVE SMOOTH",
"71 38 OFFCURVE",
"11 26 OFFCURVE",
"-8 26 CURVE SMOOTH",
"-10 26 OFFCURVE",
"-12 21 OFFCURVE",
"-14 12 CURVE SMOOTH",
"-16 4 OFFCURVE",
"-15 -1 OFFCURVE",
"-13 -3 CURVE",
"25 -1 OFFCURVE",
"65 2 OFFCURVE",
"100 2 CURVE SMOOTH",
"113 2 OFFCURVE",
"150 0 OFFCURVE",
"217 -3 CURVE",
"218 0 OFFCURVE",
"220 5 OFFCURVE",
"221 10 CURVE SMOOTH",
"223 18 OFFCURVE",
"222 26 OFFCURVE",
"220 26 CURVE SMOOTH",
"207 26 OFFCURVE",
"151 39 OFFCURVE",
"149 48 CURVE SMOOTH",
"145 66 OFFCURVE",
"152 97 OFFCURVE",
"161 141 CURVE SMOOTH",
"252 613 LINE",
"225 605 LINE",
"525 18 LINE SMOOTH",
"533 3 OFFCURVE",
"542 -5 OFFCURVE",
"553 -5 CURVE SMOOTH"
);
}
);
width = 731;
},
{
anchors = (
{
name = bottom;
position = "{291, 0}";
},
{
name = top;
position = "{419, 658}";
}
);
background = {
paths = (
{
closed = 1;
nodes = (
"221 657 OFFCURVE",
"180 659 OFFCURVE",
"110 662 CURVE",
"105 659 OFFCURVE",
"103 650 OFFCURVE",
"103 636 CURVE SMOOTH",
"103 631 OFFCURVE",
"104 628 OFFCURVE",
"106 628 CURVE SMOOTH",
"129 628 OFFCURVE",
"179 616 OFFCURVE",
"179 596 CURVE SMOOTH",
"179 578 OFFCURVE",
"177 558 OFFCURVE",
"173 537 CURVE SMOOTH",
"97 144 LINE SMOOTH",
"90 107 OFFCURVE",
"83 82 OFFCURVE",
"74 71 CURVE SMOOTH",
"51 42 OFFCURVE",
"-1 30 OFFCURVE",
"-25 30 CURVE SMOOTH",
"-28 30 OFFCURVE",
"-33 4 OFFCURVE",
"-29 -4 CURVE",
"-13 -3 OFFCURVE",
"64 3 OFFCURVE",
"97 3 CURVE SMOOTH",
"122 3 OFFCURVE",
"196 -2 OFFCURVE",
"224 -4 CURVE",
"228 4 OFFCURVE",
"230 14 OFFCURVE",
"230 25 CURVE SMOOTH",
"230 28 OFFCURVE",
"229 30 OFFCURVE",
"228 30 CURVE SMOOTH",
"208 30 OFFCURVE",
"148 45 OFFCURVE",
"148 86 CURVE SMOOTH",
"148 96 OFFCURVE",
"151 114 OFFCURVE",
"156 141 CURVE SMOOTH",
"230 524 LINE",
"507 18 LINE",
"516 3 OFFCURVE",
"525 -5 OFFCURVE",
"532 -5 CURVE SMOOTH",
"545 -5 OFFCURVE",
"553 -4 OFFCURVE",
"556 -1 CURVE",
"566 65 OFFCURVE",
"574 112 OFFCURVE",
"579 139 CURVE SMOOTH",
"653 519 LINE SMOOTH",
"660 557 OFFCURVE",
"669 581 OFFCURVE",
"680 592 CURVE",
"702 615 OFFCURVE",
"751 628 OFFCURVE",
"771 628 CURVE SMOOTH",
"776 628 OFFCURVE",
"779 639 OFFCURVE",
"779 662 CURVE",
"717 659 OFFCURVE",
"676 657 OFFCURVE",
"655 657 CURVE SMOOTH",
"638 657 OFFCURVE",
"595 659 OFFCURVE",
"525 662 CURVE",
"521 658 OFFCURVE",
"519 649 OFFCURVE",
"519 635 CURVE SMOOTH",
"519 630 OFFCURVE",
"520 628 OFFCURVE",
"521 628 CURVE SMOOTH",
"580 628 OFFCURVE",
"608 598 OFFCURVE",
"595 524 CURVE SMOOTH",
"551 292 LINE",
"546 269 OFFCURVE",
"542 255 OFFCURVE",
"541 251 CURVE",
"496 339 OFFCURVE",
"417 473 OFFCURVE",
"370 564 CURVE SMOOTH",
"347 607 OFFCURVE",
"333 639 OFFCURVE",
"327 662 CURVE",
"301 659 OFFCURVE",
"270 657 OFFCURVE",
"234 657 CURVE SMOOTH"
);
}
);
};
color = -1;
layerId = "EE330C8E-4A1C-402A-831D-620872201BE1";
paths = (
{
closed = 1;
nodes = (
"543 -5 OFFCURVE",
"551 -4 OFFCURVE",
"555 -1 CURVE",
"565 68 OFFCURVE",
"573 115 OFFCURVE",
"578 139 CURVE SMOOTH",
"652 519 LINE SMOOTH",
"659 556 OFFCURVE",
"669 581 OFFCURVE",
"680 592 CURVE SMOOTH",
"703 614 OFFCURVE",
"733 625 OFFCURVE",
"770 625 CURVE SMOOTH",
"773 625 OFFCURVE",
"776 631 OFFCURVE",
"778 644 CURVE SMOOTH",
"780 651 OFFCURVE",
"780 657 OFFCURVE",
"778 662 CURVE",
"762 661 OFFCURVE",
"685 654 OFFCURVE",
"652 654 CURVE SMOOTH",
"630 654 OFFCURVE",
"587 657 OFFCURVE",
"527 662 CURVE",
"524 660 OFFCURVE",
"523 654 OFFCURVE",
"522 648 CURVE SMOOTH",
"520 637 OFFCURVE",
"520 625 OFFCURVE",
"523 625 CURVE SMOOTH",
"539 625 OFFCURVE",
"586 611 OFFCURVE",
"595 596 CURVE SMOOTH",
"601 586 OFFCURVE",
"596 562 OFFCURVE",
"589 524 CURVE SMOOTH",
"548 289 LINE SMOOTH",
"541 250 OFFCURVE",
"535 238 OFFCURVE",
"531 226 CURVE",
"555 206 LINE",
"370 564 LINE SMOOTH",
"347 608 OFFCURVE",
"329 639 OFFCURVE",
"323 662 CURVE",
"279 657 OFFCURVE",
"252 654 OFFCURVE",
"229 654 CURVE SMOOTH",
"206 654 OFFCURVE",
"123 660 OFFCURVE",
"99 662 CURVE",
"96 660 OFFCURVE",
"94 653 OFFCURVE",
"93 646 CURVE SMOOTH",
"92 636 OFFCURVE",
"91 625 OFFCURVE",
"94 625 CURVE SMOOTH",
"113 625 OFFCURVE",
"164 617 OFFCURVE",
"169 608 CURVE",
"177 595 OFFCURVE",
"178 572 OFFCURVE",
"171 537 CURVE SMOOTH",
"95 144 LINE SMOOTH",
"88 106 OFFCURVE",
"80 82 OFFCURVE",
"71 71 CURVE SMOOTH",
"48 42 OFFCURVE",
"-1 33 OFFCURVE",
"-21 33 CURVE SMOOTH",
"-23 33 OFFCURVE",
"-25 27 OFFCURVE",
"-28 14 CURVE SMOOTH",
"-30 4 OFFCURVE",
"-30 -2 OFFCURVE",
"-29 -4 CURVE",
"28 -1 OFFCURVE",
"60 4 OFFCURVE",
"96 4 CURVE SMOOTH",
"122 4 OFFCURVE",
"151 0 OFFCURVE",
"226 -4 CURVE",
"228 -2 OFFCURVE",
"230 5 OFFCURVE",
"231 12 CURVE SMOOTH",
"232 22 OFFCURVE",
"234 34 OFFCURVE",
"232 34 CURVE SMOOTH",
"212 34 OFFCURVE",
"155 47 OFFCURVE",
"149 70 CURVE SMOOTH",
"146 81 OFFCURVE",
"148 104 OFFCURVE",
"155 141 CURVE SMOOTH",
"238 569 LINE",
"213 559 LINE",
"503 18 LINE SMOOTH",
"512 2 OFFCURVE",
"521 -5 OFFCURVE",
"529 -5 CURVE SMOOTH"
);
}
);
width = 704;
}
);
note = N;
unicode = 004E;
},
{
color = 3;
glyphname = Eng;
lastChange = "2019-01-09 10:34:00 +0000";
layers = (
{
background = {
paths = (
{
closed = 1;
nodes = (
"563 -5 OFFCURVE",
"569 -4 OFFCURVE",
"573 -1 CURVE",
"581 51 OFFCURVE",
"589 98 OFFCURVE",
"597 139 CURVE SMOOTH",
"671 519 LINE SMOOTH",
"679 560 OFFCURVE",
"688 591 OFFCURVE",
"697 612 CURVE SMOOTH",
"701 621 OFFCURVE",
"768 635 OFFCURVE",
"781 635 CURVE SMOOTH",
"784 635 OFFCURVE",
"786 639 OFFCURVE",
"787 647 CURVE SMOOTH",
"788 653 OFFCURVE",
"788 658 OFFCURVE",
"788 662 CURVE",
"757 660 OFFCURVE",
"695 656 OFFCURVE",
"675 656 CURVE SMOOTH",
"639 656 OFFCURVE",
"575 661 OFFCURVE",
"558 662 CURVE",
"554 659 OFFCURVE",
"552 654 OFFCURVE",
"551 647 CURVE SMOOTH",
"550 639 OFFCURVE",
"550 635 OFFCURVE",
"553 635 CURVE SMOOTH",
"570 635 OFFCURVE",
"625 623 OFFCURVE",
"627 612 CURVE",
"629 594 OFFCURVE",
"625 565 OFFCURVE",
"617 524 CURVE SMOOTH",
"557 213 LINE SMOOTH",
"552 185 OFFCURVE",
"544 165 OFFCURVE",
"538 151 CURVE",
"568 128 LINE",
"347 560 LINE SMOOTH",
"320 613 OFFCURVE",
"308 646 OFFCURVE",
"302 662 CURVE",
"283 661 OFFCURVE",
"256 660 OFFCURVE",
"221 660 CURVE SMOOTH",
"205 660 OFFCURVE",
"172 661 OFFCURVE",
"120 662 CURVE",
"116 659 OFFCURVE",
"114 654 OFFCURVE",
"113 646 CURVE SMOOTH",
"112 637 OFFCURVE",
"111 633 OFFCURVE",
"114 633 CURVE SMOOTH",
"133 633 OFFCURVE",
"187 623 OFFCURVE",
"189 612 CURVE",
"191 595 OFFCURVE",
"188 570 OFFCURVE",
"182 537 CURVE SMOOTH",
"105 144 LINE SMOOTH",
"96 99 OFFCURVE",
"86 67 OFFCURVE",
"77 50 CURVE SMOOTH",
"71 38 OFFCURVE",
"11 26 OFFCURVE",
"-8 26 CURVE SMOOTH",
"-10 26 OFFCURVE",
"-12 21 OFFCURVE",
"-14 12 CURVE SMOOTH",
"-16 4 OFFCURVE",
"-15 -1 OFFCURVE",
"-13 -3 CURVE",
"25 -1 OFFCURVE",
"65 2 OFFCURVE",
"100 2 CURVE SMOOTH",
"113 2 OFFCURVE",
"150 0 OFFCURVE",
"217 -3 CURVE",
"218 0 OFFCURVE",
"220 5 OFFCURVE",
"221 10 CURVE SMOOTH",
"223 18 OFFCURVE",
"222 26 OFFCURVE",
"220 26 CURVE SMOOTH",
"207 26 OFFCURVE",
"151 39 OFFCURVE",
"149 48 CURVE SMOOTH",
"145 66 OFFCURVE",
"152 97 OFFCURVE",
"161 141 CURVE SMOOTH",
"252 613 LINE",
"225 605 LINE",
"525 18 LINE SMOOTH",
"533 3 OFFCURVE",
"542 -5 OFFCURVE",
"553 -5 CURVE SMOOTH"
);
}
);
};
color = -1;
guideLines = (
{
angle = 79.0459;
position = "{587, 369}";
}
);
layerId = "02396921-8257-42A3-8ED5-3052446F9CE3";
paths = (
{
closed = 1;
nodes = (
"457 -227 OFFCURVE",
"549 -111 OFFCURVE",
"588 91 CURVE SMOOTH",
"671 519 LINE SMOOTH",
"679 560 OFFCURVE",
"688 591 OFFCURVE",
"697 612 CURVE SMOOTH",
"700 621 OFFCURVE",
"767 635 OFFCURVE",
"780 635 CURVE SMOOTH",
"785 635 OFFCURVE",
"788 653 OFFCURVE",
"788 657 CURVE SMOOTH",
"788 659 OFFCURVE",
"787 660 OFFCURVE",
"787 662 CURVE",
"757 660 OFFCURVE",
"694 656 OFFCURVE",
"674 656 CURVE SMOOTH",
"638 656 OFFCURVE",
"574 661 OFFCURVE",
"557 662 CURVE",
"554 659 OFFCURVE",
"552 654 OFFCURVE",
"550 647 CURVE SMOOTH",
"549 639 OFFCURVE",
"549 635 OFFCURVE",
"552 635 CURVE SMOOTH",
"569 635 OFFCURVE",
"625 623 OFFCURVE",
"627 612 CURVE",
"628 594 OFFCURVE",
"625 565 OFFCURVE",
"617 524 CURVE SMOOTH",
"557 214 LINE SMOOTH",
"552 186 OFFCURVE",
"544 165 OFFCURVE",
"538 151 CURVE",
"568 128 LINE",
"347 560 LINE SMOOTH",
"320 613 OFFCURVE",
"307 646 OFFCURVE",
"301 662 CURVE",
"282 661 OFFCURVE",
"256 660 OFFCURVE",
"221 660 CURVE SMOOTH",
"205 660 OFFCURVE",
"171 661 OFFCURVE",
"119 662 CURVE",
"115 658 OFFCURVE",
"111 651 OFFCURVE",
"111 638 CURVE SMOOTH",
"111 635 OFFCURVE",
"112 633 OFFCURVE",
"114 633 CURVE SMOOTH",
"133 633 OFFCURVE",
"187 623 OFFCURVE",
"189 612 CURVE",
"190 595 OFFCURVE",
"188 571 OFFCURVE",
"182 538 CURVE SMOOTH",
"105 144 LINE SMOOTH",
"96 99 OFFCURVE",
"86 67 OFFCURVE",
"76 50 CURVE SMOOTH",
"70 38 OFFCURVE",
"11 26 OFFCURVE",
"-8 26 CURVE SMOOTH",
"-12 26 OFFCURVE",
"-15 10 OFFCURVE",
"-15 3 CURVE SMOOTH",
"-15 0 OFFCURVE",
"-15 -2 OFFCURVE",
"-14 -3 CURVE",
"25 -1 OFFCURVE",
"64 2 OFFCURVE",
"99 2 CURVE SMOOTH",
"112 2 OFFCURVE",
"150 0 OFFCURVE",
"216 -3 CURVE",
"219 2 OFFCURVE",
"222 14 OFFCURVE",
"222 19 CURVE SMOOTH",
"222 23 OFFCURVE",
"221 26 OFFCURVE",
"220 26 CURVE SMOOTH",
"207 26 OFFCURVE",
"150 39 OFFCURVE",
"149 48 CURVE SMOOTH",
"147 66 OFFCURVE",
"152 97 OFFCURVE",
"160 141 CURVE SMOOTH",
"252 613 LINE",
"224 605 LINE",
"532 4 LINE",
"529 72 LINE",
"524 45 LINE SMOOTH",
"511 -23 OFFCURVE",
"453 -167 OFFCURVE",
"392 -167 CURVE SMOOTH",
"365 -167 OFFCURVE",
"365 -124 OFFCURVE",
"315 -124 CURVE SMOOTH",
"281 -124 OFFCURVE",
"254 -146 OFFCURVE",
"254 -177 CURVE SMOOTH",
"254 -207 OFFCURVE",
"279 -227 OFFCURVE",
"329 -227 CURVE SMOOTH"
);
}
);
width = 731;
},
{
background = {
paths = (
{
closed = 1;
nodes = (
"578 139 LINE",
"652 519 LINE SMOOTH",
"659 556 OFFCURVE",
"669 581 OFFCURVE",
"680 592 CURVE SMOOTH",
"703 614 OFFCURVE",
"733 625 OFFCURVE",
"770 625 CURVE SMOOTH",
"773 625 OFFCURVE",
"776 631 OFFCURVE",
"778 644 CURVE SMOOTH",
"780 651 OFFCURVE",
"780 657 OFFCURVE",
"778 662 CURVE",
"762 661 OFFCURVE",
"685 654 OFFCURVE",
"652 654 CURVE SMOOTH",
"630 654 OFFCURVE",
"587 657 OFFCURVE",
"527 662 CURVE",
"524 660 OFFCURVE",
"523 654 OFFCURVE",
"522 648 CURVE SMOOTH",
"520 637 OFFCURVE",
"520 625 OFFCURVE",
"523 625 CURVE SMOOTH",
"539 625 OFFCURVE",
"586 611 OFFCURVE",
"595 596 CURVE SMOOTH",
"601 586 OFFCURVE",
"596 562 OFFCURVE",
"589 524 CURVE SMOOTH",
"548 289 LINE SMOOTH",
"541 250 OFFCURVE",
"535 238 OFFCURVE",
"531 226 CURVE",
"555 206 LINE",
"370 564 LINE SMOOTH",
"347 608 OFFCURVE",
"329 639 OFFCURVE",
"323 662 CURVE",
"279 657 OFFCURVE",
"252 654 OFFCURVE",
"229 654 CURVE SMOOTH",
"206 654 OFFCURVE",
"123 660 OFFCURVE",
"99 662 CURVE",
"96 660 OFFCURVE",
"94 653 OFFCURVE",
"93 646 CURVE SMOOTH",
"92 636 OFFCURVE",
"91 625 OFFCURVE",
"94 625 CURVE SMOOTH",
"113 625 OFFCURVE",
"164 617 OFFCURVE",
"169 608 CURVE",
"177 595 OFFCURVE",
"178 572 OFFCURVE",
"171 537 CURVE SMOOTH",
"95 144 LINE SMOOTH",
"88 106 OFFCURVE",
"80 82 OFFCURVE",
"71 71 CURVE SMOOTH",
"48 42 OFFCURVE",
"-1 33 OFFCURVE",
"-21 33 CURVE SMOOTH",
"-23 33 OFFCURVE",
"-25 27 OFFCURVE",
"-28 14 CURVE SMOOTH",
"-30 4 OFFCURVE",
"-30 -2 OFFCURVE",
"-29 -4 CURVE",
"28 -1 OFFCURVE",
"60 4 OFFCURVE",
"96 4 CURVE SMOOTH",
"122 4 OFFCURVE",
"151 0 OFFCURVE",
"226 -4 CURVE",
"228 -2 OFFCURVE",
"230 5 OFFCURVE",
"231 12 CURVE SMOOTH",
"232 22 OFFCURVE",
"234 34 OFFCURVE",
"232 34 CURVE SMOOTH",
"212 34 OFFCURVE",
"155 47 OFFCURVE",
"149 70 CURVE SMOOTH",
"146 81 OFFCURVE",
"148 104 OFFCURVE",
"155 141 CURVE SMOOTH",
"238 569 LINE",
"213 559 LINE",
"503 18 LINE"
);
},
{
closed = 1;
nodes = (
"548 291 LINE",
"504 63 LINE SMOOTH",
"475 -89 OFFCURVE",
"421 -148 OFFCURVE",
"390 -148 CURVE SMOOTH",
"365 -148 OFFCURVE",
"344 -87 OFFCURVE",
"298 -87 CURVE SMOOTH",
"264 -87 OFFCURVE",
"234 -114 OFFCURVE",
"234 -156 CURVE SMOOTH",
"234 -187 OFFCURVE",
"254 -218 OFFCURVE",
"322 -218 CURVE SMOOTH",
"425 -218 OFFCURVE",
"528 -124 OFFCURVE",
"558 33 CURVE SMOOTH",
"608 291 LINE"
);
}
);
};
color = -1;
layerId = "EE330C8E-4A1C-402A-831D-620872201BE1";
paths = (
{
closed = 1;
nodes = (
"425 -218 OFFCURVE",
"525 -143 OFFCURVE",
"555 13 CURVE SMOOTH",
"652 519 LINE SMOOTH",
"659 556 OFFCURVE",
"669 581 OFFCURVE",
"680 592 CURVE SMOOTH",
"703 614 OFFCURVE",
"733 625 OFFCURVE",
"770 625 CURVE SMOOTH",
"773 625 OFFCURVE",
"776 631 OFFCURVE",
"778 644 CURVE SMOOTH",
"780 651 OFFCURVE",
"780 657 OFFCURVE",
"778 662 CURVE",
"762 661 OFFCURVE",
"685 654 OFFCURVE",
"652 654 CURVE SMOOTH",
"630 654 OFFCURVE",
"587 657 OFFCURVE",
"527 662 CURVE",
"524 660 OFFCURVE",
"523 654 OFFCURVE",
"522 648 CURVE SMOOTH",
"520 637 OFFCURVE",
"520 625 OFFCURVE",
"523 625 CURVE SMOOTH",
"539 625 OFFCURVE",
"586 611 OFFCURVE",
"595 596 CURVE SMOOTH",
"601 586 OFFCURVE",
"596 562 OFFCURVE",
"589 524 CURVE SMOOTH",
"548 289 LINE SMOOTH",
"541 250 OFFCURVE",
"535 238 OFFCURVE",
"531 226 CURVE",
"555 206 LINE",
"370 564 LINE SMOOTH",
"347 608 OFFCURVE",
"329 639 OFFCURVE",
"323 662 CURVE",
"279 657 OFFCURVE",
"252 654 OFFCURVE",
"229 654 CURVE SMOOTH",
"206 654 OFFCURVE",
"123 660 OFFCURVE",
"99 662 CURVE",
"96 660 OFFCURVE",
"94 653 OFFCURVE",
"93 646 CURVE SMOOTH",
"92 636 OFFCURVE",
"91 625 OFFCURVE",
"94 625 CURVE SMOOTH",
"113 625 OFFCURVE",
"164 617 OFFCURVE",
"169 608 CURVE",
"177 595 OFFCURVE",
"178 572 OFFCURVE",
"171 537 CURVE SMOOTH",
"95 144 LINE SMOOTH",
"88 106 OFFCURVE",
"80 82 OFFCURVE",
"71 71 CURVE SMOOTH",
"48 42 OFFCURVE",
"-1 33 OFFCURVE",
"-21 33 CURVE SMOOTH",
"-23 33 OFFCURVE",
"-25 27 OFFCURVE",
"-28 14 CURVE SMOOTH",
"-30 4 OFFCURVE",
"-30 -2 OFFCURVE",
"-29 -4 CURVE",
"28 -1 OFFCURVE",
"60 4 OFFCURVE",
"96 4 CURVE SMOOTH",
"122 4 OFFCURVE",
"151 0 OFFCURVE",
"226 -4 CURVE",
"228 -2 OFFCURVE",
"230 5 OFFCURVE",
"231 12 CURVE SMOOTH",
"232 22 OFFCURVE",
"234 34 OFFCURVE",
"232 34 CURVE SMOOTH",
"212 34 OFFCURVE",
"155 47 OFFCURVE",
"149 70 CURVE SMOOTH",
"146 81 OFFCURVE",
"148 104 OFFCURVE",
"155 141 CURVE SMOOTH",
"238 569 LINE",
"213 559 LINE",
"503 18 LINE",
"513 110 LINE",
"500 43 LINE SMOOTH",
"472 -103 OFFCURVE",
"421 -148 OFFCURVE",
"390 -148 CURVE SMOOTH",
"365 -148 OFFCURVE",
"344 -87 OFFCURVE",
"298 -87 CURVE SMOOTH",
"264 -87 OFFCURVE",
"234 -114 OFFCURVE",
"234 -155 CURVE SMOOTH",
"234 -187 OFFCURVE",
"254 -218 OFFCURVE",
"322 -218 CURVE SMOOTH"
);
}
);
width = 704;
}
);
leftMetricsKey = N;
widthMetricsKey = N;
note = Eng;
unicode = 014A;
},
{
color = 3;
glyphname = O;
lastChange = "2019-01-09 10:46:25 +0000";
layers = (
{
anchors = (
{
name = bottom;
position = "{311, 0}";
},
{
name = center;
position = "{375, 329}";
},
{
name = ogonek;
position = "{416, 10}";
},
{
name = top;
position = "{439, 658}";
},
{
name = topleft;
position = "{126, 658}";
},
{
name = topright;
position = "{684, 658}";
}
);
background = {
paths = (
{
closed = 1;
nodes = (
"1232 625 OFFCURVE",
"1293 528 OFFCURVE",
"1293 395 CURVE SMOOTH",
"1293 215 OFFCURVE",
"1176 33 OFFCURVE",
"1037 33 CURVE SMOOTH",
"928 33 OFFCURVE",
"866 131 OFFCURVE",
"866 267 CURVE SMOOTH",
"866 447 OFFCURVE",
"980 625 OFFCURVE",
"1124 625 CURVE SMOOTH"
);
},
{
closed = 1;
nodes = (
"1027 667 OFFCURVE",
"903 586 OFFCURVE",
"830 459 CURVE SMOOTH",
"793 395 OFFCURVE",
"775 328 OFFCURVE",
"775 259 CURVE SMOOTH",
"775 104 OFFCURVE",
"868 -10 OFFCURVE",
"1011 -10 CURVE SMOOTH",
"1140 -10 OFFCURVE",
"1265 75 OFFCURVE",
"1334 204 CURVE SMOOTH",
"1369 269 OFFCURVE",
"1385 337 OFFCURVE",
"1385 409 CURVE SMOOTH",
"1385 552 OFFCURVE",
"1282 667 OFFCURVE",
"1147 667 CURVE SMOOTH"
);
},
{
closed = 1;
nodes = (
"486 -10 OFFCURVE",
"643 145 OFFCURVE",
"678 327 CURVE SMOOTH",
"715 515 OFFCURVE",
"605 667 OFFCURVE",
"439 667 CURVE SMOOTH",
"271 667 OFFCURVE",
"108 516 OFFCURVE",
"72 326 CURVE SMOOTH",
"36 142 OFFCURVE",
"145 -10 OFFCURVE",
"308 -10 CURVE SMOOTH"
);
},
{
closed = 1;
nodes = (
"197 33 OFFCURVE",
"136 181 OFFCURVE",
"169 350 CURVE SMOOTH",
"197 495 OFFCURVE",
"301 625 OFFCURVE",
"419 625 CURVE SMOOTH",
"554 625 OFFCURVE",
"615 478 OFFCURVE",
"582 309 CURVE SMOOTH",
"555 167 OFFCURVE",
"453 33 OFFCURVE",
"331 33 CURVE SMOOTH"
);
}
);
};
color = -1;
guideLines = (
{
angle = 79;
position = "{395, 431}";
}
);
layerId = "02396921-8257-42A3-8ED5-3052446F9CE3";
paths = (
{
closed = 1;
nodes = (
"510 -10 OFFCURVE",
"685 191 OFFCURVE",
"685 399 CURVE SMOOTH",
"685 552 OFFCURVE",
"583 667 OFFCURVE",
"439 667 CURVE SMOOTH",
"243 667 OFFCURVE",
"65 464 OFFCURVE",
"65 256 CURVE SMOOTH",
"65 105 OFFCURVE",
"166 -10 OFFCURVE",
"308 -10 CURVE SMOOTH"
);
},
{
closed = 1;
nodes = (
"221 33 OFFCURVE",
"160 133 OFFCURVE",
"160 262 CURVE SMOOTH",
"160 432 OFFCURVE",
"270 625 OFFCURVE",
"419 625 CURVE SMOOTH",
"530 625 OFFCURVE",
"591 526 OFFCURVE",
"591 397 CURVE SMOOTH",
"591 226 OFFCURVE",
"481 33 OFFCURVE",
"331 33 CURVE SMOOTH"
);
}
);
width = 706;
},
{
anchors = (
{
name = bottom;
position = "{315, 0}";
},
{
name = center;
position = "{379, 329}";
},
{
name = ogonek;
position = "{408, 10}";
},
{
name = top;
position = "{443, 658}";
},
{
name = topleft;
position = "{115, 658}";
},
{
name = topright;
position = "{620, 658}";
}
);
background = {
paths = (
{
closed = 1;
nodes = (
"465 -10 OFFCURVE",
"634 140 OFFCURVE",
"671 328 CURVE SMOOTH",
"708 516 OFFCURVE",
"596 668 OFFCURVE",
"435 668 CURVE SMOOTH",
"273 668 OFFCURVE",
"102 516 OFFCURVE",
"66 328 CURVE SMOOTH",
"30 140 OFFCURVE",
"140 -10 OFFCURVE",
"303 -10 CURVE SMOOTH"
);
},
{
closed = 1;
nodes = (
"223 43 OFFCURVE",
"184 187 OFFCURVE",
"216 349 CURVE SMOOTH",
"245 497 OFFCURVE",
"325 615 OFFCURVE",
"418 615 CURVE SMOOTH",
"513 615 OFFCURVE",
"553 471 OFFCURVE",
"521 310 CURVE SMOOTH",
"492 164 OFFCURVE",
"413 43 OFFCURVE",
"317 43 CURVE SMOOTH"
);
}
);
};
color = -1;
layerId = "EE330C8E-4A1C-402A-831D-620872201BE1";
paths = (
{
closed = 1;
nodes = (
"496 -10 OFFCURVE",
"678 194 OFFCURVE",
"678 399 CURVE SMOOTH",
"678 553 OFFCURVE",
"575 668 OFFCURVE",
"435 668 CURVE SMOOTH",
"243 668 OFFCURVE",
"59 463 OFFCURVE",
"59 258 CURVE SMOOTH",
"59 104 OFFCURVE",
"161 -10 OFFCURVE",
"303 -10 CURVE SMOOTH"
);
},
{
closed = 1;
nodes = (
"245 43 OFFCURVE",
"205 125 OFFCURVE",
"204.993 241 CURVE SMOOTH",
"205 401 OFFCURVE",
"289 615 OFFCURVE",
"418 615 CURVE SMOOTH",
"491 615 OFFCURVE",
"532 532 OFFCURVE",
"532 416 CURVE SMOOTH",
"532 256 OFFCURVE",
"446 43 OFFCURVE",
"317 43 CURVE SMOOTH"
);
}
);
width = 695;
}
);
note = O;
rightMetricsKey = "=|";
unicode = 004F;
},
{
color = 6;
glyphname = Oslash;
lastChange = "2019-01-09 15:55:12 +0000";
layers = (
{
background = {
paths = (
{
closed = 1;
nodes = (
"654 645 LINE SMOOTH",
"657 649 OFFCURVE",
"638 665 OFFCURVE",
"631 667 QCURVE",
"115 10 LINE SMOOTH",
"112 6 OFFCURVE",
"130 -10 OFFCURVE",
"137 -13 QCURVE"
);
},
{
closed = 1;
nodes = (
"482 625 OFFCURVE",
"557 570 OFFCURVE",
"591 480 OFFCURVE",
"601 367 OFFCURVE",
"588 309 QCURVE SMOOTH",
"567 199 OFFCURVE",
"432 33 OFFCURVE",
"343 33 QCURVE SMOOTH",
"291 33 OFFCURVE",
"216 88 OFFCURVE",
"183 178 OFFCURVE",
"173 292 OFFCURVE",
"186 350 QCURVE SMOOTH",
"207 459 OFFCURVE",
"342 625 OFFCURVE",
"430 625 QCURVE SMOOTH"
);
},
{
closed = 1;
nodes = (
"443 -10 OFFCURVE",
"657 188 OFFCURVE",
"711 468 OFFCURVE",
"575 667 OFFCURVE",
"329 667 OFFCURVE",
"116 468 OFFCURVE",
"62 188 OFFCURVE",
"197 -10 OFFCURVE"
);
}
);
};
color = -1;
components = (
{
name = O;
},
{
name = slashlongcomb.case;
transform = "{1, 0, 0, 1, 4, 1}";
}
);
layerId = "02396921-8257-42A3-8ED5-3052446F9CE3";
width = 706;
},
{
background = {
paths = (
{
closed = 1;
nodes = (
"416.667 611 OFFCURVE",
"448.333 594 OFFCURVE",
"469 560 CURVE",
"182 149 LINE",
"175.333 175 OFFCURVE",
"172 204.667 OFFCURVE",
"172 238 CURVE SMOOTH",
"172 450 OFFCURVE",
"267.333 611 OFFCURVE",
"374 611 CURVE SMOOTH"
);
},
{
closed = 1;
nodes = (
"275.333 667 OFFCURVE",
"151.833 584 OFFCURVE",
"80.5 456 CURVE SMOOTH",
"44.833 392 OFFCURVE",
"27 325.333 OFFCURVE",
"27 256 CURVE SMOOTH",
"27 168.667 OFFCURVE",
"55 99.667 OFFCURVE",
"111 49 CURVE",
"95 26 LINE",
"93.667 24.667 OFFCURVE",
"93 22.333 OFFCURVE",
"93 19 CURVE SMOOTH",
"93 9.667 OFFCURVE",
"118.333 -1.333 OFFCURVE",
"129 0 CURVE",
"145 23 LINE",
"181.667 1 OFFCURVE",
"222.333 -10 OFFCURVE",
"267 -10 CURVE SMOOTH",
"389.667 -10 OFFCURVE",
"514.167 73.167 OFFCURVE",
"585.5 200.5 CURVE SMOOTH",
"621.167 264.167 OFFCURVE",
"639 330.667 OFFCURVE",
"639 400 CURVE SMOOTH",
"639 486.667 OFFCURVE",
"611.667 555.333 OFFCURVE",
"557 606 CURVE",
"581 640 LINE",
"581.667 641.333 OFFCURVE",
"582 643.333 OFFCURVE",
"582 646 CURVE SMOOTH",
"582 656.667 OFFCURVE",
"554.333 671.667 OFFCURVE",
"545 669 CURVE",
"521 634 LINE",
"484.333 656 OFFCURVE",
"443.333 667 OFFCURVE",
"398 667 CURVE SMOOTH"
);
},
{
closed = 1;
nodes = (
"252.333 46 OFFCURVE",
"221.333 64.333 OFFCURVE",
"200 101 CURVE",
"489 510 LINE",
"493.667 488.667 OFFCURVE",
"496 463.667 OFFCURVE",
"496 435 CURVE SMOOTH",
"496 291.461 OFFCURVE",
"433.618 46 OFFCURVE",
"293 46 CURVE SMOOTH"
);
}
);
};
color = -1;
components = (
{
name = O;
},
{
name = slashlongcomb.case;
transform = "{1, 0, 0, 1, 8, 1}";
}
);
layerId = "EE330C8E-4A1C-402A-831D-620872201BE1";
width = 695;
}
);
note = Oslash;
unicode = 00D8;
},
{
color = 3;
glyphname = Ohorn;
lastChange = "2019-01-09 10:55:51 +0000";
layers = (
{
anchors = (
{
name = bottom;
position = "{311, 0}";
},
{
name = top;
position = "{439, 658}";
}
);
background = {
paths = (
{
closed = 1;
nodes = (
"510 -10 OFFCURVE",
"685 191 OFFCURVE",
"685 399 CURVE SMOOTH",
"685 552 OFFCURVE",
"583 667 OFFCURVE",
"439 667 CURVE SMOOTH",
"243 667 OFFCURVE",
"65 464 OFFCURVE",
"65 256 CURVE SMOOTH",
"65 105 OFFCURVE",
"166 -10 OFFCURVE",
"308 -10 CURVE SMOOTH"
);
},
{
closed = 1;
nodes = (
"221 33 OFFCURVE",
"160 133 OFFCURVE",
"160 262 CURVE SMOOTH",
"160 432 OFFCURVE",
"270 625 OFFCURVE",
"419 625 CURVE SMOOTH",
"530 625 OFFCURVE",
"591 526 OFFCURVE",
"591 397 CURVE SMOOTH",
"591 226 OFFCURVE",
"481 33 OFFCURVE",
"331 33 CURVE SMOOTH"
);
},
{
closed = 1;
nodes = (
"626 566 LINE",
"634 565 OFFCURVE",
"641 564 OFFCURVE",
"649 564 CURVE SMOOTH",
"714 564 OFFCURVE",
"775 605 OFFCURVE",
"775 666 CURVE SMOOTH",
"775 686 OFFCURVE",
"765 707 OFFCURVE",
"735 707 CURVE SMOOTH",
"712 707 OFFCURVE",
"689 694 OFFCURVE",
"689 668 CURVE SMOOTH",
"689 652 OFFCURVE",
"705 641 OFFCURVE",
"705 629 CURVE SMOOTH",
"705 613 OFFCURVE",
"695 598 OFFCURVE",
"666 598 CURVE SMOOTH",
"613 598 OFFCURVE",
"548 667 OFFCURVE",
"439 667 CURVE"
);
}
);
};
color = -1;
layerId = "02396921-8257-42A3-8ED5-3052446F9CE3";
paths = (
{
closed = 1;
nodes = (
"510 -10 OFFCURVE",
"685 191 OFFCURVE",
"685 399 CURVE SMOOTH",
"685 474 OFFCURVE",
"660 539 OFFCURVE",
"619 587 CURVE",
"626 566 LINE",
"701 554 OFFCURVE",
"775 599 OFFCURVE",
"775 666 CURVE SMOOTH",
"775 686 OFFCURVE",
"765 707 OFFCURVE",
"735 707 CURVE SMOOTH",
"712 707 OFFCURVE",
"689 694 OFFCURVE",
"689 668 CURVE SMOOTH",
"689 652 OFFCURVE",
"705 641 OFFCURVE",
"705 629 CURVE SMOOTH",
"705 613 OFFCURVE",
"695 598 OFFCURVE",
"666 598 CURVE SMOOTH",
"611 598 OFFCURVE",
"550 667 OFFCURVE",
"439 667 CURVE SMOOTH",
"242 667 OFFCURVE",
"65 464 OFFCURVE",
"65 256 CURVE SMOOTH",
"65 105 OFFCURVE",
"166 -10 OFFCURVE",
"308 -10 CURVE SMOOTH"
);
},
{
closed = 1;
nodes = (
"221 33 OFFCURVE",
"160 133 OFFCURVE",
"160 262 CURVE SMOOTH",
"160 432 OFFCURVE",
"270 625 OFFCURVE",
"419 625 CURVE SMOOTH",
"530 625 OFFCURVE",
"591 526 OFFCURVE",
"591 397 CURVE SMOOTH",
"591 226 OFFCURVE",
"481 33 OFFCURVE",
"331 33 CURVE SMOOTH"
);
}
);
width = 706;
},
{
anchors = (
{
name = bottom;
position = "{315, 0}";
},
{
name = top;
position = "{443, 658}";
}
);
background = {
paths = (
{
closed = 1;
nodes = (
"496 -10 OFFCURVE",
"678 194 OFFCURVE",
"678 399 CURVE SMOOTH",
"678 553 OFFCURVE",
"575 668 OFFCURVE",
"435 668 CURVE SMOOTH",
"243 668 OFFCURVE",
"59 463 OFFCURVE",
"59 258 CURVE SMOOTH",
"59 104 OFFCURVE",
"161 -10 OFFCURVE",
"303 -10 CURVE SMOOTH"
);
},
{
closed = 1;
nodes = (
"245 43 OFFCURVE",
"205 125 OFFCURVE",
"205 241 CURVE SMOOTH",
"205 401 OFFCURVE",
"289 615 OFFCURVE",
"418 615 CURVE SMOOTH",
"491 615 OFFCURVE",
"532 532 OFFCURVE",
"532 416 CURVE SMOOTH",
"532 256 OFFCURVE",
"446 43 OFFCURVE",
"317 43 CURVE SMOOTH"
);
},
{
closed = 1;
nodes = (
"590 610 OFFCURVE",
"541 668 OFFCURVE",
"435 668 CURVE",
"620 558 LINE",
"729 550 OFFCURVE",
"772 612 OFFCURVE",
"772 661 CURVE SMOOTH",
"772 685 OFFCURVE",
"758 720 OFFCURVE",
"721 720 CURVE SMOOTH",
"696 720 OFFCURVE",
"674 707 OFFCURVE",
"674 680 CURVE SMOOTH",
"674 664 OFFCURVE",
"693 644 OFFCURVE",
"693 635 CURVE SMOOTH",
"693 617 OFFCURVE",
"675 610 OFFCURVE",
"647 610 CURVE SMOOTH"
);
}
);
};
color = -1;
layerId = "EE330C8E-4A1C-402A-831D-620872201BE1";
paths = (
{
closed = 1;
nodes = (
"496 -10 OFFCURVE",
"678 194 OFFCURVE",
"678 399 CURVE SMOOTH",
"678 470 OFFCURVE",
"656 534 OFFCURVE",
"619 579 CURVE",
"585 562 LINE",
"720 538 OFFCURVE",
"772 607 OFFCURVE",
"772 661 CURVE SMOOTH",
"772 685 OFFCURVE",
"758 720 OFFCURVE",
"721 720 CURVE SMOOTH",
"696 720 OFFCURVE",
"674 707 OFFCURVE",
"674 680 CURVE SMOOTH",
"674 664 OFFCURVE",
"693 644 OFFCURVE",
"693 635 CURVE SMOOTH",
"693 617 OFFCURVE",
"675 610 OFFCURVE",
"647 610 CURVE SMOOTH",
"590 610 OFFCURVE",
"541 668 OFFCURVE",
"435 668 CURVE SMOOTH",
"243 668 OFFCURVE",
"59 463 OFFCURVE",
"59 258 CURVE SMOOTH",
"59 104 OFFCURVE",
"161 -10 OFFCURVE",
"303 -10 CURVE SMOOTH"
);
},
{
closed = 1;
nodes = (
"245 43 OFFCURVE",
"205 125 OFFCURVE",
"205 241 CURVE SMOOTH",
"205 401 OFFCURVE",
"289 615 OFFCURVE",
"418 615 CURVE SMOOTH",
"491 615 OFFCURVE",
"532 532 OFFCURVE",
"532 416 CURVE SMOOTH",
"532 256 OFFCURVE",
"446 43 OFFCURVE",
"317 43 CURVE SMOOTH"
);
}
);
width = 695;
}
);
leftMetricsKey = O;
widthMetricsKey = O;
unicode = 01A0;
},
{
color = 3;
glyphname = Oogonek;
lastChange = "2019-01-09 10:55:44 +0000";
layers = (
{
anchors = (
{
name = center;
position = "{375, 329}";
},
{
name = top;
position = "{439, 658}";
},
{
name = topleft;
position = "{126, 658}";
},
{
name = topright;
position = "{684, 658}";
}
);
background = {
paths = (
{
closed = 1;
nodes = (
"510 -10 OFFCURVE",
"685 191 OFFCURVE",
"685 399 CURVE SMOOTH",
"685 552 OFFCURVE",
"583 667 OFFCURVE",
"439 667 CURVE SMOOTH",
"243 667 OFFCURVE",
"65 464 OFFCURVE",
"65 256 CURVE SMOOTH",
"65 105 OFFCURVE",
"166 -10 OFFCURVE",
"308 -10 CURVE SMOOTH"
);
},
{
closed = 1;
nodes = (
"221 33 OFFCURVE",
"160 133 OFFCURVE",
"160 262 CURVE SMOOTH",
"160 432 OFFCURVE",
"270 625 OFFCURVE",
"419 625 CURVE SMOOTH",
"530 625 OFFCURVE",
"591 526 OFFCURVE",
"591 397 CURVE SMOOTH",
"591 226 OFFCURVE",
"481 33 OFFCURVE",
"331 33 CURVE SMOOTH"
);
},
{
closed = 1;
nodes = (
"371 14 LINE",
"348 2 LINE",
"284 -35 OFFCURVE",
"212 -101 OFFCURVE",
"212 -163 CURVE SMOOTH",
"212 -194 OFFCURVE",
"233 -223 OFFCURVE",
"276 -223 CURVE SMOOTH",
"311 -223 OFFCURVE",
"351 -204 OFFCURVE",
"388 -157 CURVE SMOOTH",
"392 -152 OFFCURVE",
"395 -146 OFFCURVE",
"396 -139 CURVE SMOOTH",
"397 -130 OFFCURVE",
"397 -126 OFFCURVE",
"394 -126 CURVE",
"375 -143 OFFCURVE",
"341 -164 OFFCURVE",
"309 -164 CURVE SMOOTH",
"282 -164 OFFCURVE",
"272 -150 OFFCURVE",
"272 -133 CURVE SMOOTH",
"272 -83 OFFCURVE",
"353 -23 OFFCURVE",
"446 22 CURVE"
);
}
);
};
color = -1;
layerId = "02396921-8257-42A3-8ED5-3052446F9CE3";
paths = (
{
closed = 1;
nodes = (
"580 82 OFFCURVE",
"685 238 OFFCURVE",
"685 399 CURVE SMOOTH",
"685 552 OFFCURVE",
"583 667 OFFCURVE",
"439 667 CURVE SMOOTH",
"243 667 OFFCURVE",
"65 464 OFFCURVE",
"65 256 CURVE SMOOTH",
"65 105 OFFCURVE",
"166 -10 OFFCURVE",
"308 -10 CURVE SMOOTH",
"325 -10 OFFCURVE",
"345 -8 OFFCURVE",
"358 -6 CURVE",
"356 6 LINE",
"282 -35 OFFCURVE",
"212 -99 OFFCURVE",
"212 -163 CURVE SMOOTH",
"212 -194 OFFCURVE",
"233 -223 OFFCURVE",
"276 -223 CURVE SMOOTH",
"311 -223 OFFCURVE",
"351 -204 OFFCURVE",
"388 -157 CURVE SMOOTH",
"392 -152 OFFCURVE",
"395 -146 OFFCURVE",
"396 -139 CURVE SMOOTH",
"397 -130 OFFCURVE",
"397 -126 OFFCURVE",
"394 -126 CURVE",
"375 -143 OFFCURVE",
"341 -164 OFFCURVE",
"309 -164 CURVE SMOOTH",
"282 -164 OFFCURVE",
"272 -150 OFFCURVE",
"272 -133 CURVE SMOOTH",
"272 -84 OFFCURVE",
"354 -20 OFFCURVE",
"438 18 CURVE SMOOTH"
);
},
{
closed = 1;
nodes = (
"160 432 OFFCURVE",
"270 625 OFFCURVE",
"419 625 CURVE SMOOTH",
"530 625 OFFCURVE",
"591 526 OFFCURVE",
"591 397 CURVE SMOOTH",
"591 226 OFFCURVE",
"481 33 OFFCURVE",
"331 33 CURVE SMOOTH",
"221 33 OFFCURVE",
"160 133 OFFCURVE",
"160 262 CURVE SMOOTH"
);
}
);
width = 706;
},
{
anchors = (
{
name = center;
position = "{379, 329}";
},
{
name = top;
position = "{443, 658}";
},
{
name = topleft;
position = "{115, 658}";
},
{
name = topright;
position = "{620, 658}";
}
);
background = {
paths = (
{
closed = 1;
nodes = (
"496 -10 OFFCURVE",
"678 194 OFFCURVE",
"678 399 CURVE SMOOTH",
"678 553 OFFCURVE",
"575 668 OFFCURVE",
"435 668 CURVE SMOOTH",
"243 668 OFFCURVE",
"59 463 OFFCURVE",
"59 258 CURVE SMOOTH",
"59 104 OFFCURVE",
"161 -10 OFFCURVE",
"303 -10 CURVE SMOOTH"
);
},
{
closed = 1;
nodes = (
"245 43 OFFCURVE",
"205 125 OFFCURVE",
"205 241 CURVE SMOOTH",
"205 401 OFFCURVE",
"289 615 OFFCURVE",
"418 615 CURVE SMOOTH",
"491 615 OFFCURVE",
"532 532 OFFCURVE",
"532 416 CURVE SMOOTH",
"532 256 OFFCURVE",
"446 43 OFFCURVE",
"317 43 CURVE SMOOTH"
);
},
{
closed = 1;
nodes = (
"302 -218 OFFCURVE",
"363 -189 OFFCURVE",
"391 -149 CURVE SMOOTH",
"395 -143 OFFCURVE",
"403 -131 OFFCURVE",
"403 -117 CURVE SMOOTH",
"403 -112 OFFCURVE",
"402 -109 OFFCURVE",
"400 -109 CURVE",
"382 -122 OFFCURVE",
"339 -142 OFFCURVE",
"314 -142 CURVE SMOOTH",
"291 -142 OFFCURVE",
"279 -134 OFFCURVE",
"279 -116 CURVE SMOOTH",
"279 -79 OFFCURVE",
"324 -35 OFFCURVE",
"395 2 CURVE",
"408 10 LINE",
"374 10 LINE",
"351 3 LINE",
"285 -16 OFFCURVE",
"188 -91 OFFCURVE",
"188 -155 CURVE SMOOTH",
"188 -194 OFFCURVE",
"218 -218 OFFCURVE",
"263 -218 CURVE SMOOTH"
);
}
);
};
color = -1;
layerId = "EE330C8E-4A1C-402A-831D-620872201BE1";
paths = (
{
closed = 1;
nodes = (
"566 78 OFFCURVE",
"678 238 OFFCURVE",
"678 399 CURVE SMOOTH",
"678 553 OFFCURVE",
"575 668 OFFCURVE",
"435 668 CURVE SMOOTH",
"243 668 OFFCURVE",
"59 463 OFFCURVE",
"59 258 CURVE SMOOTH",
"59 104 OFFCURVE",
"161 -10 OFFCURVE",
"303 -10 CURVE SMOOTH",
"317 -10 OFFCURVE",
"332 -8 OFFCURVE",
"346 -6 CURVE",
"326 1 LINE",
"269 -21 OFFCURVE",
"188 -93 OFFCURVE",
"188 -155 CURVE SMOOTH",
"188 -194 OFFCURVE",
"218 -218 OFFCURVE",
"263 -218 CURVE SMOOTH",
"302 -218 OFFCURVE",
"363 -189 OFFCURVE",
"391 -149 CURVE SMOOTH",
"395 -143 OFFCURVE",
"403 -131 OFFCURVE",
"403 -117 CURVE SMOOTH",
"403 -112 OFFCURVE",
"402 -109 OFFCURVE",
"400 -109 CURVE",
"382 -122 OFFCURVE",
"339 -142 OFFCURVE",
"314 -142 CURVE SMOOTH",
"291 -142 OFFCURVE",
"279 -134 OFFCURVE",
"279 -116 CURVE SMOOTH",
"279 -79 OFFCURVE",
"322 -29 OFFCURVE",
"425 16 CURVE SMOOTH"
);
},
{
closed = 1;
nodes = (
"205 401 OFFCURVE",
"289 615 OFFCURVE",
"418 615 CURVE SMOOTH",
"491 615 OFFCURVE",
"532 532 OFFCURVE",
"532 416 CURVE SMOOTH",
"532 256 OFFCURVE",
"446 43 OFFCURVE",
"317 43 CURVE SMOOTH",
"245 43 OFFCURVE",
"205 125 OFFCURVE",
"205 241 CURVE SMOOTH"
);
}
);
width = 695;
}
);
leftMetricsKey = O;
widthMetricsKey = O;
unicode = 01EA;
},
